<svg width="1440" height="891" viewBox="0 0 1440 891" fill="none" xmlns="http://www.w3.org/2000/svg">
<rect x="-4" width="1442" height="890" fill="url(#paint0_radial_51_362)" fill-opacity="0.4"/>
<path d="M1137.25 886.815C1140.63 864.463 1149.39 838.353 1170.88 823.026C1186.72 811.731 1206.66 808.434 1225.95 805.237C1233.84 803.932 1242.01 802.583 1249.86 800.698C1308.42 786.651 1358.01 737.22 1373.24 677.691C1374.42 673.108 1375.44 668.375 1376.41 663.805C1379.29 650.386 1382.27 636.507 1389.63 625.201C1397.78 612.696 1410.71 604.49 1427.02 601.472C1432.4 600.482 1437.96 600.104 1443.55 600.305L1440.64 595.149C1435.73 595.143 1430.86 595.566 1426.12 596.448C1408.45 599.729 1394.39 608.697 1385.47 622.385C1377.59 634.484 1374.52 648.846 1371.54 662.724C1370.57 667.244 1369.57 671.921 1368.42 676.406C1353.64 734.151 1305.55 782.097 1248.74 795.725C1241.06 797.567 1232.99 798.897 1225.18 800.193C1205.33 803.478 1184.81 806.87 1168.04 818.832C1143.81 836.111 1134.84 865.873 1131.76 890.067L1137.26 886.818L1137.25 886.815Z" fill="#F1F1F1"/>
<path d="M1427.07 188.536C1404.86 166.6 1377.73 155.766 1350.64 158.017C1331.49 159.623 1313.47 167.337 1296.04 174.806C1278.76 182.203 1260.9 189.855 1242.3 191.247C1191.16 195.073 1151.6 154.518 1113.35 115.292C1103.87 105.573 1094.07 95.5259 1084.35 86.451C1038.98 44.1255 966.33 6.78255 894 23.3362V28.5745C964.83 11.8162 1036.33 48.5862 1080.98 90.2365C1090.61 99.2192 1100.37 109.225 1109.81 118.904C1148.86 158.937 1189.24 200.352 1242.66 196.342C1262.08 194.889 1280.32 187.072 1297.97 179.512C1315.04 172.207 1332.68 164.646 1351.04 163.112C1392.15 159.674 1428.06 188.27 1447.03 224.487H1452.88C1446.31 211.197 1437.55 198.91 1427.06 188.536H1427.07Z" fill="#F7F7F7"/>
<path d="M542.454 648.268C542.454 721.09 483.554 779.99 410.732 779.99C337.91 779.99 279.01 721.09 279.01 648.268C279.01 575.446 338.446 516.546 411.268 516.546C484.09 516.546 542.99 575.446 542.99 648.268H542.454Z" stroke="#F9F9F9" stroke-width="58" stroke-miterlimit="10"/>
<path d="M533.07 854.211C510.86 832.276 483.73 821.441 456.64 823.692C437.49 825.299 419.47 833.013 402.04 840.481C384.76 847.878 366.9 855.531 348.3 856.922C297.16 860.749 257.6 820.193 219.35 780.968C209.87 771.248 200.07 761.202 190.35 752.127C144.98 709.801 72.33 672.458 0 689.012V694.25C70.83 677.492 142.33 714.262 186.98 755.912C196.61 764.895 206.37 774.901 215.81 784.579C254.86 824.613 295.24 866.028 348.66 862.017C368.08 860.565 386.32 852.748 403.97 845.188C421.04 837.883 438.68 830.322 457.04 828.787C498.15 825.35 534.06 853.945 553.03 890.163H558.88C552.31 876.873 543.55 864.585 533.06 854.211H533.07Z" fill="#F7F7F7"/>
<defs>
<radialGradient id="paint0_radial_51_362" cx="0" cy="0" r="1" gradientUnits="userSpaceOnUse" gradientTransform="translate(1119.56 679) rotate(152.338) scale(590.184 1092.8)">
<stop stop-color="#D6D6D6"/>
<stop offset="1" stop-color="white"/>
</radialGradient>
</defs>
</svg>
