<svg width="98" height="304" viewBox="0 0 98 304" fill="none" xmlns="http://www.w3.org/2000/svg">
<g clip-path="url(#clip0_147_1181)">
<path d="M-1.59805e-07 139.056C-7.19842e-08 141.065 1.64374 142.712 3.64911 142.712C5.65448 142.712 7.29822 141.065 7.29822 139.056C7.29822 137.047 5.65448 135.4 3.64911 135.4C1.64374 135.4 -2.47625e-07 137.047 -1.59805e-07 139.056Z" fill="#B1EDC7"/>
<path d="M-1.59805e-07 111.983C-7.19842e-08 113.992 1.64374 115.639 3.64911 115.639C5.65448 115.639 7.29822 113.992 7.29822 111.983C7.29822 109.974 5.65448 108.327 3.64911 108.327C1.64374 108.327 -2.47625e-07 109.974 -1.59805e-07 111.983Z" fill="#B1EDC7"/>
<path d="M-1.59804e-07 84.9093C-7.19831e-08 86.9184 1.64374 88.5652 3.64911 88.5652C5.65448 88.5652 7.29822 86.9184 7.29822 84.9093C7.29822 82.9002 5.65448 81.2534 3.64911 81.2534C1.64374 81.2534 -2.47624e-07 82.9002 -1.59804e-07 84.9093Z" fill="#B1EDC7"/>
<path d="M-1.59805e-07 57.8358C-7.19842e-08 59.8449 1.64374 61.4917 3.64911 61.4917C5.65448 61.4917 7.29822 59.8449 7.29822 57.8358C7.29822 55.8267 5.65448 54.1799 3.64911 54.1799C1.64374 54.1799 -2.47625e-07 55.8267 -1.59805e-07 57.8358Z" fill="#B1EDC7"/>
<path d="M-1.59805e-07 30.7623C-7.19842e-08 32.7714 1.64374 34.4182 3.64911 34.4182C5.65448 34.4182 7.29822 32.7714 7.29822 30.7623C7.29822 28.7532 5.65448 27.1064 3.64911 27.1064C1.64374 27.1064 -2.47625e-07 28.7532 -1.59805e-07 30.7623Z" fill="#B1EDC7"/>
<path d="M7.29822 3.65586C7.29822 1.64676 5.65448 -4.60235e-05 3.64911 -4.59359e-05C1.64374 -4.58482e-05 -2.47625e-07 1.64676 -1.59805e-07 3.65586C-7.19842e-08 5.66496 1.64374 7.31177 3.64911 7.31177C5.65448 7.31177 7.29822 5.66496 7.29822 3.65586Z" fill="#B1EDC7"/>
<path d="M22.6836 139.056C22.6836 141.065 24.3273 142.712 26.3327 142.712C28.3381 142.712 29.9818 141.065 29.9818 139.056C29.9818 137.047 28.3381 135.4 26.3327 135.4C24.3273 135.4 22.6836 137.047 22.6836 139.056Z" fill="#B1EDC7"/>
<path d="M22.6836 111.983C22.6836 113.992 24.3273 115.639 26.3327 115.639C28.3381 115.639 29.9818 113.992 29.9818 111.983C29.9818 109.974 28.3381 108.327 26.3327 108.327C24.3273 108.327 22.6836 109.974 22.6836 111.983Z" fill="#B1EDC7"/>
<path d="M22.6836 84.9093C22.6836 86.9184 24.3273 88.5652 26.3327 88.5652C28.3381 88.5652 29.9818 86.9184 29.9818 84.9093C29.9818 82.9002 28.3381 81.2534 26.3327 81.2534C24.3273 81.2534 22.6836 82.9002 22.6836 84.9093Z" fill="#B1EDC7"/>
<path d="M22.6836 57.8358C22.6836 59.8449 24.3273 61.4917 26.3327 61.4917C28.3381 61.4917 29.9818 59.8449 29.9818 57.8358C29.9818 55.8267 28.3381 54.1799 26.3327 54.1799C24.3273 54.1799 22.6836 55.8267 22.6836 57.8358Z" fill="#B1EDC7"/>
<path d="M22.6836 30.7623C22.6836 32.7714 24.3273 34.4182 26.3327 34.4182C28.3381 34.4182 29.9818 32.7714 29.9818 30.7623C29.9818 28.7532 28.3381 27.1064 26.3327 27.1064C24.3273 27.1064 22.6836 28.7532 22.6836 30.7623Z" fill="#B1EDC7"/>
<path d="M22.6836 3.65586C22.6836 5.66496 24.3273 7.31177 26.3327 7.31177C28.3381 7.31177 29.9818 5.66496 29.9818 3.65586C29.9818 1.64676 28.3381 -4.60235e-05 26.3327 -4.59359e-05C24.3273 -4.58482e-05 22.6836 1.64676 22.6836 3.65586Z" fill="#B1EDC7"/>
<path d="M45.3674 139.056C45.3674 141.065 47.0112 142.712 49.0165 142.712C51.0219 142.712 52.6657 141.065 52.6657 139.056C52.6657 137.047 51.0219 135.4 49.0165 135.4C47.0112 135.4 45.3674 137.047 45.3674 139.056Z" fill="#B1EDC7"/>
<path d="M52.6657 111.983C52.6657 109.964 51.0319 108.327 49.0165 108.327C47.0012 108.327 45.3674 109.964 45.3674 111.983C45.3674 114.002 47.0012 115.639 49.0165 115.639C51.0319 115.639 52.6657 114.002 52.6657 111.983Z" fill="#B1EDC7"/>
<path d="M52.6657 84.9093C52.6657 82.8902 51.0319 81.2534 49.0165 81.2534C47.0012 81.2534 45.3674 82.8902 45.3674 84.9093C45.3674 86.9284 47.0012 88.5652 49.0165 88.5652C51.0319 88.5652 52.6657 86.9284 52.6657 84.9093Z" fill="#B1EDC7"/>
<path d="M52.6657 57.8358C52.6657 55.8167 51.0319 54.1799 49.0165 54.1799C47.0012 54.1799 45.3674 55.8167 45.3674 57.8358C45.3674 59.8549 47.0012 61.4917 49.0165 61.4917C51.0319 61.4917 52.6657 59.8549 52.6657 57.8358Z" fill="#B1EDC7"/>
<path d="M52.6657 30.7623C52.6657 28.7432 51.0319 27.1064 49.0165 27.1064C47.0012 27.1064 45.3674 28.7432 45.3674 30.7623C45.3674 32.7814 47.0012 34.4182 49.0165 34.4182C51.0319 34.4182 52.6657 32.7814 52.6657 30.7623Z" fill="#B1EDC7"/>
<path d="M52.6657 3.65586C52.6657 1.63676 51.0319 -4.6024e-05 49.0165 -4.59359e-05C47.0012 -4.58478e-05 45.3674 1.63676 45.3674 3.65586C45.3674 5.67496 47.0012 7.31177 49.0165 7.31177C51.0319 7.31177 52.6657 5.67496 52.6657 3.65586Z" fill="#B1EDC7"/>
<path d="M68.051 139.056C68.051 141.065 69.6948 142.712 71.7001 142.712C73.7055 142.712 75.3492 141.065 75.3492 139.056C75.3492 137.047 73.7055 135.4 71.7001 135.4C69.6948 135.4 68.051 137.047 68.051 139.056Z" fill="#B1EDC7"/>
<path d="M75.3492 111.983C75.3492 109.964 73.7155 108.327 71.7001 108.327C69.6848 108.327 68.051 109.964 68.051 111.983C68.051 114.002 69.6848 115.639 71.7001 115.639C73.7155 115.639 75.3492 114.002 75.3492 111.983Z" fill="#B1EDC7"/>
<path d="M75.3492 84.9093C75.3492 82.8902 73.7155 81.2534 71.7001 81.2534C69.6848 81.2534 68.051 82.8902 68.051 84.9093C68.051 86.9284 69.6848 88.5652 71.7001 88.5652C73.7155 88.5652 75.3492 86.9284 75.3492 84.9093Z" fill="#B1EDC7"/>
<path d="M75.3492 57.8358C75.3492 55.8167 73.7155 54.1799 71.7001 54.1799C69.6848 54.1799 68.051 55.8167 68.051 57.8358C68.051 59.8549 69.6848 61.4917 71.7001 61.4917C73.7155 61.4917 75.3492 59.8549 75.3492 57.8358Z" fill="#B1EDC7"/>
<path d="M75.3492 30.7623C75.3492 28.7432 73.7155 27.1064 71.7001 27.1064C69.6848 27.1064 68.051 28.7432 68.051 30.7623C68.051 32.7814 69.6848 34.4182 71.7001 34.4182C73.7155 34.4182 75.3492 32.7814 75.3492 30.7623Z" fill="#B1EDC7"/>
<path d="M75.3492 3.65586C75.3492 1.63676 73.7155 -4.6024e-05 71.7001 -4.59359e-05C69.6848 -4.58478e-05 68.051 1.63676 68.051 3.65586C68.051 5.67496 69.6848 7.31177 71.7001 7.31177C73.7155 7.31177 75.3492 5.67496 75.3492 3.65586Z" fill="#B1EDC7"/>
<path d="M90.7017 139.056C90.7017 141.065 92.3454 142.712 94.3508 142.712C96.3561 142.712 97.9999 141.065 97.9999 139.056C97.9999 137.047 96.3561 135.4 94.3508 135.4C92.3454 135.4 90.7017 137.047 90.7017 139.056Z" fill="#B1EDC7"/>
<path d="M97.9999 111.983C97.9999 109.964 96.3661 108.327 94.3508 108.327C92.3354 108.327 90.7017 109.964 90.7017 111.983C90.7017 114.002 92.3354 115.639 94.3508 115.639C96.3661 115.639 97.9999 114.002 97.9999 111.983Z" fill="#B1EDC7"/>
<path d="M97.9999 84.9093C97.9999 82.8902 96.3661 81.2534 94.3508 81.2534C92.3354 81.2534 90.7017 82.8902 90.7017 84.9093C90.7017 86.9284 92.3354 88.5652 94.3508 88.5652C96.3661 88.5652 97.9999 86.9284 97.9999 84.9093Z" fill="#B1EDC7"/>
<path d="M97.9999 57.8358C97.9999 55.8167 96.3661 54.1799 94.3508 54.1799C92.3354 54.1799 90.7017 55.8167 90.7017 57.8358C90.7017 59.8549 92.3354 61.4917 94.3508 61.4917C96.3661 61.4917 97.9999 59.8549 97.9999 57.8358Z" fill="#B1EDC7"/>
<path d="M97.9999 30.7623C97.9999 28.7432 96.3661 27.1064 94.3508 27.1064C92.3354 27.1064 90.7017 28.7432 90.7017 30.7623C90.7017 32.7814 92.3354 34.4182 94.3508 34.4182C96.3661 34.4182 97.9999 32.7814 97.9999 30.7623Z" fill="#B1EDC7"/>
<path d="M97.9999 3.65586C97.9999 1.63676 96.3661 -4.6024e-05 94.3508 -4.59359e-05C92.3354 -4.58478e-05 90.7017 1.63676 90.7017 3.65586C90.7017 5.67496 92.3354 7.31177 94.3508 7.31177C96.3661 7.31177 97.9999 5.67496 97.9999 3.65586Z" fill="#B1EDC7"/>
<path d="M-1.59805e-07 300.344C-7.19841e-08 302.353 1.64374 304 3.64911 304C5.65448 304 7.29822 302.353 7.29822 300.344C7.29822 298.335 5.65448 296.688 3.64911 296.688C1.64374 296.688 -2.47625e-07 298.335 -1.59805e-07 300.344Z" fill="#B1EDC7"/>
<path d="M-1.59805e-07 273.271C-7.1984e-08 275.28 1.64374 276.927 3.64911 276.927C5.65448 276.927 7.29822 275.28 7.29822 273.271C7.29822 271.262 5.65448 269.615 3.64911 269.615C1.64374 269.615 -2.47625e-07 271.262 -1.59805e-07 273.271Z" fill="#B1EDC7"/>
<path d="M-1.59804e-07 246.197C-7.19839e-08 248.206 1.64374 249.853 3.64911 249.853C5.65448 249.853 7.29822 248.206 7.29822 246.197C7.29822 244.188 5.65448 242.541 3.64911 242.541C1.64374 242.541 -2.47625e-07 244.188 -1.59804e-07 246.197Z" fill="#B1EDC7"/>
<path d="M-1.59805e-07 219.091C-7.19842e-08 221.1 1.64374 222.747 3.64911 222.747C5.65448 222.747 7.29822 221.1 7.29822 219.091C7.29822 217.082 5.65448 215.435 3.64911 215.435C1.64374 215.435 -2.47625e-07 217.082 -1.59805e-07 219.091Z" fill="#B1EDC7"/>
<path d="M-1.59805e-07 192.017C-7.19842e-08 194.027 1.64374 195.673 3.64911 195.673C5.65448 195.673 7.29822 194.027 7.29822 192.017C7.29822 190.008 5.65448 188.362 3.64911 188.362C1.64374 188.362 -2.47625e-07 190.008 -1.59805e-07 192.017Z" fill="#B1EDC7"/>
<path d="M-1.59805e-07 164.944C-7.19842e-08 166.953 1.64374 168.6 3.64911 168.6C5.65448 168.6 7.29822 166.953 7.29822 164.944C7.29822 162.935 5.65448 161.288 3.64911 161.288C1.64374 161.288 -2.47625e-07 162.935 -1.59805e-07 164.944Z" fill="#B1EDC7"/>
<path d="M22.6836 300.344C22.6836 302.353 24.3273 304 26.3327 304C28.3381 304 29.9818 302.353 29.9818 300.344C29.9818 298.335 28.3381 296.688 26.3327 296.688C24.3273 296.688 22.6836 298.335 22.6836 300.344Z" fill="#B1EDC7"/>
<path d="M22.6836 273.271C22.6836 275.28 24.3273 276.927 26.3327 276.927C28.3381 276.927 29.9818 275.28 29.9818 273.271C29.9818 271.262 28.3381 269.615 26.3327 269.615C24.3273 269.615 22.6836 271.262 22.6836 273.271Z" fill="#B1EDC7"/>
<path d="M22.6836 246.197C22.6836 248.206 24.3273 249.853 26.3327 249.853C28.3381 249.853 29.9818 248.206 29.9818 246.197C29.9818 244.188 28.3381 242.541 26.3327 242.541C24.3273 242.541 22.6836 244.188 22.6836 246.197Z" fill="#B1EDC7"/>
<path d="M22.6836 219.091C22.6836 221.1 24.3273 222.747 26.3327 222.747C28.3381 222.747 29.9818 221.1 29.9818 219.091C29.9818 217.082 28.3381 215.435 26.3327 215.435C24.3273 215.435 22.6836 217.082 22.6836 219.091Z" fill="#B1EDC7"/>
<path d="M22.6836 192.017C22.6836 194.027 24.3273 195.673 26.3327 195.673C28.3381 195.673 29.9818 194.027 29.9818 192.017C29.9818 190.008 28.3381 188.362 26.3327 188.362C24.3273 188.362 22.6836 190.008 22.6836 192.017Z" fill="#B1EDC7"/>
<path d="M22.6836 164.944C22.6836 166.953 24.3273 168.6 26.3327 168.6C28.3381 168.6 29.9818 166.953 29.9818 164.944C29.9818 162.935 28.3381 161.288 26.3327 161.288C24.3273 161.288 22.6836 162.935 22.6836 164.944Z" fill="#B1EDC7"/>
<path d="M45.3674 300.344C45.3674 302.353 47.0112 304 49.0165 304C51.0219 304 52.6657 302.353 52.6657 300.344C52.6657 298.335 51.0219 296.688 49.0165 296.688C47.0112 296.688 45.3674 298.335 45.3674 300.344Z" fill="#B1EDC7"/>
<path d="M52.6657 273.271C52.6657 271.252 51.0319 269.615 49.0165 269.615C47.0012 269.615 45.3674 271.252 45.3674 273.271C45.3674 275.29 47.0012 276.927 49.0165 276.927C51.0319 276.927 52.6657 275.29 52.6657 273.271Z" fill="#B1EDC7"/>
<path d="M45.3674 246.197C45.3674 248.206 47.0112 249.853 49.0165 249.853C51.0219 249.853 52.6657 248.206 52.6657 246.197C52.6657 244.188 51.0219 242.541 49.0165 242.541C47.0112 242.541 45.3674 244.188 45.3674 246.197Z" fill="#B1EDC7"/>
<path d="M45.3674 219.091C45.3674 221.1 47.0112 222.747 49.0165 222.747C51.0219 222.747 52.6657 221.1 52.6657 219.091C52.6657 217.082 51.0219 215.435 49.0165 215.435C47.0112 215.435 45.3674 217.082 45.3674 219.091Z" fill="#B1EDC7"/>
<path d="M45.3674 192.017C45.3674 194.027 47.0112 195.673 49.0165 195.673C51.0219 195.673 52.6657 194.027 52.6657 192.017C52.6657 190.008 51.0219 188.362 49.0165 188.362C47.0112 188.362 45.3674 190.008 45.3674 192.017Z" fill="#B1EDC7"/>
<path d="M45.3674 164.944C45.3674 166.953 47.0112 168.6 49.0165 168.6C51.0219 168.6 52.6657 166.953 52.6657 164.944C52.6657 162.935 51.0219 161.288 49.0165 161.288C47.0112 161.288 45.3674 162.935 45.3674 164.944Z" fill="#B1EDC7"/>
<path d="M68.051 300.344C68.051 302.353 69.6948 304 71.7001 304C73.7055 304 75.3492 302.353 75.3492 300.344C75.3492 298.335 73.7055 296.688 71.7001 296.688C69.6948 296.688 68.051 298.335 68.051 300.344Z" fill="#B1EDC7"/>
<path d="M75.3492 273.271C75.3492 271.252 73.7155 269.615 71.7001 269.615C69.6848 269.615 68.051 271.252 68.051 273.271C68.051 275.29 69.6848 276.927 71.7001 276.927C73.7155 276.927 75.3492 275.29 75.3492 273.271Z" fill="#B1EDC7"/>
<path d="M68.051 246.197C68.051 248.206 69.6948 249.853 71.7001 249.853C73.7055 249.853 75.3492 248.206 75.3492 246.197C75.3492 244.188 73.7055 242.541 71.7001 242.541C69.6948 242.541 68.051 244.188 68.051 246.197Z" fill="#B1EDC7"/>
<path d="M68.051 219.091C68.051 221.1 69.6948 222.747 71.7001 222.747C73.7055 222.747 75.3492 221.1 75.3492 219.091C75.3492 217.082 73.7055 215.435 71.7001 215.435C69.6948 215.435 68.051 217.082 68.051 219.091Z" fill="#B1EDC7"/>
<path d="M68.051 192.017C68.051 194.027 69.6948 195.673 71.7001 195.673C73.7055 195.673 75.3492 194.027 75.3492 192.017C75.3492 190.008 73.7055 188.362 71.7001 188.362C69.6948 188.362 68.051 190.008 68.051 192.017Z" fill="#B1EDC7"/>
<path d="M68.051 164.944C68.051 166.953 69.6948 168.6 71.7001 168.6C73.7055 168.6 75.3492 166.953 75.3492 164.944C75.3492 162.935 73.7055 161.288 71.7001 161.288C69.6948 161.288 68.051 162.935 68.051 164.944Z" fill="#B1EDC7"/>
<path d="M90.7017 300.344C90.7017 302.353 92.3454 304 94.3508 304C96.3561 304 97.9999 302.353 97.9999 300.344C97.9999 298.335 96.3561 296.688 94.3508 296.688C92.3454 296.688 90.7017 298.335 90.7017 300.344Z" fill="#B1EDC7"/>
<path d="M97.9999 273.271C97.9999 271.252 96.3661 269.615 94.3508 269.615C92.3354 269.615 90.7017 271.252 90.7017 273.271C90.7017 275.29 92.3354 276.927 94.3508 276.927C96.3661 276.927 97.9999 275.29 97.9999 273.271Z" fill="#B1EDC7"/>
<path d="M90.7017 246.197C90.7017 248.206 92.3454 249.853 94.3508 249.853C96.3561 249.853 97.9999 248.206 97.9999 246.197C97.9999 244.188 96.3561 242.541 94.3508 242.541C92.3454 242.541 90.7017 244.188 90.7017 246.197Z" fill="#B1EDC7"/>
<path d="M90.7017 219.091C90.7017 221.1 92.3454 222.747 94.3508 222.747C96.3561 222.747 97.9999 221.1 97.9999 219.091C97.9999 217.082 96.3561 215.435 94.3508 215.435C92.3454 215.435 90.7017 217.082 90.7017 219.091Z" fill="#B1EDC7"/>
<path d="M90.7017 192.017C90.7017 194.027 92.3454 195.673 94.3508 195.673C96.3561 195.673 97.9999 194.027 97.9999 192.017C97.9999 190.008 96.3561 188.362 94.3508 188.362C92.3454 188.362 90.7017 190.008 90.7017 192.017Z" fill="#B1EDC7"/>
<path d="M90.7017 164.944C90.7017 166.953 92.3454 168.6 94.3508 168.6C96.3561 168.6 97.9999 166.953 97.9999 164.944C97.9999 162.935 96.3561 161.288 94.3508 161.288C92.3454 161.288 90.7017 162.935 90.7017 164.944Z" fill="#B1EDC7"/>
</g>
<defs>
<clipPath id="clip0_147_1181">
<rect width="304" height="98" fill="white" transform="translate(0 304) rotate(-90)"/>
</clipPath>
</defs>
</svg>
