<svg width="304" height="98" viewBox="0 0 304 98" fill="none" xmlns="http://www.w3.org/2000/svg">
<g clip-path="url(#clip0_147_1118)">
<path d="M164.944 0C162.935 0 161.288 1.64374 161.288 3.64911C161.288 5.65448 162.935 7.29822 164.944 7.29822C166.953 7.29822 168.6 5.65448 168.6 3.64911C168.6 1.64374 166.953 0 164.944 0Z" fill="#B1EDC7"/>
<path d="M192.017 0C190.008 0 188.361 1.64374 188.361 3.64911C188.361 5.65448 190.008 7.29822 192.017 7.29822C194.026 7.29822 195.673 5.65448 195.673 3.64911C195.673 1.64374 194.026 0 192.017 0Z" fill="#B1EDC7"/>
<path d="M219.091 0C217.082 0 215.435 1.64374 215.435 3.64911C215.435 5.65448 217.082 7.29822 219.091 7.29822C221.1 7.29822 222.747 5.65448 222.747 3.64911C222.747 1.64374 221.1 0 219.091 0Z" fill="#B1EDC7"/>
<path d="M246.164 0C244.155 0 242.508 1.64374 242.508 3.64911C242.508 5.65448 244.155 7.29822 246.164 7.29822C248.173 7.29822 249.82 5.65448 249.82 3.64911C249.82 1.64374 248.173 0 246.164 0Z" fill="#B1EDC7"/>
<path d="M273.238 0C271.229 0 269.582 1.64374 269.582 3.64911C269.582 5.65448 271.229 7.29822 273.238 7.29822C275.247 7.29822 276.894 5.65448 276.894 3.64911C276.894 1.64374 275.247 0 273.238 0Z" fill="#B1EDC7"/>
<path d="M300.344 7.29822C302.353 7.29822 304 5.65448 304 3.64911C304 1.64374 302.353 0 300.344 0C298.335 0 296.688 1.64374 296.688 3.64911C296.688 5.65448 298.335 7.29822 300.344 7.29822Z" fill="#B1EDC7"/>
<path d="M164.944 22.6836C162.935 22.6836 161.288 24.3273 161.288 26.3327C161.288 28.3381 162.935 29.9818 164.944 29.9818C166.953 29.9818 168.6 28.3381 168.6 26.3327C168.6 24.3273 166.953 22.6836 164.944 22.6836Z" fill="#B1EDC7"/>
<path d="M192.017 22.6836C190.008 22.6836 188.361 24.3273 188.361 26.3327C188.361 28.3381 190.008 29.9818 192.017 29.9818C194.026 29.9818 195.673 28.3381 195.673 26.3327C195.673 24.3273 194.026 22.6836 192.017 22.6836Z" fill="#B1EDC7"/>
<path d="M219.091 22.6836C217.082 22.6836 215.435 24.3273 215.435 26.3327C215.435 28.3381 217.082 29.9818 219.091 29.9818C221.1 29.9818 222.747 28.3381 222.747 26.3327C222.747 24.3273 221.1 22.6836 219.091 22.6836Z" fill="#B1EDC7"/>
<path d="M246.164 22.6836C244.155 22.6836 242.508 24.3273 242.508 26.3327C242.508 28.3381 244.155 29.9818 246.164 29.9818C248.173 29.9818 249.82 28.3381 249.82 26.3327C249.82 24.3273 248.173 22.6836 246.164 22.6836Z" fill="#B1EDC7"/>
<path d="M273.238 22.6836C271.229 22.6836 269.582 24.3273 269.582 26.3327C269.582 28.3381 271.229 29.9818 273.238 29.9818C275.247 29.9818 276.894 28.3381 276.894 26.3327C276.894 24.3273 275.247 22.6836 273.238 22.6836Z" fill="#B1EDC7"/>
<path d="M300.344 22.6836C298.335 22.6836 296.688 24.3273 296.688 26.3327C296.688 28.3381 298.335 29.9818 300.344 29.9818C302.353 29.9818 304 28.3381 304 26.3327C304 24.3273 302.353 22.6836 300.344 22.6836Z" fill="#B1EDC7"/>
<path d="M164.944 45.3674C162.935 45.3674 161.288 47.0112 161.288 49.0165C161.288 51.0219 162.935 52.6657 164.944 52.6657C166.953 52.6657 168.6 51.0219 168.6 49.0165C168.6 47.0112 166.953 45.3674 164.944 45.3674Z" fill="#B1EDC7"/>
<path d="M192.017 52.6657C194.036 52.6657 195.673 51.0319 195.673 49.0165C195.673 47.0012 194.036 45.3674 192.017 45.3674C189.998 45.3674 188.361 47.0012 188.361 49.0165C188.361 51.0319 189.998 52.6657 192.017 52.6657Z" fill="#B1EDC7"/>
<path d="M219.091 52.6657C221.11 52.6657 222.747 51.0319 222.747 49.0165C222.747 47.0012 221.11 45.3674 219.091 45.3674C217.072 45.3674 215.435 47.0012 215.435 49.0165C215.435 51.0319 217.072 52.6657 219.091 52.6657Z" fill="#B1EDC7"/>
<path d="M246.164 52.6657C248.183 52.6657 249.82 51.0319 249.82 49.0165C249.82 47.0012 248.183 45.3674 246.164 45.3674C244.145 45.3674 242.508 47.0012 242.508 49.0165C242.508 51.0319 244.145 52.6657 246.164 52.6657Z" fill="#B1EDC7"/>
<path d="M273.238 52.6657C275.257 52.6657 276.894 51.0319 276.894 49.0165C276.894 47.0012 275.257 45.3674 273.238 45.3674C271.219 45.3674 269.582 47.0012 269.582 49.0165C269.582 51.0319 271.219 52.6657 273.238 52.6657Z" fill="#B1EDC7"/>
<path d="M300.344 52.6657C302.363 52.6657 304 51.0319 304 49.0165C304 47.0012 302.363 45.3674 300.344 45.3674C298.325 45.3674 296.688 47.0012 296.688 49.0165C296.688 51.0319 298.325 52.6657 300.344 52.6657Z" fill="#B1EDC7"/>
<path d="M164.944 68.051C162.935 68.051 161.288 69.6948 161.288 71.7001C161.288 73.7055 162.935 75.3492 164.944 75.3492C166.953 75.3492 168.6 73.7055 168.6 71.7001C168.6 69.6948 166.953 68.051 164.944 68.051Z" fill="#B1EDC7"/>
<path d="M192.017 75.3492C194.036 75.3492 195.673 73.7155 195.673 71.7001C195.673 69.6848 194.036 68.051 192.017 68.051C189.998 68.051 188.361 69.6848 188.361 71.7001C188.361 73.7155 189.998 75.3492 192.017 75.3492Z" fill="#B1EDC7"/>
<path d="M219.091 75.3492C221.11 75.3492 222.747 73.7155 222.747 71.7001C222.747 69.6848 221.11 68.051 219.091 68.051C217.072 68.051 215.435 69.6848 215.435 71.7001C215.435 73.7155 217.072 75.3492 219.091 75.3492Z" fill="#B1EDC7"/>
<path d="M246.164 75.3492C248.183 75.3492 249.82 73.7155 249.82 71.7001C249.82 69.6848 248.183 68.051 246.164 68.051C244.145 68.051 242.508 69.6848 242.508 71.7001C242.508 73.7155 244.145 75.3492 246.164 75.3492Z" fill="#B1EDC7"/>
<path d="M273.238 75.3492C275.257 75.3492 276.894 73.7155 276.894 71.7001C276.894 69.6848 275.257 68.051 273.238 68.051C271.219 68.051 269.582 69.6848 269.582 71.7001C269.582 73.7155 271.219 75.3492 273.238 75.3492Z" fill="#B1EDC7"/>
<path d="M300.344 75.3492C302.363 75.3492 304 73.7155 304 71.7001C304 69.6848 302.363 68.051 300.344 68.051C298.325 68.051 296.688 69.6848 296.688 71.7001C296.688 73.7155 298.325 75.3492 300.344 75.3492Z" fill="#B1EDC7"/>
<path d="M164.944 90.7017C162.935 90.7017 161.288 92.3454 161.288 94.3508C161.288 96.3561 162.935 97.9999 164.944 97.9999C166.953 97.9999 168.6 96.3561 168.6 94.3508C168.6 92.3454 166.953 90.7017 164.944 90.7017Z" fill="#B1EDC7"/>
<path d="M192.017 97.9999C194.036 97.9999 195.673 96.3661 195.673 94.3508C195.673 92.3354 194.036 90.7017 192.017 90.7017C189.998 90.7017 188.361 92.3354 188.361 94.3508C188.361 96.3661 189.998 97.9999 192.017 97.9999Z" fill="#B1EDC7"/>
<path d="M219.091 97.9999C221.11 97.9999 222.747 96.3661 222.747 94.3508C222.747 92.3354 221.11 90.7017 219.091 90.7017C217.072 90.7017 215.435 92.3354 215.435 94.3508C215.435 96.3661 217.072 97.9999 219.091 97.9999Z" fill="#B1EDC7"/>
<path d="M246.164 97.9999C248.183 97.9999 249.82 96.3661 249.82 94.3508C249.82 92.3354 248.183 90.7017 246.164 90.7017C244.145 90.7017 242.508 92.3354 242.508 94.3508C242.508 96.3661 244.145 97.9999 246.164 97.9999Z" fill="#B1EDC7"/>
<path d="M273.238 97.9999C275.257 97.9999 276.894 96.3661 276.894 94.3508C276.894 92.3354 275.257 90.7017 273.238 90.7017C271.219 90.7017 269.582 92.3354 269.582 94.3508C269.582 96.3661 271.219 97.9999 273.238 97.9999Z" fill="#B1EDC7"/>
<path d="M300.344 97.9999C302.363 97.9999 304 96.3661 304 94.3508C304 92.3354 302.363 90.7017 300.344 90.7017C298.325 90.7017 296.688 92.3354 296.688 94.3508C296.688 96.3661 298.325 97.9999 300.344 97.9999Z" fill="#B1EDC7"/>
<path d="M3.6559 0C1.6468 0 0 1.64374 0 3.64911C0 5.65448 1.6468 7.29822 3.6559 7.29822C5.66501 7.29822 7.31181 5.65448 7.31181 3.64911C7.31181 1.64374 5.66501 0 3.6559 0Z" fill="#B1EDC7"/>
<path d="M30.7294 0C28.7203 0 27.0735 1.64374 27.0735 3.64911C27.0735 5.65448 28.7203 7.29822 30.7294 7.29822C32.7385 7.29822 34.3853 5.65448 34.3853 3.64911C34.3853 1.64374 32.7385 0 30.7294 0Z" fill="#B1EDC7"/>
<path d="M57.8028 0C55.7937 0 54.1469 1.64374 54.1469 3.64911C54.1469 5.65448 55.7937 7.29822 57.8028 7.29822C59.8119 7.29822 61.4587 5.65448 61.4587 3.64911C61.4587 1.64374 59.8119 0 57.8028 0Z" fill="#B1EDC7"/>
<path d="M84.9092 0C82.9001 0 81.2533 1.64374 81.2533 3.64911C81.2533 5.65448 82.9001 7.29822 84.9092 7.29822C86.9183 7.29822 88.5651 5.65448 88.5651 3.64911C88.5651 1.64374 86.9183 0 84.9092 0Z" fill="#B1EDC7"/>
<path d="M111.983 0C109.974 0 108.327 1.64374 108.327 3.64911C108.327 5.65448 109.974 7.29822 111.983 7.29822C113.992 7.29822 115.639 5.65448 115.639 3.64911C115.639 1.64374 113.992 0 111.983 0Z" fill="#B1EDC7"/>
<path d="M139.056 0C137.047 0 135.4 1.64374 135.4 3.64911C135.4 5.65448 137.047 7.29822 139.056 7.29822C141.065 7.29822 142.712 5.65448 142.712 3.64911C142.712 1.64374 141.065 0 139.056 0Z" fill="#B1EDC7"/>
<path d="M3.6559 22.6836C1.6468 22.6836 0 24.3273 0 26.3327C0 28.3381 1.6468 29.9818 3.6559 29.9818C5.66501 29.9818 7.31181 28.3381 7.31181 26.3327C7.31181 24.3273 5.66501 22.6836 3.6559 22.6836Z" fill="#B1EDC7"/>
<path d="M30.7294 22.6836C28.7203 22.6836 27.0735 24.3273 27.0735 26.3327C27.0735 28.3381 28.7203 29.9818 30.7294 29.9818C32.7385 29.9818 34.3853 28.3381 34.3853 26.3327C34.3853 24.3273 32.7385 22.6836 30.7294 22.6836Z" fill="#B1EDC7"/>
<path d="M57.8028 22.6836C55.7937 22.6836 54.1469 24.3273 54.1469 26.3327C54.1469 28.3381 55.7937 29.9818 57.8028 29.9818C59.8119 29.9818 61.4587 28.3381 61.4587 26.3327C61.4587 24.3273 59.8119 22.6836 57.8028 22.6836Z" fill="#B1EDC7"/>
<path d="M84.9092 22.6836C82.9001 22.6836 81.2533 24.3273 81.2533 26.3327C81.2533 28.3381 82.9001 29.9818 84.9092 29.9818C86.9183 29.9818 88.5651 28.3381 88.5651 26.3327C88.5651 24.3273 86.9183 22.6836 84.9092 22.6836Z" fill="#B1EDC7"/>
<path d="M111.983 22.6836C109.974 22.6836 108.327 24.3273 108.327 26.3327C108.327 28.3381 109.974 29.9818 111.983 29.9818C113.992 29.9818 115.639 28.3381 115.639 26.3327C115.639 24.3273 113.992 22.6836 111.983 22.6836Z" fill="#B1EDC7"/>
<path d="M139.056 22.6836C137.047 22.6836 135.4 24.3273 135.4 26.3327C135.4 28.3381 137.047 29.9818 139.056 29.9818C141.065 29.9818 142.712 28.3381 142.712 26.3327C142.712 24.3273 141.065 22.6836 139.056 22.6836Z" fill="#B1EDC7"/>
<path d="M3.6559 45.3674C1.6468 45.3674 0 47.0112 0 49.0165C0 51.0219 1.6468 52.6657 3.6559 52.6657C5.66501 52.6657 7.31181 51.0219 7.31181 49.0165C7.31181 47.0112 5.66501 45.3674 3.6559 45.3674Z" fill="#B1EDC7"/>
<path d="M30.7294 52.6657C32.7485 52.6657 34.3853 51.0319 34.3853 49.0165C34.3853 47.0012 32.7485 45.3674 30.7294 45.3674C28.7103 45.3674 27.0735 47.0012 27.0735 49.0165C27.0735 51.0319 28.7103 52.6657 30.7294 52.6657Z" fill="#B1EDC7"/>
<path d="M57.8028 45.3674C55.7937 45.3674 54.1469 47.0112 54.1469 49.0165C54.1469 51.0219 55.7937 52.6657 57.8028 52.6657C59.8119 52.6657 61.4587 51.0219 61.4587 49.0165C61.4587 47.0112 59.8119 45.3674 57.8028 45.3674Z" fill="#B1EDC7"/>
<path d="M84.9092 45.3674C82.9001 45.3674 81.2533 47.0112 81.2533 49.0165C81.2533 51.0219 82.9001 52.6657 84.9092 52.6657C86.9183 52.6657 88.5651 51.0219 88.5651 49.0165C88.5651 47.0112 86.9183 45.3674 84.9092 45.3674Z" fill="#B1EDC7"/>
<path d="M111.983 45.3674C109.974 45.3674 108.327 47.0112 108.327 49.0165C108.327 51.0219 109.974 52.6657 111.983 52.6657C113.992 52.6657 115.639 51.0219 115.639 49.0165C115.639 47.0112 113.992 45.3674 111.983 45.3674Z" fill="#B1EDC7"/>
<path d="M139.056 45.3674C137.047 45.3674 135.4 47.0112 135.4 49.0165C135.4 51.0219 137.047 52.6657 139.056 52.6657C141.065 52.6657 142.712 51.0219 142.712 49.0165C142.712 47.0112 141.065 45.3674 139.056 45.3674Z" fill="#B1EDC7"/>
<path d="M3.6559 68.051C1.6468 68.051 0 69.6948 0 71.7001C0 73.7055 1.6468 75.3492 3.6559 75.3492C5.66501 75.3492 7.31181 73.7055 7.31181 71.7001C7.31181 69.6948 5.66501 68.051 3.6559 68.051Z" fill="#B1EDC7"/>
<path d="M30.7294 75.3492C32.7485 75.3492 34.3853 73.7155 34.3853 71.7001C34.3853 69.6848 32.7485 68.051 30.7294 68.051C28.7103 68.051 27.0735 69.6848 27.0735 71.7001C27.0735 73.7155 28.7103 75.3492 30.7294 75.3492Z" fill="#B1EDC7"/>
<path d="M57.8028 68.051C55.7937 68.051 54.1469 69.6948 54.1469 71.7001C54.1469 73.7055 55.7937 75.3492 57.8028 75.3492C59.8119 75.3492 61.4587 73.7055 61.4587 71.7001C61.4587 69.6948 59.8119 68.051 57.8028 68.051Z" fill="#B1EDC7"/>
<path d="M84.9092 68.051C82.9001 68.051 81.2533 69.6948 81.2533 71.7001C81.2533 73.7055 82.9001 75.3492 84.9092 75.3492C86.9183 75.3492 88.5651 73.7055 88.5651 71.7001C88.5651 69.6948 86.9183 68.051 84.9092 68.051Z" fill="#B1EDC7"/>
<path d="M111.983 68.051C109.974 68.051 108.327 69.6948 108.327 71.7001C108.327 73.7055 109.974 75.3492 111.983 75.3492C113.992 75.3492 115.639 73.7055 115.639 71.7001C115.639 69.6948 113.992 68.051 111.983 68.051Z" fill="#B1EDC7"/>
<path d="M139.056 68.051C137.047 68.051 135.4 69.6948 135.4 71.7001C135.4 73.7055 137.047 75.3492 139.056 75.3492C141.065 75.3492 142.712 73.7055 142.712 71.7001C142.712 69.6948 141.065 68.051 139.056 68.051Z" fill="#B1EDC7"/>
<path d="M3.6559 90.7017C1.6468 90.7017 0 92.3454 0 94.3508C0 96.3561 1.6468 97.9999 3.6559 97.9999C5.66501 97.9999 7.31181 96.3561 7.31181 94.3508C7.31181 92.3454 5.66501 90.7017 3.6559 90.7017Z" fill="#B1EDC7"/>
<path d="M30.7294 97.9999C32.7485 97.9999 34.3853 96.3661 34.3853 94.3508C34.3853 92.3354 32.7485 90.7017 30.7294 90.7017C28.7103 90.7017 27.0735 92.3354 27.0735 94.3508C27.0735 96.3661 28.7103 97.9999 30.7294 97.9999Z" fill="#B1EDC7"/>
<path d="M57.8028 90.7017C55.7937 90.7017 54.1469 92.3454 54.1469 94.3508C54.1469 96.3561 55.7937 97.9999 57.8028 97.9999C59.8119 97.9999 61.4587 96.3561 61.4587 94.3508C61.4587 92.3454 59.8119 90.7017 57.8028 90.7017Z" fill="#B1EDC7"/>
<path d="M84.9092 90.7017C82.9001 90.7017 81.2533 92.3454 81.2533 94.3508C81.2533 96.3561 82.9001 97.9999 84.9092 97.9999C86.9183 97.9999 88.5651 96.3561 88.5651 94.3508C88.5651 92.3454 86.9183 90.7017 84.9092 90.7017Z" fill="#B1EDC7"/>
<path d="M111.983 90.7017C109.974 90.7017 108.327 92.3454 108.327 94.3508C108.327 96.3561 109.974 97.9999 111.983 97.9999C113.992 97.9999 115.639 96.3561 115.639 94.3508C115.639 92.3454 113.992 90.7017 111.983 90.7017Z" fill="#B1EDC7"/>
<path d="M139.056 90.7017C137.047 90.7017 135.4 92.3454 135.4 94.3508C135.4 96.3561 137.047 97.9999 139.056 97.9999C141.065 97.9999 142.712 96.3561 142.712 94.3508C142.712 92.3454 141.065 90.7017 139.056 90.7017Z" fill="#B1EDC7"/>
</g>
<defs>
<clipPath id="clip0_147_1118">
<rect width="304" height="98" fill="white"/>
</clipPath>
</defs>
</svg>
