<svg width="71" height="71" viewBox="0 0 71 71" fill="none" xmlns="http://www.w3.org/2000/svg">
<path d="M11.3113 23.7908C11.3113 20.951 11.3166 19.0727 11.504 17.6784C11.6818 16.356 11.9812 15.8491 12.2995 15.5308C12.6179 15.2124 13.1248 14.913 14.4472 14.7353C15.8415 14.5478 17.7198 14.5425 20.5596 14.5425H49.9304C52.7702 14.5425 54.6486 14.5478 56.0429 14.7353C57.3653 14.913 57.8722 15.2124 58.1905 15.5308C58.5088 15.8491 58.8082 16.356 58.986 17.6784C59.1735 19.0727 59.1788 20.951 59.1788 23.7908V47.7246H11.3113V23.7908Z" stroke="#219653" stroke-width="5"/>
<path d="M10.7693 47.7246C8.30722 47.7246 6.31128 49.7205 6.31128 52.1827C6.31128 55.7262 9.18387 58.5988 12.7274 58.5988H57.7627C61.3062 58.5988 64.1788 55.7262 64.1788 52.1827C64.1788 49.7205 62.1828 47.7246 59.7207 47.7246H10.7693Z" stroke="#219653" stroke-width="5"/>
</svg>
