<svg width="108" height="108" viewBox="0 0 108 108" fill="none" xmlns="http://www.w3.org/2000/svg">
<g filter="url(#filter0_f_147_1099)">
<circle cx="53.7257" cy="53.9199" r="29.3727" fill="#3CAE67"/>
</g>
<g clip-path="url(#clip0_147_1099)">
<path d="M56.5402 39.8608C56.9753 40.0774 57.4187 40.2773 57.8538 40.5106C58.2808 40.7439 58.7077 40.7772 59.1593 40.6439C59.9556 40.419 60.6863 40.5689 61.3267 41.0855C61.5566 41.2687 61.7455 41.5103 61.9097 41.7603C62.2217 42.2268 62.6322 42.4851 63.174 42.5351C64.266 42.6434 65.1198 43.3932 65.3415 44.4762C65.4647 45.0927 65.7767 45.526 66.335 45.8176C67.312 46.3258 67.7964 47.3672 67.5993 48.4919C67.5008 49.0334 67.6322 49.4916 67.9852 49.9082C68.798 50.8746 68.8883 51.8826 68.2643 52.9824C68.0016 53.4489 67.9606 53.9155 68.1412 54.4237C68.5517 55.5983 68.2808 56.5898 67.3202 57.3729C66.9097 57.7061 66.6716 58.1227 66.6798 58.6642C66.688 59.9889 65.8013 60.922 64.7914 61.1552C64.7093 61.1719 64.6354 61.2136 64.5616 61.2469C64.0443 61.4968 64.0033 61.6134 64.2249 62.1466C64.9967 64.0461 65.7767 65.9457 66.5484 67.8535C66.8358 68.57 66.4827 69.2864 65.7767 69.4197C65.5632 69.4614 65.3251 69.4197 65.1116 69.3614C64.2742 69.1198 63.445 68.8532 62.6157 68.5783C62.3859 68.5033 62.2627 68.5533 62.156 68.7699C61.7537 69.553 61.335 70.3278 60.9327 71.1193C60.6946 71.5775 60.3497 71.8524 59.8325 71.8191C59.3235 71.7858 59.0197 71.4859 58.8308 71.0193C58.0098 69.0032 57.1888 66.987 56.3596 64.9709C56.3103 64.8626 56.2611 64.746 56.179 64.5543C56.0969 64.7293 56.0394 64.8376 55.9983 64.9459C55.1691 66.9704 54.3481 69.0032 53.5189 71.0277C53.2479 71.6942 52.6486 72.0191 52.0739 71.7441C51.8276 71.6275 51.5895 71.3859 51.4499 71.1443C51.0148 70.3778 50.6125 69.5947 50.2184 68.8032C50.0952 68.5533 49.9639 68.5033 49.7093 68.5866C48.8883 68.8532 48.0673 69.1032 47.2463 69.3698C46.7619 69.5281 46.3267 69.4697 45.9819 69.0698C45.6453 68.6866 45.6371 68.2534 45.8259 67.7868C46.6223 65.8457 47.4023 63.9045 48.2069 61.9717C48.3218 61.7051 48.2726 61.5385 48.0509 61.4052C47.8785 61.3052 47.6896 61.1969 47.5008 61.1386C46.3596 60.7637 45.7274 59.9555 45.6864 58.7475C45.6617 58.1394 45.4318 57.6811 44.9639 57.3062C44.1018 56.6231 43.798 55.5484 44.1839 54.507C44.3974 53.9238 44.3399 53.3989 44.0279 52.8741C43.4778 51.9243 43.5763 50.8163 44.2824 49.9998C44.6847 49.5416 44.8407 49.0417 44.734 48.4252C44.5451 47.3088 45.0377 46.3258 46.0312 45.8009C46.5566 45.526 46.8522 45.1177 46.9836 44.5346C47.2299 43.3682 48.0427 42.6517 49.2003 42.5268C49.7093 42.4768 50.1116 42.2352 50.399 41.8019C51.1461 40.6856 52.0082 40.344 53.3136 40.6606C53.7323 40.7605 54.1182 40.6939 54.4959 40.4939C54.9228 40.2607 55.3662 40.0607 55.8095 39.8441C56.0558 39.8441 56.3021 39.8441 56.5484 39.8441L56.5402 39.8608ZM61.0394 62.7965C62.0657 62.8798 62.6075 62.5549 62.9359 61.7551C63.2397 61.0053 63.7734 60.5221 64.5287 60.2638C64.7668 60.1805 65.0049 60.0639 65.2019 59.9139C65.6125 59.589 65.7356 59.1224 65.7438 58.6142C65.7602 57.8144 66.0886 57.1729 66.7044 56.6814C67.3776 56.1399 67.5336 55.5567 67.2463 54.7152C66.9918 53.9738 67.0492 53.2656 67.4269 52.5825C67.8949 51.7493 67.8374 51.2245 67.2299 50.483C66.7537 49.8998 66.5484 49.2333 66.6634 48.4752C66.8111 47.5504 66.573 47.0339 65.752 46.5757C65.0542 46.1841 64.6272 45.5926 64.4712 44.8012C64.3153 44.018 63.8226 43.5681 63.0427 43.4848C62.2381 43.3932 61.6059 43.0183 61.1625 42.3268C60.6863 41.5853 60.1281 41.3604 59.2988 41.5853C58.5189 41.7936 57.821 41.652 57.1724 41.1854C56.4663 40.6772 55.8752 40.6772 55.1691 41.1854C54.5205 41.652 53.8144 41.7936 53.0345 41.5853C52.2217 41.3687 51.6387 41.5937 51.1872 42.3101C50.7356 43.01 50.1034 43.3932 49.2906 43.4848C48.5271 43.5681 48.018 44.018 47.8703 44.7762C47.7061 45.6093 47.2627 46.2175 46.532 46.609C45.8095 47.0006 45.5221 47.5588 45.6535 48.3586C45.8013 49.225 45.5714 49.9581 45.0049 50.608C44.5369 51.1495 44.4548 51.816 44.8161 52.4242C45.2841 53.2156 45.3579 54.0154 45.0377 54.8735C44.7997 55.5067 44.9803 56.1732 45.5139 56.5898C46.2446 57.1563 46.5977 57.8894 46.6059 58.8142C46.6141 59.5223 47.0246 60.0389 47.6896 60.2388C48.5353 60.4971 49.11 61.0219 49.4384 61.8551C49.7175 62.5549 50.3087 62.8964 51.0558 62.8298C51.8358 62.7631 52.509 63.0048 53.0673 63.5713C53.757 64.2711 54.266 64.3627 55.1445 63.9712C55.8259 63.6629 56.5156 63.6629 57.197 63.9712C58.0673 64.3711 58.5845 64.2628 59.266 63.5713C59.8079 63.0297 60.4565 62.7881 61.0394 62.8131V62.7965ZM48.8801 62.7715C48.133 64.6127 47.3941 66.4039 46.6716 68.2034C46.6387 68.2867 46.6469 68.4117 46.688 68.4783C46.7208 68.52 46.8604 68.52 46.9343 68.495C47.7882 68.2367 48.642 67.9701 49.4877 67.7119C50.1937 67.4952 50.6453 67.6869 50.9901 68.3534C51.3924 69.1115 51.7865 69.878 52.1888 70.6361C52.2463 70.7444 52.3612 70.8277 52.4433 70.9194C52.5254 70.8194 52.6322 70.7361 52.6732 70.6194C53.1248 69.5281 53.5681 68.4367 54.0197 67.337C54.3235 66.5872 54.6272 65.8457 54.9392 65.0875C53.5928 65.1792 53.3547 65.0875 52.3448 64.1628C52.0082 63.8545 51.6141 63.7212 51.1625 63.7462C50.9901 63.7546 50.8177 63.7712 50.6453 63.7546C49.931 63.6962 49.3645 63.3547 48.8801 62.7631V62.7715ZM57.4269 65.0625C57.4269 65.1125 57.4269 65.1375 57.4269 65.1542C58.1822 67.0037 58.9376 68.8616 59.6929 70.7111C59.7258 70.7944 59.8325 70.9027 59.8982 70.8944C59.9721 70.8944 60.0624 70.7861 60.1034 70.7027C60.5139 69.9363 60.9162 69.1615 61.3185 68.395C61.6962 67.6785 62.1313 67.4869 62.8867 67.7202C63.6913 67.9701 64.4877 68.2201 65.2923 68.4617C65.4072 68.495 65.5386 68.47 65.6699 68.4783C65.6617 68.3534 65.6781 68.2117 65.6371 68.1034C64.9556 66.4122 64.2578 64.721 63.5681 63.0381C63.5353 62.9631 63.4942 62.8881 63.4532 62.8048C62.6486 63.6213 62.2052 63.7962 61.1051 63.7462C60.6535 63.7296 60.243 63.8712 59.9392 64.2128C59.266 64.9792 58.4368 65.2625 57.4269 65.0625Z" fill="white"/>
<path d="M60.5632 57.5478C60.5632 57.9477 60.4154 58.2143 60.1198 58.381C59.8078 58.5642 59.4876 58.5559 59.1839 58.356C58.3546 57.7978 57.5336 57.2313 56.7044 56.6647C56.1625 56.2898 56.1625 56.2982 55.6124 56.6731C54.8325 57.2063 54.0443 57.7395 53.2643 58.2726C52.8374 58.5642 52.4597 58.5726 52.1231 58.3143C51.7947 58.0727 51.6962 57.7061 51.8358 57.2229C52.1313 56.1649 52.4187 55.0985 52.7307 54.0487C52.7881 53.8655 52.7471 53.7655 52.6075 53.6572C51.7454 52.9824 50.8916 52.2992 50.0377 51.616C49.6436 51.2995 49.5123 50.9329 49.6518 50.5247C49.7832 50.1414 50.1116 49.9332 50.596 49.9082C51.6633 49.8665 52.7307 49.8248 53.798 49.7999C54.0115 49.7999 54.1182 49.7249 54.1921 49.5166C54.5451 48.5002 54.9146 47.4838 55.284 46.4674C55.4564 45.9759 55.7602 45.7342 56.1707 45.7426C56.5812 45.7426 56.8768 45.9842 57.0574 46.4757C57.4269 47.4921 57.7963 48.5085 58.1494 49.5249C58.2151 49.7165 58.3054 49.7999 58.5188 49.7999C59.6026 49.8248 60.6945 49.8665 61.7783 49.9165C62.4515 49.9415 62.8867 50.4913 62.6814 51.0912C62.6157 51.2911 62.4515 51.4828 62.2791 51.6244C61.4499 52.3075 60.6042 52.9657 59.7586 53.6239C59.5862 53.7572 59.5369 53.8655 59.6026 54.0904C59.9064 55.1235 60.1937 56.1649 60.4811 57.2063C60.5139 57.3396 60.5385 57.4729 60.555 57.5395L60.5632 57.5478ZM59.5944 57.4979C59.5615 57.3479 59.5369 57.2479 59.5123 57.1563C59.2413 56.1732 58.9622 55.1984 58.6913 54.2154C58.5271 53.6405 58.6256 53.3656 59.0853 52.9907C59.8817 52.3575 60.6863 51.7244 61.4827 51.0829C61.5484 51.0329 61.6141 50.9662 61.7126 50.8746C61.6141 50.8662 61.5648 50.8579 61.5156 50.8579C60.4564 50.8163 59.4055 50.7746 58.3464 50.7413C57.7717 50.7163 57.5336 50.5497 57.3366 50.0081C56.9835 49.0417 56.6387 48.0753 56.2939 47.1089C56.261 47.0172 56.22 46.9339 56.1625 46.7923C56.0968 46.9506 56.064 47.0506 56.0312 47.1422C55.6863 48.1003 55.3415 49.0584 54.9967 50.0081C54.8078 50.533 54.5615 50.7163 54.0115 50.7329C53.3875 50.7579 52.7635 50.7746 52.1395 50.7996C51.6551 50.8163 51.1625 50.8413 50.6206 50.8662C50.7356 50.9662 50.7931 51.0245 50.867 51.0829C51.688 51.741 52.509 52.3908 53.3382 53.049C53.6995 53.3323 53.798 53.6905 53.683 54.1321C53.5435 54.6403 53.3957 55.1485 53.2561 55.6567C53.0919 56.2565 52.9195 56.848 52.7389 57.5062C52.8702 57.4229 52.9523 57.3812 53.0262 57.3312C53.8719 56.7564 54.7093 56.1815 55.555 55.6067C56.0394 55.2734 56.3349 55.2734 56.8275 55.6067C57.6732 56.1815 58.5106 56.7564 59.3563 57.3312C59.4302 57.3812 59.5041 57.4229 59.6272 57.4979H59.5944Z" fill="white"/>
<path d="M56.1872 43.1432C60.7028 43.1682 64.5123 46.4507 65.2677 50.9662C65.2841 51.0828 65.3005 51.1912 65.3087 51.3078C65.3416 51.5994 65.1856 51.8243 64.9311 51.8576C64.6683 51.8993 64.4549 51.7577 64.4056 51.4578C64.2742 50.5996 64.0608 49.7665 63.6995 48.9834C62.2627 45.8176 58.9623 43.6931 55.2513 44.143C51.4828 44.5929 48.5928 47.3921 47.977 51.0662C47.9524 51.2078 47.9442 51.3578 47.9113 51.4994C47.8457 51.766 47.6322 51.9076 47.3859 51.866C47.1314 51.8243 46.959 51.591 47.0246 51.3078C47.2217 50.4913 47.3695 49.6499 47.6733 48.8834C49.0608 45.4177 52.4844 43.1349 56.179 43.1599L56.1872 43.1432Z" fill="white"/>
<path d="M56.7044 61.855C51.5977 61.855 47.5993 58.3393 47.0492 53.8321C46.9999 53.4072 47.1149 53.1823 47.4187 53.1323C47.7142 53.0823 47.9113 53.2989 47.9688 53.7322C48.2068 55.4151 48.8801 56.9147 50.0295 58.1477C52.3448 60.6137 55.1773 61.5051 58.4121 60.5804C61.688 59.639 63.642 57.3396 64.3398 53.9488C64.3645 53.8155 64.3727 53.6822 64.4055 53.5489C64.4712 53.2573 64.6765 53.0907 64.9228 53.1323C65.1855 53.174 65.3415 53.4072 65.3087 53.7072C65.1855 54.6986 64.931 55.6483 64.4876 56.5314C62.7553 59.9639 59.9474 61.6801 56.7126 61.855H56.7044Z" fill="white"/>
</g>
<defs>
<filter id="filter0_f_147_1099" x="0.353027" y="0.54715" width="106.745" height="106.745" filterUnits="userSpaceOnUse" color-interpolation-filters="sRGB">
<feFlood flood-opacity="0" result="BackgroundImageFix"/>
<feBlend mode="normal" in="SourceGraphic" in2="BackgroundImageFix" result="shape"/>
<feGaussianBlur stdDeviation="12" result="effect1_foregroundBlur_147_1099"/>
</filter>
<clipPath id="clip0_147_1099">
<rect width="25" height="32" fill="white" transform="translate(43.6666 39.8608)"/>
</clipPath>
</defs>
</svg>
