<svg width="107" height="108" viewBox="0 0 107 108" fill="none" xmlns="http://www.w3.org/2000/svg">
<g filter="url(#filter0_f_147_1104)">
<circle cx="53.4347" cy="53.9199" r="29.3727" fill="#DEB334"/>
</g>
<circle cx="53.8048" cy="49.3829" r="2.62547" stroke="#F2F2F2" stroke-linecap="round"/>
<path d="M59.3447 48.0702C59.6928 47.4671 60.2663 47.0271 60.9389 46.8469C61.6115 46.6667 62.3281 46.761 62.9311 47.1092C63.5342 47.4573 63.9742 48.0308 64.1544 48.7034C64.3346 49.376 64.2403 50.0926 63.8921 50.6956C63.544 51.2987 62.9705 51.7387 62.2979 51.9189C61.6253 52.0991 60.9087 52.0048 60.3057 51.6566C59.7026 51.3085 59.2626 50.735 59.0824 50.0624C58.9022 49.3898 58.9965 48.6732 59.3447 48.0702L59.3447 48.0702Z" stroke="#F2F2F2"/>
<path d="M43.7173 48.0702C44.0655 47.4671 44.639 47.0271 45.3116 46.8469C45.9841 46.6667 46.7008 46.761 47.3038 47.1092C47.9068 47.4573 48.3469 48.0308 48.5271 48.7034C48.7073 49.376 48.613 50.0926 48.2648 50.6956C47.9166 51.2987 47.3432 51.7387 46.6706 51.9189C45.998 52.0991 45.2814 52.0048 44.6783 51.6566C44.0753 51.3085 43.6353 50.735 43.4551 50.0624C43.2748 49.3898 43.3692 48.6732 43.7173 48.0702L43.7173 48.0702Z" stroke="#F2F2F2"/>
<path d="M66.9874 60.11L66.4943 60.1932L66.9874 60.11ZM57.0864 55.9235L56.7958 55.5167L56.2634 55.897L56.7702 56.3108L57.0864 55.9235ZM59.1862 60.1086L58.6916 60.1818L59.1862 60.1086ZM66.0878 60.6034H58.2743V61.6034H66.0878V60.6034ZM66.4943 60.1932C66.5269 60.3864 66.3795 60.6034 66.0878 60.6034V61.6034C66.9007 61.6034 67.6316 60.9227 67.4804 60.0268L66.4943 60.1932ZM60.8369 55.3524C63.03 55.3524 64.3512 56.1637 65.1697 57.1409C66.0056 58.139 66.3528 59.3546 66.4943 60.1932L67.4804 60.0268C67.3243 59.1018 66.9329 57.6887 65.9364 56.4988C64.9224 55.2882 63.3172 54.3524 60.8369 54.3524V55.3524ZM57.3771 56.3304C58.1766 55.7592 59.2846 55.3524 60.8369 55.3524V54.3524C59.0989 54.3524 57.7826 54.8117 56.7958 55.5167L57.3771 56.3304ZM56.7702 56.3108C58.0587 57.3628 58.5275 59.0719 58.6916 60.1818L59.6808 60.0355C59.507 58.8597 58.99 56.8322 57.4026 55.5362L56.7702 56.3108ZM58.6916 60.1818C58.7217 60.3856 58.5638 60.6034 58.2743 60.6034V61.6034C59.0894 61.6034 59.8122 60.9244 59.6808 60.0355L58.6916 60.1818Z" fill="#F2F2F2"/>
<path d="M50.523 55.9235L50.8393 56.3108L51.3461 55.897L50.8137 55.5167L50.523 55.9235ZM40.6221 60.11L41.1151 60.1932L40.6221 60.11ZM48.4233 60.1086L47.9287 60.0355V60.0355L48.4233 60.1086ZM46.7725 55.3524C48.3249 55.3524 49.4329 55.7592 50.2324 56.3304L50.8137 55.5167C49.8269 54.8117 48.5105 54.3524 46.7725 54.3524V55.3524ZM41.1151 60.1932C41.2566 59.3546 41.6038 58.139 42.4397 57.1409C43.2582 56.1637 44.5795 55.3524 46.7725 55.3524V54.3524C44.2922 54.3524 42.6871 55.2882 41.6731 56.4988C40.6765 57.6887 40.2852 59.1018 40.1291 60.0268L41.1151 60.1932ZM41.5216 60.6034C41.2299 60.6034 41.0825 60.3864 41.1151 60.1932L40.1291 60.0268C39.9778 60.9227 40.7087 61.6034 41.5216 61.6034V60.6034ZM49.3352 60.6034H41.5216V61.6034H49.3352V60.6034ZM49.3352 60.6034C49.0457 60.6034 48.8878 60.3856 48.9179 60.1818L47.9287 60.0355C47.7973 60.9244 48.5201 61.6034 49.3352 61.6034V60.6034ZM48.9179 60.1818C49.082 59.0719 49.5507 57.3629 50.8393 56.3108L50.2068 55.5362C48.6195 56.8322 48.1025 58.8597 47.9287 60.0355L48.9179 60.1818Z" fill="#F2F2F2"/>
<path d="M53.8048 54.8525C57.893 54.8525 58.9255 58.3447 59.1862 60.1087C59.267 60.655 58.8266 61.1034 58.2744 61.1034H49.3352C48.7829 61.1034 48.3426 60.655 48.4233 60.1087C48.6841 58.3447 49.7166 54.8525 53.8048 54.8525Z" stroke="#F2F2F2" stroke-linecap="round"/>
<defs>
<filter id="filter0_f_147_1104" x="0.0620117" y="0.54715" width="106.745" height="106.745" filterUnits="userSpaceOnUse" color-interpolation-filters="sRGB">
<feFlood flood-opacity="0" result="BackgroundImageFix"/>
<feBlend mode="normal" in="SourceGraphic" in2="BackgroundImageFix" result="shape"/>
<feGaussianBlur stdDeviation="12" result="effect1_foregroundBlur_147_1104"/>
</filter>
</defs>
</svg>
