<svg width="108" height="108" viewBox="0 0 108 108" fill="none" xmlns="http://www.w3.org/2000/svg">
<g filter="url(#filter0_f_20_346)">
<circle cx="54.0169" cy="53.92" r="29.3727" fill="#DCDCDC"/>
</g>
<path d="M44.3846 14C45.9771 14.3004 47.1207 15.2783 48.164 16.4844C49.3654 17.8739 50.6388 19.1998 51.9052 20.5287C52.9711 21.6466 53.4822 22.9668 53.4737 24.5239C53.4596 26.8306 53.4695 29.1373 53.4695 31.444C53.4695 31.639 53.4695 31.8325 53.4695 32.0867C54.5015 32.0867 55.4855 32.0434 56.4625 32.0983C57.4408 32.1532 58.4531 32.1676 59.3821 32.4449C62.0037 33.2264 63.928 35.6992 63.9478 38.4955C64.0085 46.6405 64.0268 54.7868 63.945 62.9318C63.9083 66.5327 60.9223 69.3492 57.3957 69.3608C52.3386 69.3796 47.283 69.3767 42.226 69.3608C38.544 69.3507 35.64 66.3666 35.6019 62.5909C35.6005 62.4147 35.6019 62.2385 35.6019 62.0334H34.6447C34.3651 62.6862 34.0997 63.3045 33.8188 63.9602C33.9938 64.33 34.2917 64.7705 34.4188 65.2573C34.9087 67.1408 33.5378 68.9145 31.598 68.9203C27.2116 68.9347 22.8238 68.9463 18.4373 68.9159C17.3545 68.9087 16.2321 68.8914 15.1987 68.6068C11.8273 67.681 9.77178 64.5192 10.0203 60.8576C10.249 57.4922 12.8156 54.7233 16.1728 54.2192C16.2575 54.2062 16.3394 54.1773 16.451 54.1484C16.3182 53.1576 16.5625 52.2852 17.219 51.5398C16.307 50.3843 16.1079 49.158 16.8787 47.8812C17.6594 46.587 18.9301 46.4354 20.3277 46.5466C20.3277 46.2288 20.3277 45.9833 20.3277 45.7363C20.3277 36.9774 20.3263 28.2186 20.3277 19.4598C20.3277 17.0217 21.4685 15.17 23.4647 14.3669C23.836 14.2167 24.2299 14.1213 24.6125 14.0014C31.2027 14.0014 37.7916 14.0014 44.3818 14.0014L44.3846 14ZM33.7341 51.511C34.7957 53.1142 34.7929 54.0184 33.7383 55.6723C34.8 57.1614 34.8 58.1364 33.7341 59.809C34.2014 60.6511 34.9397 60.1311 35.6019 60.2756V59.5505C35.6019 52.7401 35.5976 45.9298 35.6089 39.118C35.6089 38.5273 35.6456 37.9235 35.7755 37.3501C36.4842 34.2215 39.1201 32.1127 42.3502 32.0896C45.274 32.0679 48.1979 32.0853 51.1217 32.0838C51.325 32.0838 51.5283 32.0665 51.6878 32.0593V23.4146C49.6689 23.4146 47.7334 23.4146 45.7978 23.4146C44.9267 23.4146 44.6698 23.1517 44.6684 22.2547C44.6656 20.2903 44.6684 18.3274 44.6684 16.363C44.6684 16.1695 44.6684 15.9774 44.6684 15.7333C44.4143 15.7333 44.2251 15.7333 44.0359 15.7333C37.9059 15.7333 31.7759 15.7333 25.6474 15.7333C23.3673 15.7333 22.0402 17.0896 22.0388 19.4252C22.036 28.2533 22.0388 37.0829 22.0388 45.911C22.0388 46.1031 22.0558 46.2938 22.0671 46.535C22.3042 46.535 22.4934 46.535 22.684 46.535C25.6784 46.535 28.6728 46.5278 31.6672 46.5393C33.1044 46.5451 34.2127 47.536 34.4696 48.9775C34.6447 49.9568 34.3313 50.7815 33.7341 51.511ZM62.3878 50.7122C62.3878 46.8932 62.3906 43.0728 62.3835 39.2538C62.3835 38.8046 62.3779 38.3467 62.2932 37.9091C61.8004 35.3641 59.7844 33.7333 57.1288 33.7304C52.2497 33.7232 47.372 33.7247 42.4928 33.7304C39.3248 33.7348 37.1944 35.9187 37.193 39.1614C37.1901 46.8716 37.1901 54.5832 37.193 62.2934C37.193 65.5548 39.3346 67.7387 42.5338 67.7402C47.3593 67.7431 52.1862 67.6911 57.0117 67.759C60.0795 67.8023 62.4753 65.4205 62.4075 62.224C62.3256 58.3892 62.3878 54.55 62.3878 50.7122ZM20.1273 67.304C23.2699 67.2996 25.7702 64.7142 25.7659 61.473C25.7617 58.3516 23.1866 55.7373 20.1244 55.7474C17.0185 55.7575 14.466 58.3718 14.4787 61.5322C14.4914 64.7243 17.0199 67.3083 20.1273 67.304ZM25.5146 48.2726C23.4732 48.2726 21.4317 48.2683 19.3903 48.2755C18.6773 48.2784 18.203 48.6872 18.1366 49.3227C18.0547 50.1142 18.5941 50.6573 19.4849 50.6588C23.4619 50.6617 27.4403 50.6617 31.4173 50.6588C32.2771 50.6588 32.8178 50.1937 32.8207 49.4686C32.8249 48.7392 32.2884 48.2755 31.4272 48.2741C29.4564 48.2712 27.4855 48.2741 25.5132 48.2741L25.5146 48.2726ZM25.4935 52.3935C23.469 52.3935 21.443 52.3877 19.4185 52.3964C18.6449 52.3993 18.1324 52.8875 18.1253 53.588C18.1225 53.939 18.2016 54.1556 18.6322 54.1412C20.1315 54.0892 21.6294 54.0863 23.0355 54.7536C23.0962 54.7825 23.1739 54.7796 23.2431 54.7796C26.061 54.7796 28.8789 54.7854 31.6955 54.771C32.3124 54.7681 32.7599 54.2972 32.8136 53.6891C32.8785 52.9626 32.3279 52.3993 31.5147 52.3964C29.5072 52.3877 27.4996 52.3935 25.4921 52.3935H25.4935ZM24.9725 67.1899C27.165 67.1899 29.3632 67.1971 31.5599 67.1855C32.2941 67.1812 32.8051 66.6814 32.8207 66.0098C32.8362 65.3165 32.3237 64.8095 31.5515 64.8023C30.0225 64.7893 28.4921 64.7936 26.9617 64.8023C26.8205 64.8023 26.6229 64.85 26.5495 64.9496C26.0172 65.6733 25.5104 66.4171 24.9725 67.187V67.1899ZM25.5895 56.5187C26.0172 57.2799 26.397 57.9833 26.8121 58.6651C26.8897 58.7936 27.1057 58.9019 27.2596 58.9034C28.6996 58.9207 30.1411 58.9236 31.5811 58.9077C32.3223 58.899 32.8221 58.4022 32.8221 57.7262C32.8221 57.0618 32.3138 56.5533 31.5853 56.523C31.094 56.5028 30.6013 56.5172 30.11 56.5172C28.6036 56.5172 27.0987 56.5172 25.5895 56.5172V56.5187ZM27.2723 63.0445C28.7801 63.0445 30.2554 63.069 31.7293 63.0329C32.3731 63.017 32.8122 62.4826 32.8207 61.8658C32.8277 61.2346 32.3703 60.7204 31.6955 60.6771C31.0644 60.6367 30.4291 60.6569 29.7966 60.6554C28.9919 60.6525 28.1857 60.6554 27.3853 60.6554C27.3471 61.4715 27.3118 62.2197 27.2737 63.0445H27.2723ZM50.5965 21.6524C49.1734 20.1141 47.8266 18.6596 46.4063 17.1242V21.6524H50.5965ZM13.1925 63.8129C12.9497 62.3483 12.865 62.2775 11.7313 62.562C11.737 63.7667 11.9572 63.9588 13.1925 63.8129ZM11.6523 60.784C12.865 61.0064 13.1036 60.8042 13.0542 59.5952C11.7864 59.497 11.8457 59.3338 11.6523 60.784ZM14.9248 56.3208C14.898 56.2818 14.8698 56.2428 14.8429 56.2038C14.1822 56.7151 13.5215 57.2264 12.8608 57.7377C12.9017 57.823 12.9427 57.9067 12.9836 57.992C13.3027 57.8937 13.7093 57.888 13.9224 57.6785C14.3163 57.29 14.5973 56.7801 14.9262 56.3222L14.9248 56.3208ZM13.1022 65.5909C13.7417 66.043 14.2952 66.433 14.8486 66.823C14.8754 66.784 14.9008 66.745 14.9276 66.706C14.7286 66.4576 14.4914 66.2322 14.3389 65.9564C14.082 65.4898 13.7333 65.3786 13.1022 65.5909Z" fill="black"/>
<path d="M30.9529 33.3938C31.4865 33.5685 31.9863 33.687 32.4465 33.8964C32.9562 34.1275 33.0818 34.5132 32.8799 34.9422C32.6724 35.3827 32.3576 35.4723 31.8253 35.2108C31.1491 34.8772 30.4545 34.7717 29.7232 34.9638C29.2559 35.0866 28.9326 35.3596 28.8535 35.8637C28.7688 36.4053 28.8959 36.882 29.3886 37.1651C29.7387 37.3673 30.1199 37.5146 30.4898 37.6778C30.8441 37.8353 31.214 37.9595 31.5585 38.1386C33.223 39.0052 33.7905 41.3163 32.6752 42.8632C32.3872 43.2619 31.9312 43.5796 31.4879 43.7992C31.1265 43.9797 30.9006 44.0881 30.8964 44.5676C30.8936 44.8204 30.6338 45.1685 30.3994 45.2898C30.2173 45.3851 29.8517 45.2595 29.6498 45.1122C29.5001 45.0038 29.4112 44.7005 29.4196 44.4911C29.4366 44.1069 29.2841 43.9942 28.9467 43.8743C28.4752 43.7053 28.0333 43.4309 27.6083 43.1521C27.429 43.0351 27.2836 42.8112 27.1989 42.6032C27.038 42.2089 27.1551 41.8536 27.501 41.6081C27.8356 41.3712 28.1039 41.5402 28.3283 41.8074C28.8818 42.4675 29.5834 42.7 30.4107 42.5859C31.1449 42.4848 31.5769 42.1627 31.6842 41.5676C31.814 40.844 31.7703 40.1377 31.0983 39.6856C30.7354 39.4415 30.3175 39.2797 29.918 39.0934C29.582 38.9374 29.2319 38.8131 28.8987 38.6528C27.8046 38.1271 27.2921 37.2388 27.3669 36.0081C27.4375 34.8454 28.005 34.0654 29.0836 33.6552C29.2248 33.6018 29.3279 33.3721 29.3942 33.2017C29.4493 33.0587 29.4041 32.8781 29.4366 32.7221C29.5199 32.3148 29.7895 32.088 30.1848 32.0953C30.5533 32.1025 30.8173 32.3191 30.8936 32.7034C30.9373 32.9301 30.9359 33.1656 30.9557 33.3909L30.9529 33.3938Z" fill="black"/>
<path d="M39.7314 29.1864C41.8618 29.1864 43.9936 29.1864 46.124 29.1864C46.3174 29.1864 46.5136 29.1835 46.7014 29.2225C47.1207 29.3077 47.3452 29.5896 47.3381 30.0231C47.331 30.4306 47.1108 30.7009 46.7169 30.7833C46.5291 30.8223 46.3315 30.8208 46.1395 30.8208C41.8773 30.8223 37.6165 30.8208 33.3543 30.8208C33.3021 30.8208 33.2484 30.8208 33.1962 30.8208C32.5355 30.8093 32.16 30.5174 32.1529 30.0115C32.1472 29.5043 32.5256 29.1878 33.1793 29.1864C35.1346 29.1806 37.0885 29.1835 39.0438 29.1835C39.2725 29.1835 39.5013 29.1835 39.73 29.1835L39.7314 29.1864Z" fill="black"/>
<path d="M34.2946 26.7694C32.0597 26.7694 29.8263 26.7694 27.5914 26.7694C27.4333 26.7694 27.2723 26.7809 27.117 26.7549C26.6963 26.6841 26.4535 26.4066 26.438 25.9832C26.421 25.5554 26.661 25.2693 27.0676 25.1667C27.2342 25.1248 27.4178 25.1421 27.5928 25.1421C32.0611 25.1421 36.5294 25.1421 40.9978 25.1421C41.1206 25.1421 41.2448 25.1349 41.3676 25.1464C41.8448 25.1884 42.1724 25.5381 42.1568 25.9846C42.1427 26.411 41.8237 26.7289 41.3662 26.7636C41.2265 26.7752 41.0853 26.7679 40.9441 26.7679C38.7276 26.7679 36.5111 26.7679 34.2946 26.7679V26.7694Z" fill="black"/>
<path d="M28.4258 30.8194C28.0389 30.8194 27.6507 30.8353 27.2653 30.8151C26.7683 30.7876 26.438 30.4567 26.4309 30.0173C26.4238 29.5794 26.7528 29.2152 27.2427 29.2008C28.0686 29.1748 28.8973 29.1748 29.7232 29.1979C30.2427 29.2124 30.5392 29.5317 30.5449 29.9942C30.5505 30.4798 30.2413 30.7919 29.6935 30.8165C29.2714 30.8353 28.8493 30.8208 28.4272 30.8194H28.4258Z" fill="black"/>
<path d="M45.5705 25.1435C45.8867 25.1435 46.2044 25.1305 46.5206 25.1464C47.0119 25.1696 47.3395 25.4991 47.3437 25.9485C47.3493 26.4008 47.0246 26.7477 46.5361 26.7621C45.8853 26.7809 45.2331 26.7795 44.5822 26.7621C44.0923 26.7506 43.7592 26.411 43.7549 25.9644C43.7507 25.5164 44.0796 25.1724 44.5653 25.1464C44.8985 25.1291 45.2345 25.1435 45.5691 25.1421L45.5705 25.1435Z" fill="black"/>
<path d="M49.8144 35.5806C52.2102 35.5806 54.606 35.5777 57.0032 35.5806C58.9162 35.5835 59.9821 36.6726 59.9891 38.6239C59.992 39.453 59.999 40.2821 59.9877 41.1112C59.9637 42.9152 58.8555 44.0375 57.095 44.0404C54.3646 44.0447 51.6328 44.0433 48.9024 44.039C48.7118 44.039 48.5099 44.0289 48.3334 43.9653C47.9536 43.8281 47.7263 43.4973 47.852 43.1261C47.9438 42.8531 48.2332 42.6206 48.4845 42.4472C48.62 42.3534 48.8614 42.414 49.0548 42.414C51.6977 42.414 54.3406 42.414 56.9835 42.4126C58.0169 42.4126 58.3839 42.037 58.3896 40.9826C58.3938 40.1535 58.3995 39.3245 58.3868 38.4954C58.3741 37.623 57.9985 37.2185 57.1642 37.2185C52.2483 37.2113 47.3325 37.2113 42.418 37.2185C41.5837 37.2185 41.2109 37.6331 41.2053 38.4983C41.1996 39.3808 41.1982 40.2648 41.2053 41.1473C41.2124 41.985 41.6175 42.3981 42.4491 42.4097C43.2947 42.4212 44.1404 42.4068 44.9861 42.414C45.603 42.4198 45.9658 42.726 45.9644 43.2214C45.963 43.7198 45.5974 44.0346 44.9847 44.039C44.0868 44.0462 43.1874 44.0563 42.2895 44.0361C40.7521 44.0014 39.6368 42.8517 39.6142 41.2816C39.6001 40.3442 39.6057 39.4068 39.6114 38.4708C39.6227 36.7159 40.6928 35.595 42.4138 35.5835C44.8802 35.5661 47.3466 35.5791 49.813 35.5791L49.8144 35.5806Z" fill="black"/>
<path d="M60.0639 59.2572C60.0639 60.6265 60.071 61.9958 60.0625 63.3637C60.0526 64.9337 59.1209 65.8827 57.5933 65.8914C57.1712 65.8942 56.7476 65.9015 56.3255 65.8899C54.9984 65.8552 54.0201 64.8702 54.0144 63.5197C54.0017 60.6554 54.0017 57.7912 54.0144 54.9284C54.0186 53.7657 54.7852 52.8846 55.9119 52.7892C56.6629 52.7257 57.4281 52.7257 58.1792 52.7892C59.2931 52.8846 60.0385 53.7295 60.0569 54.8807C60.0809 56.3396 60.0625 57.7984 60.0625 59.2572H60.0653H60.0639ZM58.4672 59.2269C58.4672 57.8417 58.4615 56.4566 58.47 55.0714C58.4728 54.628 58.3006 54.3925 57.8517 54.3969C57.2884 54.4026 56.7265 54.3969 56.1632 54.4012C55.8003 54.4041 55.6027 54.6034 55.6027 54.9703C55.5984 57.8129 55.597 60.6554 55.6041 63.498C55.6041 63.9674 55.8766 64.2303 56.3297 64.2563C56.7335 64.2794 57.1387 64.2679 57.5425 64.2621C58.2371 64.2534 58.4615 64.0295 58.4644 63.3276C58.47 61.9597 58.4658 60.5933 58.4644 59.2255L58.4672 59.2269Z" fill="black"/>
<path d="M52.83 55.8542C52.83 56.3222 52.8455 56.7916 52.8258 57.2596C52.7848 58.2215 52.1156 58.9264 51.174 58.9567C50.2591 58.9871 49.3415 58.9856 48.4266 58.9567C47.4751 58.9279 46.8087 58.2504 46.7762 57.2697C46.7452 56.3337 46.7466 55.3949 46.7748 54.4589C46.8045 53.494 47.4214 52.8195 48.3631 52.7718C49.3118 52.7242 50.2662 52.7227 51.2149 52.7762C52.213 52.8339 52.8046 53.5258 52.83 54.5557C52.8413 54.9875 52.8314 55.4209 52.83 55.8527V55.8542ZM48.3927 57.3347C49.2822 57.3347 50.1081 57.3462 50.9325 57.3202C51.037 57.3174 51.2206 57.118 51.2248 57.0039C51.2516 56.2485 51.2488 55.4902 51.2276 54.7333C51.2248 54.6207 51.0765 54.4185 50.9918 54.4156C50.1349 54.3925 49.2779 54.4011 48.3941 54.4011V57.3332L48.3927 57.3347Z" fill="black"/>
<path d="M49.7876 65.8927C49.3485 65.8927 48.908 65.9043 48.4689 65.8898C47.4906 65.8595 46.8073 65.198 46.7734 64.1956C46.7423 63.2625 46.7395 62.3251 46.7734 61.392C46.8101 60.3679 47.444 59.7295 48.4562 59.6934C49.3513 59.6616 50.2492 59.6602 51.1443 59.6948C52.158 59.7338 52.8074 60.43 52.8271 61.4584C52.8427 62.3395 52.8427 63.2206 52.8271 64.1017C52.8088 65.1705 52.1057 65.8711 51.0539 65.8913C50.6318 65.8985 50.2097 65.8913 49.789 65.8913L49.7876 65.8927ZM48.3659 61.3588C48.3659 62.2586 48.3546 63.1036 48.38 63.9471C48.3828 64.0569 48.5748 64.2476 48.685 64.2519C49.4233 64.2793 50.1645 64.2779 50.9029 64.2519C51.0172 64.2476 51.2205 64.0685 51.2233 63.9645C51.2488 63.1065 51.2375 62.2471 51.2375 61.3602H48.3659V61.3588Z" fill="black"/>
<path d="M45.658 55.9033C45.658 56.3352 45.6651 56.767 45.658 57.1975C45.6411 58.1927 44.9888 58.9206 44.0274 58.9553C43.097 58.9885 42.1638 58.9885 41.2335 58.9553C40.2918 58.9206 39.6325 58.2057 39.617 57.2437C39.6014 56.3265 39.6028 55.4093 39.617 54.4936C39.6297 53.5547 40.2099 52.8426 41.1106 52.7877C42.1257 52.7256 43.1507 52.7256 44.1643 52.7892C45.0636 52.8455 45.6397 53.5648 45.658 54.4993C45.6665 54.9673 45.6594 55.4339 45.6594 55.9019L45.658 55.9033ZM44.0246 57.3072V54.4286H41.2377V57.3072H44.0246Z" fill="black"/>
<path d="M45.6581 62.8047C45.6581 63.2539 45.6666 63.7045 45.6581 64.1537C45.6369 65.1171 44.9847 65.848 44.0529 65.8827C43.1056 65.9188 42.154 65.9188 41.2067 65.8827C40.2947 65.848 39.6354 65.1301 39.6185 64.2C39.6015 63.2654 39.6001 62.3295 39.6185 61.3949C39.6368 60.4359 40.2481 59.7541 41.1912 59.7079C42.1555 59.6617 43.1254 59.6617 44.0896 59.7079C45.0256 59.7541 45.6327 60.4474 45.6581 61.4022C45.6708 61.8687 45.6609 62.3367 45.6609 62.8047H45.6581ZM44.0642 61.3718H41.2336V64.2606C42.1046 64.2606 42.9446 64.2722 43.7832 64.2447C43.8807 64.2418 44.0487 64.0208 44.0515 63.8981C44.0755 63.0733 44.0642 62.2471 44.0642 61.3718Z" fill="black"/>
<path d="M49.7818 51.6625C49.3244 51.6625 48.8656 51.6784 48.4082 51.6596C47.4905 51.6206 46.8241 51.001 46.7846 50.0751C46.7422 49.0684 46.7422 48.0559 46.7874 47.0491C46.8269 46.1637 47.5131 45.5051 48.3785 45.4805C49.3117 45.4531 50.2463 45.4559 51.1795 45.4791C52.0859 45.5007 52.7861 46.194 52.82 47.1257C52.8539 48.079 52.8525 49.0366 52.82 49.9899C52.7875 50.9649 52.1183 51.6177 51.1555 51.6596C50.6981 51.6798 50.2392 51.6625 49.7818 51.664V51.6625ZM51.2063 47.1358H48.4039V49.9899H51.2063V47.1358Z" fill="black"/>
<path d="M60.0583 48.5585C60.0583 49.0453 60.0767 49.532 60.0555 50.0173C60.016 50.9418 59.3793 51.6221 58.4814 51.6524C57.5129 51.6842 56.543 51.6842 55.5759 51.651C54.7204 51.6206 54.0469 50.923 54.0201 50.0477C53.9905 49.0756 53.9919 48.1006 54.0173 47.1286C54.0413 46.2085 54.7472 45.5007 55.6521 45.4791C56.5853 45.4559 57.5199 45.4531 58.4531 45.4805C59.3397 45.5065 60.0089 46.1955 60.0541 47.0997C60.0781 47.585 60.0583 48.0732 60.0597 48.5585H60.0583ZM55.6296 47.1271V50.0015H58.4277V47.1271H55.6296Z" fill="black"/>
<path d="M45.6567 48.5716C45.6567 49.0584 45.6708 49.5451 45.6525 50.0319C45.62 50.9144 44.9762 51.6164 44.1122 51.6496C43.1268 51.6857 42.1385 51.6857 41.1531 51.6496C40.2862 51.6178 39.6382 50.9216 39.6185 50.0348C39.5959 49.0627 39.5973 48.0877 39.6185 47.1157C39.6382 46.223 40.3244 45.5095 41.2039 45.482C42.154 45.4532 43.107 45.4517 44.0571 45.482C44.9593 45.5109 45.6285 46.2375 45.6539 47.1662C45.6666 47.6342 45.6567 48.1036 45.6553 48.5716H45.6567ZM44.0374 47.1359H41.242V49.99H44.0374V47.1359Z" fill="black"/>
<path d="M20.0821 57.0386C20.3856 57.2798 20.7301 57.4156 20.8035 57.6438C20.9235 58.0222 21.1621 58.1204 21.4628 58.223C21.5927 58.2678 21.7198 58.3443 21.8271 58.4324C22.1532 58.6996 22.2746 59.0391 22.0657 59.4334C21.8511 59.8378 21.5207 59.9447 21.0817 59.8118C20.7527 59.7107 20.4068 59.6472 20.0638 59.6226C19.9466 59.6139 19.7278 59.767 19.7179 59.8638C19.7038 60.0054 19.7969 60.2278 19.9141 60.3C20.212 60.4835 20.5466 60.6062 20.8699 60.7463C21.6972 61.1031 22.2351 61.6924 22.2916 62.6443C22.3494 63.6164 22.0685 64.4165 21.1593 64.8918C21.0464 64.951 20.9574 65.1142 20.9137 65.2485C20.7866 65.6356 20.5339 65.8667 20.1456 65.8783C19.7546 65.8898 19.5075 65.6573 19.3423 65.2918C19.2675 65.1243 19.0995 64.9943 18.9569 64.8672C18.6689 64.6144 18.3117 64.4194 18.0887 64.119C17.8091 63.7406 17.915 63.3145 18.275 63.0169C18.6153 62.7353 18.9414 62.8263 19.2703 63.1094C19.475 63.2856 19.7447 63.4719 19.9932 63.482C20.2205 63.4921 20.5635 63.3318 20.6652 63.1397C20.8219 62.845 20.7118 62.4955 20.3631 62.3294C19.9649 62.1402 19.5485 61.9914 19.1574 61.7877C18.179 61.275 17.8035 60.2047 18.2637 59.1806C18.3908 58.899 18.6139 58.639 18.8496 58.4411C19.0896 58.2389 19.3226 58.1103 19.403 57.7348C19.4567 57.4892 19.804 57.3101 20.0835 57.04L20.0821 57.0386Z" fill="black"/>
<defs>
<filter id="filter0_f_20_346" x="0.644165" y="0.547241" width="106.745" height="106.745" filterUnits="userSpaceOnUse" color-interpolation-filters="sRGB">
<feFlood flood-opacity="0" result="BackgroundImageFix"/>
<feBlend mode="normal" in="SourceGraphic" in2="BackgroundImageFix" result="shape"/>
<feGaussianBlur stdDeviation="12" result="effect1_foregroundBlur_20_346"/>
</filter>
</defs>
</svg>
