<svg width="1440" height="899" viewBox="0 0 1440 899" fill="none" xmlns="http://www.w3.org/2000/svg">
<g clip-path="url(#clip0_51_363)">
<path d="M109.456 128.473L118.912 147.636C118.912 147.636 117.424 157.769 100.099 166.317C82.7739 174.866 73.8275 169.882 73.8275 169.882L64.3721 150.719" stroke="#F5F5F5" stroke-width="2" stroke-miterlimit="10"/>
<path d="M104.322 133.568L119.489 164.306" stroke="#F5F5F5" stroke-width="2" stroke-miterlimit="10"/>
<path d="M79.009 123.575L114.372 119.911L90.7461 147.362L54.5859 149.411L79.009 123.575ZM77.4953 120.507C77.3323 120.587 77.169 120.705 77.0501 120.837L49.2006 150.299C48.2195 151.336 49.0087 153.047 50.443 152.966L91.6601 150.633C91.8745 150.62 92.0891 150.569 92.267 150.481C92.4448 150.394 92.6156 150.254 92.7568 150.092L119.685 118.8C120.622 117.711 119.744 116.044 118.324 116.192L78.0282 120.354C77.836 120.376 77.6583 120.426 77.4953 120.507Z" fill="#F5F5F5"/>
<path d="M123.533 172.501C121.265 173.62 118.521 172.689 117.402 170.422C116.283 168.154 117.214 165.41 119.482 164.291C121.749 163.172 124.494 164.103 125.613 166.371C126.732 168.638 125.801 171.383 123.533 172.501Z" fill="#F5F5F5"/>
</g>
<g clip-path="url(#clip1_51_363)">
<path d="M1322.5 103C1306.21 103 1293 116.209 1293 132.5C1293 148.791 1306.21 162 1322.5 162C1338.79 162 1352 148.791 1352 132.5C1352 116.209 1338.79 103 1322.5 103ZM1322.5 148.013C1313.93 148.013 1306.99 141.069 1306.99 132.5C1306.99 123.931 1313.93 116.987 1322.5 116.987C1331.07 116.987 1338.01 123.931 1338.01 132.5C1338.01 141.069 1331.07 148.013 1322.5 148.013Z" fill="#F5F5F5"/>
</g>
<g clip-path="url(#clip2_51_363)">
<path d="M1229.57 -3.43694e-05C1229.85 2.75997 1230 5.55997 1230 8.39997C1230 54.44 1192.54 91.9 1146.5 91.9C1100.46 91.9 1063 54.44 1063 8.39999C1063 5.56999 1063.15 2.76999 1063.43 -5.32055e-06L1033.33 -5.7699e-08C1033.13 2.77 1033 5.57 1033 8.4C1033 70.98 1083.92 121.9 1146.5 121.9C1209.08 121.9 1260 70.98 1260 8.39996C1260 5.56996 1259.87 2.77996 1259.67 -3.96322e-05L1229.57 -3.43694e-05Z" fill="#FBFBFB"/>
</g>
<g clip-path="url(#clip3_51_363)">
<path d="M-58 329.43C-55.24 329.15 -52.44 329 -49.6 329C-3.56001 329 33.9 366.46 33.9 412.5C33.9 458.54 -3.56 496 -49.6 496C-52.43 496 -55.23 495.85 -58 495.57L-58 525.67C-55.23 525.87 -52.43 526 -49.6 526C12.98 526 63.9 475.08 63.9 412.5C63.9 349.92 12.98 299 -49.6 299C-52.43 299 -55.22 299.13 -58 299.33L-58 329.43Z" fill="#FAF9F9"/>
</g>
<g clip-path="url(#clip4_51_363)">
<path d="M1353.43 898.9C1353.15 896.14 1353 893.34 1353 890.5C1353 844.46 1390.46 807 1436.5 807C1482.54 807 1520 844.46 1520 890.5C1520 893.33 1519.85 896.13 1519.57 898.9L1549.67 898.9C1549.87 896.13 1550 893.33 1550 890.5C1550 827.92 1499.08 777 1436.5 777C1373.92 777 1323 827.92 1323 890.5C1323 893.33 1323.13 896.12 1323.33 898.9L1353.43 898.9Z" fill="#FAF9F9"/>
</g>
<path d="M1005 152.875C1022.48 152.875 1022.48 176.125 1039.97 176.125C1057.45 176.125 1057.49 152.875 1074.97 152.875C1092.46 152.875 1092.46 176.125 1109.98 176.125C1127.5 176.125 1127.46 152.875 1144.98 152.875C1162.51 152.875 1162.47 176.125 1179.99 176.125C1197.51 176.125 1197.51 152.875 1214.99 152.875C1232.48 152.875 1232.52 176.125 1250 176.125" stroke="#F5F5F5" stroke-width="2" stroke-miterlimit="10"/>
<g clip-path="url(#clip5_51_363)">
<path d="M313.792 216.907C264.531 214.309 226.542 172.134 229.139 122.814C231.737 73.5402 273.901 35.541 323.162 38.1392C372.423 40.7375 410.412 82.9124 407.861 132.233C405.263 181.506 363.099 219.505 313.792 216.907ZM321.677 66.9054C288.28 65.1424 259.661 90.8927 257.944 124.345C256.182 157.751 281.925 186.378 315.323 188.095C348.72 189.858 377.339 164.107 379.102 130.701C380.865 97.2955 355.075 68.6685 321.724 66.9518L321.677 66.9054Z" fill="#FCFCFC"/>
</g>
<circle cx="107.5" cy="772.5" r="53" stroke="#FAFAFA" stroke-width="25"/>
<defs>
<clipPath id="clip0_51_363">
<rect width="79.1456" height="66.9986" fill="white" transform="translate(42 138.021) rotate(-26.2628)"/>
</clipPath>
<clipPath id="clip1_51_363">
<rect width="59" height="59" fill="white" transform="translate(1293 103)"/>
</clipPath>
<clipPath id="clip2_51_363">
<rect width="227" height="121.9" fill="white" transform="translate(1033)"/>
</clipPath>
<clipPath id="clip3_51_363">
<rect width="227" height="121.9" fill="white" transform="translate(-58 526) rotate(-90)"/>
</clipPath>
<clipPath id="clip4_51_363">
<rect width="227" height="121.9" fill="white" transform="translate(1550 898.9) rotate(180)"/>
</clipPath>
<clipPath id="clip5_51_363">
<rect width="179" height="179" fill="white" transform="translate(229 38)"/>
</clipPath>
</defs>
</svg>
