<svg width="108" height="108" viewBox="0 0 108 108" fill="none" xmlns="http://www.w3.org/2000/svg">
<g filter="url(#filter0_f_147_1410)">
<ellipse cx="53.7566" cy="53.9208" rx="29.3933" ry="29.3733" fill="#F2994A"/>
</g>
<g clip-path="url(#clip0_147_1410)">
<path d="M20.5651 37.9935C20.6035 37.9832 20.6431 37.9743 20.6815 37.964C20.6687 34.5479 23.4123 31.7134 26.7607 31.6815C27.3476 31.6764 27.6749 31.9269 27.6941 32.4C27.7132 32.8743 27.4038 33.1556 26.8323 33.2157C26.4386 33.2566 26.0346 33.2834 25.6561 33.3896C22.9137 34.1554 21.5176 37.055 22.566 39.7795C22.782 40.3421 22.6516 40.7716 22.2144 40.943C21.772 41.1156 21.3412 40.9084 21.1622 40.3331C20.9231 39.566 20.7607 38.7746 20.5651 37.9947V37.9935ZM48.8457 35.3239C50.5819 35.3239 52.3181 35.3073 54.0543 35.3418C54.324 35.3469 54.6884 35.5247 54.8355 35.742C55.1858 36.256 54.7357 36.8466 54.0198 36.8479C50.5793 36.853 47.1388 36.8517 43.6971 36.8479C43.1039 36.8479 42.7382 36.5487 42.7331 36.0846C42.728 35.6116 43.0809 35.3252 43.6843 35.3252C45.4052 35.3227 47.1248 35.3252 48.8457 35.3252V35.3239ZM48.8712 33.3665C47.1197 33.3665 45.3668 33.3717 43.6153 33.3627C43.0783 33.3602 42.7459 33.0623 42.7331 32.6225C42.7191 32.1699 43.0694 31.8617 43.6242 31.8387C43.6882 31.8362 43.7521 31.8387 43.8147 31.8387C47.1593 31.8387 50.5039 31.8387 53.8484 31.84C54.0223 31.84 54.2013 31.8426 54.3701 31.8809C54.746 31.9679 54.9403 32.2415 54.9377 32.6084C54.9352 32.9753 54.7383 33.2476 54.3611 33.3307C54.177 33.3717 53.9814 33.3678 53.7909 33.3678C52.1506 33.3704 50.5103 33.3691 48.8699 33.3678L48.8712 33.3665ZM51.3643 40.3127C50.4719 40.3127 49.5782 40.3165 48.6858 40.3127C48.1105 40.3101 47.7832 40.0301 47.7794 39.5571C47.7755 39.084 48.1054 38.7861 48.6718 38.7848C50.4578 38.7797 52.2439 38.7797 54.03 38.7848C54.5874 38.7861 54.9416 39.0891 54.9467 39.5443C54.9518 40.0033 54.6002 40.3101 54.0441 40.3127C53.1517 40.3178 52.258 40.3139 51.3656 40.3139L51.3643 40.3127ZM58.0956 40.3728C57.8451 40.2948 57.5625 40.2641 57.349 40.126C56.9833 39.8908 56.9654 39.3525 57.2646 39.0316C57.6188 38.6532 58.6505 38.6711 58.9791 39.061C59.268 39.4036 59.2246 39.9176 58.8423 40.149C58.6364 40.273 58.3692 40.2948 58.0969 40.3728H58.0956ZM58.0611 35.1744C58.4319 35.3559 58.7809 35.4454 59.0098 35.6615C59.2885 35.9236 59.1952 36.3813 58.9024 36.6434C58.5751 36.9361 57.6558 36.9489 57.3273 36.6497C57.0319 36.3813 56.9271 36.0118 57.1815 35.7113C57.3797 35.4761 57.7287 35.3687 58.0611 35.1744ZM58.1238 33.3653C57.7185 33.3832 57.3196 33.3474 57.1265 32.9012C56.9757 32.5521 57.0664 32.2427 57.3592 32.0049C57.6622 31.7595 58.5623 31.7582 58.8615 32.0075C59.1466 32.2453 59.2476 32.5457 59.0903 32.9024C58.9037 33.3282 58.5329 33.3793 58.1225 33.3653H58.1238Z" fill="white"/>
<path d="M38.6919 25C38.0053 25.2327 37.5067 25.7108 37.026 26.2299C35.2936 28.1029 33.5485 29.9657 31.8007 31.8247C31.3405 32.3143 31.1052 32.8743 31.1116 33.5506C31.1231 34.7154 31.1116 35.8788 31.1155 37.0435C31.118 37.6444 31.4108 37.9998 31.8839 37.9922C32.3505 37.9845 32.6458 37.6201 32.6484 37.0256C32.6535 36.0731 32.6484 35.1206 32.6484 34.1145C33.1112 34.1145 33.5216 34.1145 33.932 34.1145C34.9203 34.1132 35.9099 34.1336 36.8981 34.103C38.4848 34.0544 39.7249 32.7861 39.7415 31.2008C39.7582 29.6704 39.7454 28.14 39.7454 26.5304H40.2645C46.9792 26.5304 53.6939 26.5304 60.4086 26.5304C61.2268 26.5304 61.4659 26.7682 61.4659 27.5775C61.4659 40.2091 61.4659 52.842 61.4659 65.4736C61.4659 66.2855 61.2217 66.5322 60.4163 66.5335C58.487 66.5348 56.5564 66.5297 54.6272 66.5374C54.1017 66.5386 53.7846 66.8506 53.7936 67.3147C53.8025 67.7571 54.1132 68.0396 54.6144 68.0613C54.7256 68.0665 54.8381 68.0613 54.9494 68.0613C56.6562 68.0613 58.3643 68.0102 60.0685 68.0767C61.5043 68.1329 62.5028 67.6266 62.9976 66.2459V26.818C62.6907 25.9154 62.0885 25.3056 61.1821 25H38.6919ZM38.2176 27.7309C38.2176 28.9352 38.2252 30.0092 38.215 31.0831C38.2061 31.9973 37.6358 32.5688 36.7204 32.5815C35.8613 32.593 35.0008 32.5854 34.1417 32.5815C34.0432 32.5815 33.9448 32.5496 33.7952 32.524C35.2681 30.9272 36.6974 29.3776 38.2176 27.7309Z" fill="black"/>
<path d="M25.2943 25.0001C25.123 25.3235 24.8929 25.6316 24.7944 25.9756C24.6065 26.6327 24.4748 27.3078 24.3598 27.9815C24.3112 28.2654 24.1744 28.3702 23.9225 28.4597C23.3996 28.6464 22.8805 28.8548 22.3832 29.1028C22.1147 29.237 21.928 29.2153 21.6902 29.0516C21.074 28.6272 20.4424 28.2244 19.8121 27.8192C19.3493 27.5225 19.0501 27.5443 18.6563 27.9278C18.0631 28.507 17.484 29.1015 16.8997 29.6883C16.5673 30.022 16.5506 30.3851 16.8 30.77C17.2155 31.4118 17.6233 32.06 18.0567 32.689C18.2229 32.9293 18.2344 33.1147 18.1053 33.3807C17.856 33.8946 17.6783 34.4431 17.4354 34.9596C17.3625 35.1156 17.1873 35.2869 17.0275 35.3265C16.2873 35.5132 15.5355 35.6551 14.7889 35.8162C14.2033 35.9415 14.0077 36.1755 14.0051 36.7713C14.0013 37.569 14.0051 38.3656 14.0039 39.1633C14.0039 39.6441 14.2148 39.9432 14.7019 40.0404C15.4511 40.1913 16.1965 40.3626 16.9457 40.5083C17.2219 40.562 17.3599 40.6784 17.4712 40.9584C17.7691 41.7101 18.1091 42.4478 18.4825 43.1651C18.7267 43.633 19.1856 43.7417 19.5692 43.509C19.9591 43.2725 20.0064 42.8659 19.7853 42.3801C19.4119 41.558 19.054 40.7257 18.7471 39.8767C18.5975 39.4651 18.3712 39.2426 17.9519 39.1621C17.1567 39.0074 16.3653 38.8335 15.5547 38.6647V37.2213C16.355 37.0487 17.1567 36.8569 17.9672 36.7061C18.4236 36.6217 18.6205 36.3532 18.7701 35.939C19.0616 35.1348 19.3825 34.3383 19.7533 33.5686C19.9476 33.1633 19.9834 32.8335 19.7277 32.4576C19.2726 31.7864 18.8366 31.0998 18.3802 30.4017C18.7241 30.0617 19.0591 29.7305 19.4132 29.3815C20.0947 29.8264 20.7799 30.2598 21.4512 30.715C21.8245 30.9694 22.1518 30.9502 22.5609 30.7546C23.3459 30.3775 24.1565 30.0502 24.976 29.7523C25.3774 29.6065 25.6268 29.4109 25.7086 28.9775C25.8633 28.1669 26.0525 27.364 26.2289 26.5496H27.666C27.8347 27.3525 28.0009 28.1439 28.1684 28.9353C28.2937 29.526 28.6287 29.7945 29.1158 29.6986C29.5671 29.6103 29.7896 29.2102 29.6758 28.6553C29.4853 27.7194 29.3101 26.7785 29.0698 25.8554C28.9892 25.546 28.7284 25.2839 28.5494 24.9988C27.4652 24.9988 26.3798 24.9988 25.2956 24.9988L25.2943 25.0001Z" fill="black"/>
<path d="M42.1566 45.9407C42.1566 44.7325 42.1578 43.6023 42.1566 42.4721C42.1527 40.6093 41.0839 39.5469 39.2109 39.5469C35.1593 39.5469 31.109 39.5469 27.0574 39.5469C25.1166 39.5469 24.0568 40.6183 24.0555 42.5744C24.0555 43.6739 24.0555 44.7721 24.0555 45.9407C23.856 45.9407 23.686 45.9407 23.5172 45.9407C21.5074 45.9407 19.4976 45.9368 17.4891 45.9407C15.4256 45.9458 14.0039 47.3662 14.0026 49.4323C13.9988 56.45 13.9988 63.4677 14.0026 70.4854C14.0026 72.5668 15.4371 73.9962 17.5274 73.9962C27.8948 73.9988 38.2609 73.9988 48.6283 73.9962C50.821 73.9962 52.2222 72.6077 52.2248 70.4151C52.2312 65.5351 52.2273 60.655 52.2273 55.7737C52.2273 53.7012 52.1813 51.6275 52.2401 49.5563C52.3015 47.3381 50.5602 45.8371 48.581 45.9202C46.639 46.002 44.6906 45.9381 42.7447 45.9381C42.5721 45.9381 42.3995 45.9381 42.1578 45.9381L42.1566 45.9407ZM15.533 56.8335C16.0866 57.0189 16.5839 57.2439 17.1055 57.3488C19.5564 57.8436 22.0137 58.3077 24.4684 58.7807C26.0116 59.0786 27.556 59.3727 29.1311 59.6744C29.1311 60.1359 29.103 60.5668 29.1388 60.9925C29.1784 61.4656 29.2142 61.954 29.3587 62.4014C29.9417 64.2092 31.8096 65.3535 33.6634 65.0773C35.5799 64.7922 37.0144 63.2069 37.0796 61.2827C37.0975 60.7458 37.0822 60.2088 37.0822 59.6667C37.3136 59.6169 37.4836 59.5772 37.6549 59.5453C40.9254 58.9226 44.197 58.3102 47.4636 57.6722C48.5414 57.4613 49.6064 57.1839 50.6867 56.9358C50.6867 56.9435 50.697 57.0228 50.697 57.1008C50.697 61.5819 50.7034 66.0644 50.6931 70.5455C50.6906 71.7448 49.9363 72.4671 48.7293 72.4671C38.3313 72.4697 27.9319 72.4684 17.5338 72.4671C16.2796 72.4671 15.5381 71.7281 15.5355 70.4803C15.5317 68.7582 15.5355 67.0347 15.5355 65.3126C15.5355 62.4897 15.5355 59.668 15.5355 56.8335H15.533ZM29.1299 58.0929C29.0237 58.0865 28.9611 58.0878 28.9023 58.0775C25.7584 57.4766 22.6133 56.8834 19.472 56.2697C18.5528 56.0895 17.6323 55.8926 16.7348 55.6305C16.1454 55.4579 15.6135 55.0334 15.593 54.4006C15.5317 52.571 15.5048 50.7351 15.602 48.9081C15.6519 47.9722 16.4957 47.4698 17.6029 47.4698C22.8332 47.4672 28.0623 47.4672 33.2927 47.4698C36.099 47.4711 38.9053 47.4851 41.7116 47.4851C44.0718 47.4851 46.4306 47.4672 48.7907 47.4736C49.8647 47.4762 50.6522 48.1551 50.6765 49.1651C50.7136 50.8067 50.6765 52.4483 50.6791 54.0912C50.6791 54.7381 50.3467 55.1907 49.8135 55.4745C49.4415 55.6739 49.0247 55.8248 48.6104 55.9066C45.4845 56.5178 42.3547 57.1059 39.2262 57.6991C38.5307 57.8308 37.8339 57.9522 37.0898 58.0865C37.0898 57.2465 37.0937 56.4845 37.0898 55.7212C37.0834 54.6614 36.5222 54.0899 35.4738 54.086C33.9115 54.0809 32.3479 54.0809 30.7855 54.086C29.7103 54.0886 29.1388 54.6652 29.1337 55.743C29.1299 56.5216 29.1337 57.3002 29.1337 58.0967L29.1299 58.0929ZM25.5871 45.8895C25.5871 44.7172 25.5858 43.6023 25.5871 42.4874C25.5884 41.4851 26.0014 41.0785 27.0178 41.0785C31.0809 41.0785 35.144 41.0785 39.207 41.0785C39.3502 41.0785 39.496 41.0721 39.6366 41.09C40.1148 41.1527 40.5763 41.5119 40.5891 41.9632C40.6262 43.2635 40.6019 44.565 40.6019 45.8755H38.9143V42.7112H27.2952V45.8883H25.5858L25.5871 45.8895ZM30.6679 55.6433H35.5505C35.5505 57.5035 35.5646 59.3317 35.5454 61.1613C35.5313 62.4973 34.4906 63.5444 33.1981 63.5738C31.862 63.6032 30.7203 62.6226 30.6807 61.284C30.627 59.4225 30.6666 57.5585 30.6666 55.6445L30.6679 55.6433ZM28.8563 44.239H37.3711V45.9164H28.8563V44.239Z" fill="black"/>
<path d="M20.5652 37.9935C20.7608 38.7747 20.9231 39.5648 21.1622 40.3319C21.3412 40.9072 21.7733 41.1143 22.2144 40.9417C22.653 40.7704 22.7834 40.3408 22.566 39.7783C21.5176 37.0538 22.9125 34.1542 25.6562 33.3883C26.0346 33.2822 26.4386 33.2554 26.8324 33.2145C27.4052 33.1544 27.7133 32.8744 27.6941 32.3988C27.6762 31.927 27.3489 31.6751 26.7608 31.6803C23.4124 31.7122 20.6687 34.5479 20.6815 37.9628C20.6431 37.9731 20.6035 37.982 20.5652 37.9922V37.9935Z" fill="black"/>
<path d="M48.8457 35.324C47.1248 35.324 45.4052 35.3227 43.6843 35.324C43.0809 35.324 42.728 35.6104 42.7331 36.0834C42.7382 36.5488 43.1039 36.8467 43.6971 36.8467C47.1376 36.8492 50.578 36.8505 54.0198 36.8467C54.7357 36.8467 55.1858 36.256 54.8355 35.7408C54.6884 35.5247 54.3241 35.347 54.0543 35.3406C52.3194 35.3048 50.5819 35.3227 48.8457 35.3227V35.324Z" fill="black"/>
<path d="M48.8713 33.3666C50.5116 33.3666 52.1519 33.3679 53.7922 33.3666C53.9827 33.3666 54.1784 33.3691 54.3625 33.3295C54.7383 33.2477 54.9365 32.9741 54.9391 32.6071C54.9416 32.2402 54.7473 31.9666 54.3714 31.8797C54.2039 31.84 54.0237 31.8388 53.8498 31.8388C50.5052 31.8362 47.1606 31.8375 43.8161 31.8375C43.7521 31.8375 43.6882 31.8362 43.6256 31.8375C43.0707 31.8605 42.7204 32.1686 42.7344 32.6212C42.7472 33.061 43.0796 33.3589 43.6166 33.3615C45.3682 33.3704 47.1197 33.3653 48.8726 33.3653L48.8713 33.3666Z" fill="black"/>
<path d="M51.3643 40.3127C52.2567 40.3127 53.1504 40.3165 54.0428 40.3114C54.5989 40.3076 54.9505 40.002 54.9454 39.5431C54.9403 39.0892 54.5861 38.7862 54.0287 38.7836C52.2426 38.7785 50.4565 38.7785 48.6705 38.7836C48.1041 38.7849 47.773 39.0828 47.7781 39.5558C47.7819 40.0289 48.1105 40.3076 48.6845 40.3114C49.5769 40.3165 50.4706 40.3114 51.363 40.3114L51.3643 40.3127Z" fill="black"/>
<path d="M58.0956 40.3728C58.3692 40.2948 58.6352 40.2731 58.841 40.149C59.2233 39.9189 59.2667 39.405 58.9778 39.061C58.6492 38.6698 57.6175 38.6519 57.2633 39.0316C56.9642 39.3513 56.9821 39.8908 57.3477 40.126C57.5612 40.2628 57.8438 40.2935 58.0944 40.3728H58.0956Z" fill="black"/>
<path d="M58.0611 35.1743C57.7287 35.3686 57.3797 35.476 57.1815 35.7113C56.9271 36.0117 57.0319 36.3799 57.3273 36.6497C57.6558 36.9489 58.5751 36.9361 58.9024 36.6433C59.1952 36.3812 59.2885 35.9248 59.0098 35.6614C58.7809 35.4454 58.4319 35.3571 58.0611 35.1743Z" fill="black"/>
<path d="M58.1238 33.3653C58.5329 33.3793 58.9036 33.3282 59.0916 32.9025C59.2488 32.5458 59.1478 32.2453 58.8627 32.0075C58.5636 31.7582 57.6635 31.7595 57.3605 32.0049C57.0677 32.2427 56.9769 32.5509 57.1278 32.9012C57.3209 33.3474 57.7185 33.3832 58.125 33.3653H58.1238Z" fill="black"/>
<path d="M33.1009 61.7851C33.5189 61.7928 33.8718 61.4617 33.882 61.0487C33.8935 60.6383 33.5547 60.2893 33.1354 60.2803C32.7084 60.2714 32.3734 60.5897 32.3657 61.0142C32.3568 61.4399 32.679 61.7762 33.1022 61.7851H33.1009Z" fill="black"/>
</g>
<defs>
<filter id="filter0_f_147_1410" x="0.363281" y="0.547485" width="106.787" height="106.747" filterUnits="userSpaceOnUse" color-interpolation-filters="sRGB">
<feFlood flood-opacity="0" result="BackgroundImageFix"/>
<feBlend mode="normal" in="SourceGraphic" in2="BackgroundImageFix" result="shape"/>
<feGaussianBlur stdDeviation="12" result="effect1_foregroundBlur_147_1410"/>
</filter>
<clipPath id="clip0_147_1410">
<rect width="49" height="49" fill="white" transform="matrix(-1 0 0 1 63 25)"/>
</clipPath>
</defs>
</svg>
