<svg width="107" height="108" viewBox="0 0 107 108" fill="none" xmlns="http://www.w3.org/2000/svg">
<g filter="url(#filter0_f_20_348)">
<circle cx="53.4347" cy="53.92" r="29.3727" fill="#CCF03D"/>
</g>
<g clip-path="url(#clip0_20_348)">
<path d="M20.8496 66.8133C21.0939 66.1136 21.302 65.4004 21.5976 64.7234C21.7243 64.4354 21.7801 64.262 21.5871 63.9785C19.6326 61.1377 18.3251 58.0225 17.6947 54.6299C17.6314 54.2876 17.5213 54.1051 17.1322 54.0071C15.241 53.5291 13.9863 51.872 13.9999 49.957C14.0134 48.0798 15.2863 46.4513 17.1578 45.9793C17.4896 45.8964 17.6163 45.7712 17.6751 45.4501C18.3145 42.0016 19.6416 38.8367 21.6157 35.9371C21.7077 35.8029 21.7002 35.5103 21.6157 35.3611C20.6129 33.5893 20.827 31.5929 22.1918 30.2163C23.5551 28.8411 25.588 28.5938 27.3224 29.6207C27.6014 29.785 27.7657 29.7594 28.0161 29.589C30.8422 27.6499 33.9368 26.3411 37.3105 25.7108C37.698 25.6385 37.8986 25.5118 38.0102 25.0836C38.4868 23.2425 40.12 22.0045 41.984 22C43.8752 21.9955 45.519 23.2349 45.9956 25.1047C46.1026 25.5239 46.3047 25.6324 46.6576 25.6988C50.0116 26.326 53.0926 27.6167 55.9098 29.5362C56.2038 29.7368 56.4044 29.7896 56.7468 29.5815C58.377 28.5863 60.434 28.8547 61.7823 30.1906C63.129 31.5251 63.4155 33.5848 62.4338 35.2208C62.2211 35.5767 62.2588 35.7908 62.4745 36.1074C64.3807 38.909 65.6686 41.973 66.29 45.3083C66.3624 45.6943 66.486 45.8979 66.9158 46.0095C68.7572 46.486 69.9923 48.1175 69.9984 49.9827C70.0044 51.8705 68.7602 53.5201 66.8932 53.9951C66.4739 54.1021 66.3654 54.3057 66.299 54.6585C65.6656 58.0301 64.3671 61.1287 62.4262 63.9559C62.2226 64.253 62.2422 64.4475 62.4202 64.7475C63.402 66.3881 63.138 68.4478 61.8049 69.7853C60.4506 71.1453 58.3845 71.4137 56.7226 70.405C56.4029 70.2105 56.2129 70.2527 55.9324 70.4442C53.1017 72.3787 50.0041 73.6785 46.6305 74.3043C46.2896 74.3676 46.1041 74.4762 46.0046 74.8667C45.5235 76.7606 43.8661 78.0166 41.9539 78.0015C40.0793 77.9864 38.446 76.7108 37.974 74.8426C37.8911 74.5124 37.7659 74.3842 37.4447 74.3239C33.9957 73.683 30.8241 72.3667 27.9452 70.3628C27.6481 70.1562 27.4762 70.2979 27.25 70.4291C24.4479 72.0515 20.9914 70.0823 20.9869 66.8645C20.9401 66.848 20.8918 66.8314 20.8451 66.8148L20.8496 66.8133ZM19.4034 46.014C21.1905 46.7483 22.2416 47.9953 22.2853 49.8877C22.3336 51.9052 21.2447 53.2261 19.4049 53.9966C20.0066 57.338 21.2659 60.3748 23.2007 63.1507C24.9984 62.4254 26.6573 62.5461 28.0432 63.9167C29.4473 65.3054 29.583 66.9776 28.8697 68.7494C30.5467 70.2949 36.1221 72.5898 38.0404 72.5295C38.7477 70.8076 39.9949 69.7581 41.8875 69.7129C43.9053 69.6646 45.2264 70.7518 45.982 72.5582C48.5231 72.3305 53.4802 70.2647 55.1301 68.7478C54.4167 66.9761 54.5525 65.3039 55.9565 63.9167C57.3424 62.5461 59.0013 62.4254 60.7492 63.1296C62.295 61.4559 64.5858 55.8889 64.5315 53.9589C62.8108 53.2517 61.7597 52.0047 61.7159 50.1123C61.6677 48.0948 62.752 46.7725 64.5964 46.0035C63.9916 42.6636 62.7399 39.6253 60.799 36.8508C58.9802 37.5821 57.3078 37.4464 55.9188 36.0426C54.548 34.6569 54.4258 32.9983 55.1527 31.2009C52.3627 29.2603 49.3179 27.9922 45.9956 27.4102C45.0681 29.3447 43.8601 30.2721 42.1152 30.2917C40.0959 30.3143 38.7748 29.2482 38.0072 27.4072C34.6653 28.0073 31.628 29.2633 28.8531 31.2039C29.5875 33.0224 29.4488 34.6961 28.0462 36.0833C26.6603 37.454 25.0014 37.5746 23.2053 36.8508C21.2643 39.6253 20.0111 42.6636 19.4064 46.014H19.4034ZM42.0202 28.4973C43.2946 28.4838 44.3487 27.4268 44.3517 26.1587C44.3563 24.8649 43.278 23.7974 41.978 23.8079C40.7037 23.817 39.6525 24.871 39.648 26.1451C39.642 27.4358 40.7278 28.5124 42.0202 28.4973ZM15.8066 50.0204C15.8171 51.293 16.8743 52.347 18.1441 52.3515C19.4335 52.356 20.5133 51.2674 20.4982 49.9781C20.4832 48.7025 19.4305 47.653 18.1592 47.647C16.8667 47.6425 15.7975 48.7206 15.8081 50.0189L15.8066 50.0204ZM41.9735 76.1921C43.2704 76.2042 44.3517 75.1381 44.3517 73.8444C44.3517 72.5763 43.3021 71.5193 42.0247 71.5012C40.7323 71.4831 39.645 72.5567 39.648 73.8489C39.651 75.12 40.7006 76.1785 41.9735 76.1921ZM68.1932 49.9902C68.1886 48.7161 67.142 47.6606 65.8677 47.647C64.5798 47.6334 63.497 48.7146 63.503 50.0083C63.509 51.2824 64.5572 52.3379 65.83 52.3515C67.1194 52.3651 68.1977 51.287 68.1947 49.9902H68.1932ZM58.8385 35.4711C60.1385 35.4817 61.1805 34.4744 61.2001 33.1898C61.2198 31.8674 60.1973 30.8089 58.8882 30.7983C57.5656 30.7878 56.5266 31.8206 56.5281 33.1385C56.5296 34.4383 57.5415 35.4606 58.8385 35.4711ZM25.1477 69.2002C26.4416 69.1942 27.4641 68.1734 27.4732 66.8781C27.4822 65.5588 26.4462 64.5214 25.1251 64.5274C23.8055 64.5334 22.7845 65.5753 22.7996 66.9022C22.8147 68.1854 23.8568 69.2062 25.1477 69.2002ZM61.2017 66.8645C61.2032 65.5693 60.1897 64.544 58.8943 64.5274C57.5687 64.5123 56.5281 65.5361 56.5281 66.8585C56.5281 68.1553 57.543 69.1866 58.8324 69.1987C60.149 69.2108 61.2001 68.1764 61.2017 66.8645ZM25.1552 35.4711C26.4537 35.4621 27.4671 34.4443 27.4732 33.1445C27.4777 31.8267 26.4371 30.7908 25.1175 30.7983C23.8085 30.8058 22.7815 31.8629 22.7996 33.1837C22.8177 34.4714 23.8583 35.4802 25.1552 35.4711Z" fill="black"/>
<path d="M45.2176 41.4C46.89 42.1208 48.2428 43.22 49.2472 44.7279C51.8607 42.5716 54.343 42.4389 56.3322 44.3253C58.3138 46.204 58.2957 48.7131 56.2613 51.4182C57.8162 52.0862 59.1086 53.0783 60.0768 54.4686C60.8866 55.6311 61.3979 56.9098 61.5562 58.3211C61.6452 59.1097 61.3119 59.4882 60.5111 59.4897C57.2748 59.4942 54.0384 59.4912 50.802 59.4927C50.5969 59.4927 50.3903 59.4927 50.1701 59.4927C50.3029 60.1124 50.4476 60.6945 50.5472 61.284C50.6738 62.038 50.2983 62.5054 49.5398 62.5069C44.5163 62.516 39.4928 62.516 34.4679 62.5069C33.7033 62.5069 33.3263 62.0485 33.4484 61.2946C33.5449 60.705 33.6927 60.123 33.8269 59.4927C33.6113 59.4927 33.4092 59.4927 33.2071 59.4927C30.0084 59.4927 26.8098 59.4927 23.6111 59.4927C22.6505 59.4927 22.3172 59.1489 22.4574 58.2231C22.9204 55.1697 24.5778 52.9833 27.3286 51.6082C27.4598 51.5433 27.594 51.486 27.7312 51.4227C25.6863 48.5684 25.6938 46.1302 27.7418 44.2589C29.7355 42.4374 32.257 42.5973 34.7454 44.7309C35.7558 43.2291 37.0995 42.1208 38.7765 41.4106C36.1962 38.7191 37.2186 35.5797 38.7961 34.2001C40.6857 32.5475 43.4833 32.5852 45.3141 34.3071C46.9489 35.8436 47.6411 38.9332 45.2176 41.4015V41.4ZM48.5354 60.6824C48.0256 57.6984 44.8722 55.4713 41.4715 55.6387C38.6694 55.7759 35.6517 58.3106 35.4934 60.6824H48.5354ZM24.4285 57.6848C27.8308 57.6848 31.1938 57.6848 34.5584 57.6803C34.6594 57.6803 34.7951 57.6426 34.857 57.5717C35.4391 56.9173 36.0092 56.2524 36.5868 55.5874C35.2687 53.4236 32.4697 52.249 29.737 52.7195C27.2124 53.1537 24.982 55.2119 24.43 57.6848H24.4285ZM47.4013 55.5995C47.9306 56.186 48.4554 56.7213 48.9199 57.3063C49.1446 57.5898 49.3588 57.6969 49.7147 57.6954C52.8364 57.6818 55.9567 57.6878 59.0784 57.6863C59.2383 57.6863 59.3966 57.6652 59.561 57.6547C59.0573 55.2527 56.8057 53.1658 54.2767 52.7225C51.5516 52.246 48.8053 53.392 47.4013 55.601V55.5995ZM48.1267 47.6636C48.4313 46.9715 48.1915 46.4559 47.8718 45.9477C46.504 43.7734 44.5314 42.5943 41.9737 42.6078C39.3692 42.6214 37.3891 43.8473 36.0423 46.0879C35.7467 46.5795 35.605 47.068 35.8734 47.6636C36.6199 47.6636 37.3875 47.6787 38.1537 47.6516C38.312 47.6456 38.49 47.5098 38.6182 47.3907C40.6088 45.5285 43.3973 45.527 45.3789 47.3877C45.5071 47.5083 45.6836 47.6456 45.8419 47.6516C46.608 47.6787 47.3772 47.6636 48.1267 47.6636ZM30.9993 44.8033C29.3494 44.7972 28.0072 46.1151 27.9921 47.7541C27.9755 49.4354 29.2996 50.7864 30.9691 50.7924C32.6159 50.7985 33.9642 49.4791 33.9823 47.8416C34.0019 46.1724 32.6642 44.8093 30.9993 44.8033ZM52.9993 50.7939C54.6492 50.8 55.9914 49.4836 56.008 47.8431C56.0246 46.1648 54.6959 44.8093 53.031 44.8048C51.36 44.8002 50.0133 46.1452 50.0178 47.8114C50.0223 49.4535 51.357 50.7879 52.9993 50.7939ZM42.0204 40.7728C43.6703 40.7622 44.9974 39.4368 45.0019 37.7918C45.0064 36.1392 43.6295 34.7655 41.9812 34.7791C40.3494 34.7926 39.0103 36.1392 39.0012 37.7752C38.9922 39.4383 40.3479 40.7833 42.0219 40.7728H42.0204ZM41.9737 47.8129C40.3253 47.828 38.9997 49.1609 38.9997 50.803C38.9997 52.4586 40.3826 53.8307 42.0279 53.8096C43.6642 53.7885 44.9989 52.4405 45.0019 50.806C45.0034 49.1413 43.6446 47.7978 41.9752 47.8129H41.9737ZM45.2583 54.3479L45.3156 54.55C45.5297 54.5244 45.854 54.5817 45.9399 54.4625C46.9383 53.0964 48.2111 52.0862 49.7147 51.4453C49.3316 50.8437 48.9667 50.2602 48.5866 49.6857C48.5248 49.5922 48.3951 49.4881 48.2941 49.4836C47.7572 49.464 47.2203 49.4746 46.6382 49.4746C47.065 51.3971 46.6065 53.0014 45.2583 54.3479ZM34.2839 51.4483C35.8689 52.1073 37.1764 53.1975 38.1838 54.6586C38.3045 54.6163 38.3934 54.5937 38.4734 54.5545C38.5669 54.5078 38.6528 54.446 38.7705 54.3721C37.371 53.0029 36.9472 51.3699 37.3514 49.4746C36.7753 49.4746 36.2685 49.461 35.7648 49.4836C35.6442 49.4897 35.4843 49.5831 35.4165 49.6857C35.0319 50.2571 34.6685 50.8437 34.2839 51.4483Z" fill="black"/>
</g>
<defs>
<filter id="filter0_f_20_348" x="0.0620117" y="0.547241" width="106.745" height="106.745" filterUnits="userSpaceOnUse" color-interpolation-filters="sRGB">
<feFlood flood-opacity="0" result="BackgroundImageFix"/>
<feBlend mode="normal" in="SourceGraphic" in2="BackgroundImageFix" result="shape"/>
<feGaussianBlur stdDeviation="12" result="effect1_foregroundBlur_20_348"/>
</filter>
<clipPath id="clip0_20_348">
<rect width="56" height="56" fill="white" transform="translate(14 22)"/>
</clipPath>
</defs>
</svg>
