<svg width="110" height="108" viewBox="0 0 110 108" fill="none" xmlns="http://www.w3.org/2000/svg">
<g filter="url(#filter0_f_147_1395)">
<ellipse cx="54.8979" cy="53.8821" rx="30.7263" ry="29.3733" fill="#F2C94C"/>
</g>
<g clip-path="url(#clip0_147_1395)">
<path d="M14.8506 35.0692C14.8857 34.9686 14.9295 34.8694 14.9543 34.7659C15.4847 32.611 17.2367 31.2238 19.4957 31.2051C21.3003 31.1893 23.1048 31.2022 24.9094 31.2022C30.6869 31.2022 36.4645 31.2022 42.242 31.2022C42.4246 31.2022 42.6073 31.1922 42.7885 31.2109C43.2882 31.2641 43.617 31.599 43.6228 32.0475C43.6301 32.5061 43.2648 32.8813 42.7651 32.9215C42.5839 32.9359 42.4013 32.9273 42.2186 32.9273C34.7271 32.9273 27.2356 32.9546 19.7456 32.9086C17.8519 32.8971 16.4769 34.1406 16.585 36.0525C16.6625 37.4267 16.5996 38.8096 16.5996 40.2472H17.2849C24.6303 40.2472 31.9757 40.2472 39.3211 40.2472C39.4847 40.2472 39.6498 40.2385 39.8135 40.2515C40.303 40.2903 40.6376 40.618 40.6625 41.0709C40.6888 41.5567 40.3351 42.0053 39.8573 42.0671C39.6776 42.0901 39.4935 42.0771 39.3109 42.0771C31.9845 42.0771 24.6566 42.0771 17.3302 42.0771H16.5996C16.5996 42.2928 16.5996 42.4811 16.5996 42.6708C16.5996 51.4929 16.5996 60.3136 16.5996 69.1357C16.5996 71.0231 17.6619 72.084 19.5688 72.084C33.0745 72.0869 46.5803 72.0869 60.086 72.084C61.9651 72.084 63.0683 70.9843 63.0683 69.1285C63.0712 63.6486 63.0683 58.1688 63.0683 52.6889C63.0683 52.5279 63.0625 52.3655 63.0712 52.2045C63.0975 51.6942 63.3941 51.3621 63.8515 51.3276C64.3118 51.2931 64.7267 51.6266 64.8042 52.1096C64.829 52.2677 64.8188 52.4316 64.8188 52.5941C64.8188 58.0912 64.8217 63.5897 64.8188 69.0868C64.8188 72.0093 62.8959 73.8953 59.9194 73.8953C46.6329 73.8953 33.3448 73.8953 20.0583 73.8982C19.6082 73.8982 19.1479 74.0017 18.7081 73.9427C16.8685 73.7012 15.4278 72.3917 14.9777 70.6163C14.9441 70.4812 14.893 70.3489 14.8491 70.2167C14.8491 58.5009 14.8491 46.785 14.8491 35.0692H14.8506Z" fill="black"/>
<path d="M68.0362 30.3455C67.8302 30.8285 67.6651 31.3172 67.4211 31.7629C67.2238 32.1222 66.9623 32.4629 66.6686 32.7519C66.1557 33.2564 66.1162 33.7395 66.4596 34.372C66.6919 34.7989 66.9257 35.0361 67.4269 35.085C68.0596 35.1454 68.6894 35.2632 69.3104 35.4012C70.2981 35.6212 70.8505 36.3328 70.8505 37.3232C70.8505 37.9873 70.8505 38.6529 70.8505 39.3171C70.8505 40.3147 70.3683 40.9745 69.3688 41.2247C68.6645 41.4 67.9369 41.482 67.2224 41.6185C66.5254 41.7508 66.0256 42.9813 66.4406 43.552C66.8015 44.048 67.1902 44.5252 67.5497 45.0212C68.3504 46.1266 68.1108 47.5397 66.9973 48.3462C66.6452 48.6006 66.2974 48.8637 65.9511 49.1253C65.0949 49.7722 64.037 49.7937 63.1661 49.1569C62.6678 48.7932 62.1783 48.4166 61.7093 48.0198C61.4375 47.7898 61.2154 47.81 60.8764 47.9091C60.0362 48.1593 59.6958 48.6854 59.6739 49.5163C59.6622 49.9432 59.5497 50.3687 59.4708 50.7914C59.272 51.8465 58.3953 52.6156 57.3067 52.6674C56.7792 52.6932 56.2488 52.6904 55.7213 52.6688C54.6357 52.6228 53.7794 51.9184 53.5544 50.8719C53.4229 50.2581 53.3338 49.6342 53.2388 49.0132C53.1058 48.142 51.9281 47.6418 51.215 48.1607C50.746 48.5028 50.2887 48.8608 49.8123 49.19C48.8508 49.8541 47.6556 49.7707 46.8037 48.983C46.4443 48.6509 46.095 48.3088 45.756 47.9566C44.9276 47.0955 44.8355 45.9225 45.5252 44.9478C45.8686 44.462 46.2295 43.9861 46.6079 43.5261C46.8476 43.2343 46.8958 42.9669 46.681 42.6478C46.5918 42.5156 46.5276 42.3589 46.4837 42.205C46.3712 41.8083 46.1199 41.6315 45.7005 41.5883C45.1219 41.528 44.5506 41.4087 43.9749 41.3138C42.7694 41.1168 41.9964 40.2457 41.976 39.0482C41.9672 38.5279 41.9599 38.006 41.9803 37.4856C42.0198 36.4348 42.7255 35.5996 43.7659 35.384C44.3884 35.2546 45.0196 35.1626 45.6494 35.0634C46.5392 34.924 47.0609 33.7222 46.529 33.0236C46.2119 32.6067 45.8963 32.1898 45.5792 31.7729C44.8194 30.771 44.853 29.6066 45.6932 28.6722C46.0308 28.297 46.3975 27.9419 46.776 27.6055C47.5898 26.8839 48.7588 26.8336 49.6428 27.4805C50.1688 27.8657 50.6598 28.3013 51.2004 28.665C51.3655 28.7771 51.6578 28.7857 51.8667 28.7397C52.834 28.5256 53.2812 27.9045 53.2636 26.9285C53.2592 26.664 53.3396 26.3966 53.3878 26.1321C53.6435 24.7751 54.6211 23.97 56.0209 23.9643C56.4213 23.9643 56.8231 23.9557 57.2234 23.9672C58.3515 23.9988 59.275 24.7822 59.4737 25.8819C59.5891 26.5173 59.6855 27.157 59.7937 27.7939C59.9091 28.4724 61.1219 28.9597 61.6932 28.5529C62.209 28.1849 62.7117 27.7953 63.2275 27.4258C64.0326 26.8494 65.0364 26.7876 65.8211 27.3885C66.4479 27.8686 67.0163 28.4451 67.5175 29.0546C67.7849 29.3794 67.8521 29.8625 68.0362 30.3455ZM66.1279 46.5651C66.0139 46.371 65.9394 46.21 65.8357 46.0705C65.4368 45.5344 65.0145 45.0154 64.6287 44.4706C63.7009 43.1624 64.5381 40.6453 66.0709 40.1091C66.1893 40.0674 66.315 40.043 66.4406 40.02C66.7445 39.9639 67.0499 39.9151 67.3553 39.8604C68.9933 39.5614 68.9875 39.56 68.9232 37.9198C68.9086 37.5633 68.8034 37.352 68.4059 37.3031C67.8463 37.2341 67.2969 37.0903 66.7372 37.03C65.6735 36.915 65.0072 36.3529 64.6711 35.371C64.6127 35.2014 64.5352 35.039 64.4549 34.878C63.9931 33.9522 64.0779 33.071 64.6886 32.2416C65.0408 31.7614 65.4032 31.287 65.7714 30.8198C66.011 30.5151 66.0154 30.2362 65.7319 29.9616C65.447 29.6842 65.1621 29.4068 64.8815 29.1236C64.5995 28.8389 64.3365 28.8432 64.0253 29.102C63.5387 29.5074 63.0317 29.8898 62.5246 30.2707C61.9884 30.6732 61.3776 30.8385 60.723 30.6646C60.2525 30.5395 59.8039 30.334 59.348 30.1571C58.575 29.8581 58.1148 29.2874 57.9277 28.5026C57.8415 28.136 57.7948 27.7608 57.7276 27.3899C57.4134 25.6663 57.7977 25.8848 55.8368 25.869C55.4452 25.8661 55.283 26.0544 55.2421 26.4138C55.1763 27.0032 55.0887 27.5883 55.02 28.1777C54.9177 29.0747 54.3975 29.6425 53.5807 29.9832C53.363 30.0738 53.1307 30.1356 52.9246 30.2463C52.0041 30.7408 51.1361 30.6229 50.312 30.0378C49.7802 29.6598 49.2527 29.2731 48.7413 28.8706C48.4622 28.6506 48.2371 28.6377 47.9858 28.9036C47.7009 29.2055 47.4028 29.4988 47.096 29.7805C46.8023 30.0508 46.776 30.3066 47.0331 30.6215C47.3867 31.0542 47.717 31.507 48.056 31.9526C49.0423 33.2478 48.5235 35.6816 47.0813 36.4779C46.8943 36.5814 46.681 36.6548 46.472 36.6964C45.9007 36.81 45.3265 36.9063 44.7522 36.9983C43.912 37.1335 43.9076 37.1291 43.9106 37.9758C43.915 39.6434 43.7674 39.3846 45.2549 39.5456C46.8373 39.7167 47.9011 40.3061 48.4096 41.8701C48.693 42.7427 48.75 43.5118 48.2167 44.2708C47.885 44.7437 47.5241 45.1951 47.1749 45.6551C46.6255 46.3811 46.6225 46.4026 47.2713 47.0351C48.3847 48.119 48.1392 48.1521 49.3403 47.1501C50.6627 46.0461 51.9573 45.7385 53.515 46.6599C54.2017 47.0653 54.7044 47.534 54.8929 48.2944C54.9878 48.6768 55.0331 49.0707 55.1033 49.4602C55.4087 51.1364 55.0623 50.9351 56.9078 50.9624C57.3769 50.9696 57.5581 50.7626 57.6092 50.3371C57.6735 49.8024 57.7685 49.2719 57.8518 48.74C58.0972 47.1616 60.0698 45.8664 61.6523 46.2646C61.9621 46.3422 62.2616 46.4975 62.5392 46.6614C62.8344 46.8353 63.096 47.0668 63.375 47.2666C64.7792 48.2757 64.4008 48.3347 65.6662 47.1056C65.8298 46.9474 65.9643 46.762 66.1308 46.5679L66.1279 46.5651Z" fill="black"/>
<path d="M30.006 44.8443C32.0472 44.8443 34.0885 44.84 36.1298 44.8458C37.9826 44.8515 39.0872 45.9368 39.0931 47.7639C39.1004 50.0999 39.1019 52.4359 39.0931 54.7704C39.0858 56.5832 37.9534 57.6929 36.1196 57.6944C32.037 57.6987 27.9545 57.6972 23.8719 57.6944C22.0104 57.6944 20.8838 56.576 20.8809 54.7345C20.8779 52.4345 20.8779 50.1344 20.8809 47.8358C20.8823 45.9138 21.9724 44.8472 23.9362 44.8443C25.9599 44.8415 27.9822 44.8443 30.006 44.8443ZM29.9855 55.8773C32.0429 55.8773 34.1002 55.8802 36.159 55.8773C36.9364 55.8773 37.2549 55.5668 37.2564 54.7992C37.2622 52.4301 37.2622 50.0611 37.2564 47.6906C37.2535 46.9158 36.9013 46.5737 36.121 46.5722C32.0239 46.5694 27.9267 46.5679 23.8295 46.5722C23.0083 46.5722 22.7263 46.864 22.7263 47.6863C22.7249 50.0381 22.7249 52.3885 22.7263 54.7402C22.7263 55.5855 23.0186 55.8759 23.8675 55.8773C25.9073 55.8802 27.9457 55.8773 29.9855 55.8773Z" fill="black"/>
<path d="M39.904 62.0098C45.9007 62.0098 51.8974 62.0098 57.8941 62.0098C58.0768 62.0098 58.2594 62.0055 58.4406 62.0141C58.9024 62.0386 59.1975 62.2772 59.2677 62.7243C59.3422 63.203 59.0909 63.5235 58.6452 63.6702C58.445 63.7363 58.2156 63.7305 57.9994 63.7305C45.9153 63.7334 33.8299 63.7334 21.7458 63.732C20.9057 63.732 20.4702 63.4488 20.4527 62.8968C20.4337 62.3362 20.9115 62.007 21.7502 62.007C27.801 62.007 33.8532 62.007 39.904 62.007V62.0098Z" fill="black"/>
<path d="M39.9069 67.701C45.8846 67.701 51.8638 67.701 57.8415 67.701C58.0417 67.701 58.2433 67.6967 58.4421 67.7096C58.9272 67.7412 59.2209 67.9943 59.2764 68.4729C59.3275 68.91 59.009 69.3053 58.5385 69.3944C58.3617 69.4289 58.1761 69.4232 57.9949 69.4232C45.9109 69.4232 33.8269 69.4232 21.7429 69.4232C20.9027 69.4232 20.4673 69.1385 20.4512 68.5851C20.4351 68.0244 20.91 67.6981 21.7546 67.6981C27.8054 67.6981 33.8561 67.6981 39.9069 67.6981V67.701Z" fill="black"/>
<path d="M51.4343 58.0337C49.2484 58.0337 47.061 58.0337 44.875 58.0337C44.1386 58.0337 43.7222 57.716 43.7295 57.174C43.7382 56.6508 44.1883 56.3101 44.8911 56.3101C49.3185 56.3101 53.7459 56.3101 58.1733 56.3101C58.8805 56.3101 59.2721 56.6091 59.2809 57.1438C59.2911 57.6915 58.8659 58.0322 58.1572 58.0337C55.9158 58.0365 53.6758 58.0337 51.4343 58.0337Z" fill="black"/>
<path d="M21.7385 37.5015C21.4112 37.5015 21.081 37.5259 20.7566 37.4957C20.2613 37.4497 19.9281 37.0889 19.931 36.6519C19.934 36.2307 20.2978 35.8239 20.761 35.8052C21.4331 35.7779 22.1082 35.7808 22.7804 35.8052C23.2728 35.8224 23.5387 36.1286 23.5913 36.5944C23.641 37.0314 23.3093 37.431 22.8286 37.4842C22.4691 37.5245 22.1024 37.4928 21.7385 37.4928C21.7385 37.4957 21.7385 37.4986 21.7385 37.5029V37.5015Z" fill="black"/>
<path d="M26.0666 35.8023C26.4114 35.8023 26.7592 35.7793 27.1026 35.808C27.5628 35.8468 27.8317 36.1286 27.8668 36.5757C27.9033 37.0515 27.6622 37.4238 27.1859 37.4612C26.429 37.5201 25.6604 37.5144 24.9035 37.4583C24.4491 37.4252 24.2138 37.0687 24.2372 36.6159C24.2606 36.1674 24.5323 35.8742 24.978 35.8167C25.3345 35.7692 25.7042 35.8066 26.0666 35.8066C26.0666 35.8052 26.0666 35.8023 26.0666 35.8008V35.8023Z" fill="black"/>
<path d="M30.3595 37.5014C30.0147 37.5014 29.6655 37.5273 29.3235 37.4957C28.8238 37.4483 28.5067 37.0932 28.514 36.6461C28.5199 36.2134 28.8676 35.8267 29.3425 35.8066C30.0147 35.7778 30.6883 35.7778 31.3604 35.8066C31.8455 35.8267 32.1202 36.1229 32.1553 36.6015C32.1904 37.0673 31.8894 37.408 31.397 37.4943C31.3429 37.5029 31.2888 37.5115 31.2348 37.5115C30.944 37.5129 30.6532 37.5115 30.3624 37.5115C30.3624 37.5086 30.3624 37.5058 30.3624 37.5014H30.3595Z" fill="black"/>
<path d="M45.0679 52.331C44.9233 52.331 44.7771 52.3368 44.6325 52.331C44.105 52.3037 43.7441 51.9759 43.7295 51.5159C43.7163 51.0861 44.0933 50.6678 44.5784 50.6218C44.9013 50.5916 45.2316 50.5959 45.5574 50.6175C46.0674 50.652 46.4385 51.0257 46.4385 51.4699C46.4385 51.9199 46.0235 52.3051 45.5033 52.3324C45.3587 52.3396 45.2126 52.3324 45.0679 52.3324V52.331Z" fill="black"/>
<path d="M62.3494 38.3094C62.3333 41.5036 59.7353 44.0509 56.4988 44.0494C53.2535 44.048 50.6102 41.436 50.6321 38.2533C50.6555 35.0879 53.2929 32.5003 56.5002 32.4989C59.7368 32.4975 62.3669 35.1094 62.3494 38.3094ZM52.4776 38.3036C52.4849 40.4887 54.3201 42.2769 56.5265 42.2511C58.7022 42.2252 60.5229 40.4211 60.5258 38.2864C60.5302 36.1315 58.673 34.3087 56.4812 34.3145C54.2588 34.3202 52.4688 36.1028 52.4761 38.3022L52.4776 38.3036Z" fill="black"/>
</g>
<defs>
<filter id="filter0_f_147_1395" x="0.171631" y="0.508789" width="109.453" height="106.747" filterUnits="userSpaceOnUse" color-interpolation-filters="sRGB">
<feFlood flood-opacity="0" result="BackgroundImageFix"/>
<feBlend mode="normal" in="SourceGraphic" in2="BackgroundImageFix" result="shape"/>
<feGaussianBlur stdDeviation="12" result="effect1_foregroundBlur_147_1395"/>
</filter>
<clipPath id="clip0_147_1395">
<rect width="56" height="50" fill="white" transform="translate(14.8506 23.9614)"/>
</clipPath>
</defs>
</svg>
