<svg width="107" height="108" viewBox="0 0 107 108" fill="none" xmlns="http://www.w3.org/2000/svg">
<g filter="url(#filter0_f_147_1437)">
<circle cx="53.4347" cy="53.92" r="29.3727" fill="#6FCF97"/>
</g>
<g clip-path="url(#clip0_147_1437)">
<path d="M57.7134 67.7417C57.7134 69.065 57.7147 70.3228 57.7134 71.5805C57.7107 73.3613 56.6447 74.4566 54.8806 74.4661C52.7975 74.477 50.7144 74.4688 48.6299 74.4688C48.4479 74.4688 48.2659 74.4688 48.0337 74.4688C48.0337 75.6515 48.0337 76.7727 48.0337 77.8925C48.0337 78.8293 47.868 78.9973 46.9432 78.9987C43.0648 78.9987 39.1851 78.9987 35.3067 78.9987C34.4172 78.9987 34.2502 78.8239 34.2488 77.913C34.2488 76.7904 34.2488 75.6679 34.2488 74.4688C33.999 74.4688 33.7844 74.4688 33.5712 74.4688C28.0157 74.4688 22.4589 74.4716 16.9034 74.4675C15.3756 74.4675 14.3273 73.67 14.0516 72.3098C14.0054 72.079 14.0014 71.8359 14.0014 71.5983C14 60.5954 14 49.5911 14 38.5868C14 36.862 15.1027 35.7476 16.8246 35.7285C17.619 35.7203 18.4148 35.7271 19.2839 35.7271C19.2839 35.5346 19.2839 35.3721 19.2839 35.2082C19.2839 34.0324 19.2744 32.8579 19.2866 31.6821C19.3016 30.251 20.3092 29.1571 21.7215 29.0232C21.9238 29.0041 22.1275 29 22.3299 29C34.864 29 47.3995 28.9987 59.9337 29.0041C60.3193 29.0041 60.72 29.0232 61.0893 29.1257C62.2463 29.4439 62.9905 30.4695 62.9946 31.719C63.0027 34.3929 62.9973 37.0682 62.9973 39.7421C62.9973 48.0711 62.9973 56.4015 62.9973 64.7305C62.9973 66.6793 61.9571 67.7322 60.026 67.7417C59.2683 67.7458 58.5105 67.7417 57.7134 67.7417ZM20.6079 38.8517V39.2286C20.6079 47.7966 20.6079 56.3646 20.6093 64.9326C20.6093 65.8899 21.1226 66.4075 22.0963 66.4102C26.2123 66.4171 30.3284 66.4143 34.4444 66.4102C34.5422 66.4102 34.6399 66.3734 34.8599 66.3283C34.6073 66.2368 34.4824 66.1904 34.3575 66.1467C33.377 65.8025 33.0212 64.9422 33.5196 64.0368C35.7399 60.0027 37.9656 55.9713 40.1995 51.9454C40.6721 51.0933 41.5982 51.1056 42.083 51.955C42.504 52.6924 42.9073 53.4408 43.3188 54.1837C45.1168 57.4407 46.9174 60.6978 48.7127 63.9576C49.2654 64.9613 48.9381 65.7848 47.8558 66.1631C47.7417 66.2027 47.6358 66.2682 47.4117 66.3761C47.6643 66.3952 47.7798 66.4116 47.8952 66.4116C51.9773 66.4116 56.0594 66.4157 60.1415 66.4102C61.1871 66.4089 61.6746 65.894 61.6746 64.822C61.6746 56.34 61.6746 47.8567 61.6746 39.3748V38.8531H60.9508C52.9387 38.8531 44.928 38.8476 36.9159 38.8626C36.2546 38.8626 35.7521 38.6646 35.3081 38.1716C34.5571 37.3386 33.7573 36.5534 32.9941 35.7312C32.77 35.4895 32.5432 35.3816 32.2064 35.3844C30.4112 35.4008 28.6159 35.3912 26.8207 35.3939C26.6577 35.3939 26.4961 35.4103 26.3047 35.4199C26.3047 36.0426 26.3047 36.6189 26.3047 37.1966C26.3047 38.4571 25.9149 38.8531 24.6778 38.8545C23.3429 38.8545 22.008 38.8545 20.6079 38.8545V38.8517ZM34.2488 73.1415C34.2488 72.3234 34.2325 71.5915 34.2529 70.8608C34.2774 69.9718 34.8206 69.4447 35.6992 69.4242C35.9993 69.4174 36.3008 69.4242 36.6742 69.4242C36.6416 69.0992 36.6321 68.8329 36.5846 68.5734C36.4365 67.7636 36.4189 67.7554 35.6123 67.7554C31.1757 67.7554 26.7392 67.7568 22.3013 67.7554C20.3295 67.754 19.2839 66.7038 19.2839 64.7373C19.2839 55.7282 19.2839 46.7191 19.2839 37.7114C19.2839 37.5134 19.2839 37.3154 19.2839 37.0668C18.4976 37.0668 17.7725 37.0668 17.0473 37.0668C15.779 37.0682 15.3213 37.5216 15.3213 38.778C15.3213 49.6607 15.3213 60.5421 15.3213 71.4248C15.3213 72.7004 15.7599 73.1428 17.0256 73.1442C22.5634 73.1442 28.1013 73.1442 33.6378 73.1442H34.2461L34.2488 73.1415ZM24.9861 37.4943C24.9861 36.8101 24.9833 36.1519 24.9861 35.4923C24.9915 34.5199 25.4491 34.0624 26.4269 34.0611C28.4421 34.057 30.4574 34.0693 32.474 34.0529C33.0076 34.0488 33.411 34.2372 33.7708 34.6223C34.5693 35.48 35.3991 36.3089 36.1962 37.1679C36.4352 37.426 36.6783 37.5312 37.0313 37.5312C45.0597 37.5216 53.0881 37.5243 61.1165 37.5243H61.676C61.676 35.622 61.676 33.8002 61.676 31.9785C61.676 30.8177 61.2034 30.3452 60.0355 30.3438C57.8342 30.3411 55.6316 30.3438 53.4303 30.3438C43.0811 30.3438 32.7333 30.3438 22.3842 30.3438C21.014 30.3438 20.6093 30.7562 20.6093 32.1492C20.6093 33.7497 20.6093 35.3516 20.6093 36.9521C20.6093 37.131 20.6093 37.3113 20.6093 37.5257C22.0039 37.5257 23.3225 37.5257 24.6411 37.5257C24.7389 37.5257 24.8367 37.5107 24.9888 37.497L24.9861 37.4943ZM41.9404 54.4336C41.8956 54.4432 41.8522 54.4541 41.8074 54.4637C41.8074 55.4456 41.7965 56.4288 41.8209 57.4107C41.8237 57.5281 41.9988 57.6729 42.1265 57.7507C42.982 58.2765 43.3813 59.1929 43.1341 60.1037C42.8883 61.0064 42.0667 61.6455 41.1515 61.6469C40.1764 61.6483 39.4309 61.0802 39.1647 60.1351C38.8972 59.1819 39.287 58.2861 40.1588 57.7357C40.3163 57.636 40.4535 57.3807 40.4616 57.1908C40.4956 56.3919 40.4779 55.5917 40.4738 54.7914C40.4738 54.674 40.4399 54.5565 40.4032 54.3189C38.4409 57.8764 36.5438 61.3164 34.6399 64.766C36.8494 65.5717 37.9561 67.1176 38.024 69.3955H44.2775C44.2911 68.3276 44.5546 67.3621 45.1779 66.5099C45.8012 65.6578 46.6513 65.1375 47.6603 64.8138C45.7374 61.3246 43.8389 57.8791 41.9404 54.4336ZM35.6231 77.618H46.6812V70.7803H35.6231V77.618ZM56.3839 67.8264C56.3092 67.78 56.2943 67.7622 56.2794 67.7622C52.9279 67.7554 49.5764 67.7472 46.2262 67.7499C46.1162 67.7499 45.9343 67.8373 45.9098 67.9193C45.774 68.389 45.6762 68.8711 45.5486 69.416C45.922 69.416 46.1407 69.4092 46.358 69.4174C46.5929 69.4283 46.8373 69.4187 47.0614 69.4802C47.6684 69.6454 48.0188 70.1808 48.0296 70.9319C48.0405 71.6556 48.0323 72.3794 48.0323 73.1237C50.4645 73.1237 52.8165 73.136 55.1672 73.1155C55.8326 73.11 56.3608 72.5747 56.3758 71.9001C56.4043 70.5399 56.3839 69.1784 56.3839 67.825V67.8264ZM41.1813 58.8159C40.7834 58.7941 40.4358 59.1164 40.4141 59.5261C40.391 59.9781 40.6517 60.2813 41.0876 60.3086C41.4882 60.3332 41.84 60.0163 41.8644 59.6066C41.8888 59.1929 41.5819 58.8378 41.1813 58.8159Z" fill="black"/>
<path d="M52.5001 56.1722C51.7233 52.5464 48.3446 48.7431 43.9937 47.7612C43.9665 47.9046 43.938 48.0466 43.9135 48.19C43.8008 48.8305 43.3473 49.2716 42.7009 49.2866C41.6851 49.3112 40.668 49.3099 39.6522 49.2894C38.9623 49.2757 38.4816 48.8018 38.3961 48.1204C38.3811 48.007 38.3662 47.8923 38.3513 47.7776C34.3805 48.5574 30.6529 52.2432 29.8286 56.1531C29.8734 56.1681 29.9196 56.194 29.9671 56.1968C31.3468 56.3115 31.6401 56.6269 31.6401 57.9994C31.6401 58.7833 31.651 59.5671 31.636 60.3497C31.617 61.3097 31.1363 61.7781 30.1762 61.7849C29.2786 61.7918 28.381 61.7945 27.4833 61.7849C26.5911 61.774 26.0982 61.281 26.0901 60.392C26.0805 59.4716 26.0819 58.5525 26.0901 57.632C26.0968 56.7307 26.564 56.2514 27.4589 56.2063C28.3674 56.1613 28.362 56.1585 28.6471 55.2859C29.7417 51.9305 31.837 49.4041 34.887 47.6697C34.9984 47.6069 35.107 47.5386 35.2021 47.3802C35.0595 47.3802 34.9183 47.3802 34.7757 47.3802C32.9967 47.3802 31.2178 47.3843 29.4402 47.3761C29.1604 47.3748 28.9921 47.4335 28.8549 47.7216C28.3402 48.8059 27.095 49.3549 25.9054 49.064C24.7416 48.78 23.9159 47.697 23.9309 46.4721C23.9458 45.2471 24.7674 44.2256 25.9366 43.9771C27.1995 43.7094 28.4366 44.2584 28.8698 45.411C29.083 45.9763 29.375 46.061 29.8978 46.0569C32.5065 46.0323 35.1152 46.046 37.7239 46.046H38.3662C38.3662 45.7155 38.3594 45.4178 38.3662 45.1201C38.3906 44.2215 38.8605 43.7326 39.7568 43.7149C40.6707 43.6971 41.586 43.6971 42.5012 43.7149C43.4192 43.7312 43.8905 44.2283 43.9068 45.157C43.9108 45.426 43.9068 45.6964 43.9068 46.005C44.0887 46.0214 44.234 46.0446 44.3793 46.0446C47.1578 46.0474 49.9362 46.0392 52.7133 46.0542C53.0568 46.0556 53.2008 45.9586 53.3162 45.624C53.7236 44.4468 54.8752 43.7599 56.0729 43.9279C57.4105 44.115 58.3204 45.0641 58.4059 46.3587C58.4874 47.6042 57.7432 48.6707 56.5509 49.0217C55.3206 49.3836 54.1174 48.8701 53.4751 47.738C53.3868 47.5823 53.1723 47.3993 53.0147 47.398C51.1013 47.3748 49.1866 47.3843 47.2718 47.3857C47.2284 47.3857 47.1849 47.4103 47.0749 47.443C47.2311 47.5414 47.3343 47.6124 47.4416 47.6738C50.6437 49.4983 52.7784 52.1777 53.7969 55.7379C53.9028 56.1066 54.0468 56.2487 54.4162 56.2118C54.6497 56.1872 54.8915 56.205 55.1264 56.2295C55.7932 56.3005 56.2657 56.7676 56.282 57.434C56.3065 58.4719 56.3065 59.5125 56.2834 60.5504C56.2671 61.2551 55.7524 61.7631 55.0436 61.7781C54.0278 61.8 53.0107 61.7986 51.9949 61.7781C51.3173 61.7645 50.8026 61.3302 50.7727 60.6528C50.7225 59.5494 50.7238 58.4391 50.7727 57.3357C50.8012 56.6952 51.2724 56.3005 51.9053 56.2268C52.1022 56.2036 52.2991 56.1913 52.5001 56.1735V56.1722ZM39.6957 47.9429H42.5882V45.0955H39.6957V47.9429ZM52.0438 60.4507H54.9268V57.5747H52.0438V60.4507ZM27.4005 57.5733V60.4412H30.2862V57.5733H27.4005ZM27.8147 46.4939C27.8038 45.7756 27.2213 45.202 26.5124 45.2102C25.8022 45.2184 25.2386 45.8056 25.2495 46.5267C25.2603 47.2518 25.832 47.8049 26.5572 47.7926C27.319 47.779 27.8269 47.2546 27.8147 46.4939ZM55.7755 45.2102C55.0721 45.202 54.4759 45.7838 54.4664 46.4912C54.4569 47.1931 55.0436 47.7885 55.7483 47.794C56.521 47.7995 57.0208 47.3078 57.0289 46.5294C57.0371 45.792 56.4925 45.2198 55.7755 45.2102Z" fill="black"/>
<path d="M51.9067 33.8823C51.9216 32.8622 52.7527 32.036 53.7644 32.0374C54.791 32.0374 55.6411 32.9018 55.633 33.9342C55.6235 34.9707 54.768 35.8147 53.7386 35.801C52.7011 35.7874 51.8918 34.9393 51.9067 33.8837V33.8823ZM54.3741 34.064L54.3796 33.8263C54.1745 33.6788 53.9668 33.4153 53.7631 33.418C53.5838 33.4207 53.3108 33.6939 53.2552 33.896C53.1669 34.2155 53.4113 34.4818 53.7345 34.4477C53.9586 34.4231 54.1609 34.1992 54.3741 34.0626V34.064Z" fill="black"/>
<path d="M51.1082 33.9069C51.1136 34.953 50.2825 35.7997 49.2477 35.801C48.2211 35.801 47.3656 34.9393 47.3737 33.911C47.3819 32.8991 48.2129 32.0565 49.2192 32.0387C50.2445 32.021 51.1027 32.8704 51.1082 33.9083V33.9069ZM49.8534 34.0913L49.8724 33.8509C49.6728 33.6952 49.4745 33.4235 49.2722 33.4194C49.0902 33.4153 48.801 33.6734 48.7385 33.8728C48.6407 34.1828 48.8648 34.4696 49.1934 34.4477C49.4202 34.4327 49.6348 34.2169 49.8534 34.0913Z" fill="black"/>
<path d="M60.1455 33.9083C60.1523 34.9421 59.3036 35.7997 58.2742 35.7997C57.2503 35.7997 56.3934 34.9325 56.4015 33.9056C56.4097 32.8977 57.2462 32.0524 58.2498 32.036C59.271 32.0196 60.1374 32.8772 60.1441 33.9083H60.1455ZM58.4127 33.3129C58.338 33.3101 58.2633 33.306 58.1886 33.3033C58.0366 33.5082 57.7677 33.713 57.765 33.9192C57.7636 34.1008 58.0311 34.389 58.2321 34.4463C58.5472 34.5365 58.8188 34.2852 58.793 33.967C58.7739 33.7403 58.5472 33.53 58.4127 33.3129Z" fill="black"/>
</g>
<defs>
<filter id="filter0_f_147_1437" x="0.0620117" y="0.547241" width="106.745" height="106.745" filterUnits="userSpaceOnUse" color-interpolation-filters="sRGB">
<feFlood flood-opacity="0" result="BackgroundImageFix"/>
<feBlend mode="normal" in="SourceGraphic" in2="BackgroundImageFix" result="shape"/>
<feGaussianBlur stdDeviation="12" result="effect1_foregroundBlur_147_1437"/>
</filter>
<clipPath id="clip0_147_1437">
<rect width="49" height="50" fill="white" transform="translate(14 29.0001)"/>
</clipPath>
</defs>
</svg>
