<svg width="108" height="108" viewBox="0 0 108 108" fill="none" xmlns="http://www.w3.org/2000/svg">
<g filter="url(#filter0_f_20_347)">
<circle cx="53.7257" cy="53.92" r="29.3727" fill="#56CCF2"/>
</g>
<g clip-path="url(#clip0_20_347)">
<path d="M61.2331 19.0001C61.6713 19.1711 62.1373 19.2938 62.5404 19.5232C63.9762 20.34 64.6584 21.9693 64.2917 23.5926C63.9543 25.0845 62.6134 26.2856 61.1192 26.4346C59.4146 26.6056 57.878 25.7406 57.2485 24.1917C57.0834 23.784 56.8965 23.6569 56.4656 23.6642C54.6441 23.6905 52.8212 23.6759 50.9998 23.6759C50.8216 23.6759 50.6434 23.6759 50.3951 23.6759V25.6164C50.3951 26.6553 50.4243 27.6956 50.3819 28.7331C50.3629 29.1948 50.547 29.3994 50.9297 29.5893C52.757 30.4938 54.3783 31.6891 55.8258 33.124C56.3575 33.6514 56.4188 34.1819 56.0011 34.6056C55.595 35.0177 55.04 34.9665 54.52 34.4522C52.9907 32.9369 51.2554 31.7183 49.2864 30.843C48.7475 30.6034 48.5181 30.241 48.5225 29.658C48.5371 27.6898 48.5211 25.7201 48.5313 23.7519C48.5371 22.5581 49.2777 21.8202 50.4886 21.8129C52.5116 21.7998 54.5331 21.81 56.5561 21.8085C56.8059 21.8085 57.0323 21.8494 57.155 21.5017C57.6166 20.2012 58.547 19.4019 59.8922 19.0863C59.9405 19.0746 59.9813 19.0308 60.0266 19.0016C60.4268 19.0016 60.8285 19.0016 61.2287 19.0016L61.2331 19.0001ZM60.6343 24.5906C61.6699 24.5965 62.5185 23.7621 62.52 22.7349C62.5214 21.7165 61.6596 20.8588 60.6386 20.8661C59.6249 20.8719 58.8099 21.6843 58.7968 22.7042C58.7836 23.7548 59.5914 24.5848 60.6343 24.5921V24.5906Z" fill="black"/>
<path d="M23.9499 19.0001C24.5313 19.2851 25.1827 19.4838 25.6706 19.8827C26.1292 20.2582 26.4798 20.8135 26.7544 21.3526C26.9341 21.7062 27.1006 21.8173 27.476 21.8144C29.4259 21.7983 31.3759 21.8041 33.3259 21.8085C34.7456 21.8114 35.4467 22.5084 35.4497 23.917C35.454 25.4264 35.4497 26.9358 35.4497 28.4715C36.3041 28.2494 37.1075 28.0273 37.9167 27.8359C38.5536 27.6854 39.0385 27.9587 39.1524 28.4876C39.2737 29.0458 38.9786 29.4476 38.3476 29.6405C37.2536 29.9736 36.1552 30.3024 35.0743 30.6765C34.1745 30.9877 33.5932 30.6268 33.5873 29.6639C33.5756 27.9324 33.5844 26.2009 33.5844 24.4693C33.5844 24.2341 33.5844 23.9988 33.5844 23.7168C33.4004 23.7022 33.2441 23.6774 33.0892 23.6774C31.1948 23.6745 29.2988 23.6847 27.4044 23.6672C27.0611 23.6642 26.9063 23.7636 26.7763 24.0924C26.1029 25.783 24.3735 26.7356 22.6441 26.4069C20.9293 26.0796 19.6542 24.614 19.5855 22.8913C19.5154 21.1086 20.6868 19.5583 22.4411 19.1068C22.5448 19.0805 22.6441 19.0367 22.7464 19.0001C23.1466 19.0001 23.5483 19.0001 23.9485 19.0001L23.9499 19.0001ZM25.1827 22.7057C25.1696 21.6653 24.3239 20.8427 23.2883 20.8661C22.2863 20.888 21.4595 21.7311 21.4595 22.732C21.4595 23.7592 22.3067 24.595 23.3408 24.5906C24.3867 24.5862 25.1944 23.7577 25.1827 22.7072V22.7057Z" fill="black"/>
<path d="M14 37.0473C14.0409 36.9289 14.0891 36.8135 14.1227 36.6937C14.5682 35.1273 15.8988 34.0445 17.4924 33.9569C19.14 33.8648 20.5729 34.7766 21.1923 36.3094C21.239 36.4263 21.2828 36.5461 21.35 36.7258C22.6047 36.7258 23.8726 36.7404 25.1389 36.7083C25.2938 36.7039 25.4778 36.4745 25.5859 36.3094C26.772 34.4946 28.2078 32.9121 29.9138 31.5751C30 31.5079 30.0833 31.4378 30.1738 31.375C30.6748 31.0243 31.2036 31.0769 31.5293 31.5079C31.8521 31.9361 31.7674 32.4577 31.3 32.8551C31.0093 33.1021 30.704 33.3344 30.4134 33.5813C28.9878 34.7956 27.7871 36.2071 26.8406 37.8203C26.5047 38.393 26.0869 38.6239 25.4223 38.6034C24.077 38.5625 22.7303 38.5918 21.3705 38.5918C21.3091 38.7408 21.2536 38.8738 21.201 39.0067C20.6051 40.4942 19.1663 41.4571 17.6224 41.4002C16.0026 41.3417 14.6252 40.2765 14.1446 38.7116C14.0979 38.5582 14.0482 38.4047 14 38.2498C14 37.8495 14 37.4477 14 37.0473ZM19.587 37.6683C19.5885 36.6206 18.7705 35.8082 17.7188 35.8126C16.6993 35.817 15.8799 36.6235 15.8653 37.6376C15.8506 38.6604 16.6949 39.5269 17.7159 39.5371C18.7384 39.5474 19.5855 38.7013 19.587 37.6668V37.6683Z" fill="black"/>
<path d="M14 55.6409C14.0438 55.524 14.0935 55.41 14.13 55.2917C14.6135 53.7224 15.9865 52.6572 17.6078 52.5958C19.1488 52.5359 20.5978 53.4988 21.1966 54.9804C21.2507 55.1149 21.3018 55.2508 21.3544 55.3837H24.1983C23.839 54.3507 23.4738 53.3468 23.1422 52.3313C22.9947 51.8827 22.8968 51.4181 22.8034 50.9549C22.6982 50.4347 22.9816 49.97 23.446 49.8458C23.9602 49.7085 24.4743 49.9613 24.5941 50.4975C25.0133 52.3956 25.6969 54.1841 26.6317 55.8893C27.0188 56.5965 26.5383 57.2599 25.6779 57.2701C24.4393 57.2847 23.2007 57.2745 21.962 57.2745C21.7634 57.2745 21.5633 57.2745 21.35 57.2745C20.9878 58.3835 20.3422 59.2281 19.2832 59.7161C17.3025 60.6309 14.9626 59.6592 14.2162 57.6106C14.149 57.4265 14.073 57.2467 14.0015 57.0641C14.0015 56.5907 14.0015 56.1158 14.0015 55.6424L14 55.6409ZM19.587 56.3335C19.587 55.299 18.7427 54.4544 17.7188 54.4617C16.6978 54.469 15.8506 55.3355 15.8653 56.3583C15.8799 57.3739 16.6964 58.1804 17.7159 58.1877C18.7661 58.1951 19.587 57.3812 19.587 56.3335Z" fill="black"/>
<path d="M14 46.6721C14.3038 46.1987 14.7406 46.0511 15.2927 46.0555C17.4574 46.0745 19.6221 46.0628 21.7882 46.0628C21.9839 46.0628 22.1782 46.0628 22.3126 46.0628C22.5726 44.6381 22.815 43.2836 23.0707 41.9305C23.1247 41.6456 23.2167 41.368 23.3044 41.0904C23.5162 40.4211 23.9704 40.1084 24.4977 40.2575C25.0718 40.4197 25.2733 40.9209 25.0966 41.6237C24.8629 42.5574 24.6219 43.4911 24.4656 44.4394C24.3385 45.208 24.3151 45.9941 24.2757 46.7744C24.2348 47.597 23.931 47.9302 23.0984 47.9316C20.4605 47.9389 17.8225 47.9273 15.1846 47.9404C14.6631 47.9433 14.2804 47.7519 14 47.3267V46.6706L14 46.6721Z" fill="black"/>
<path d="M42.3177 19.0001C42.8128 19.3172 42.9399 19.7789 42.9341 20.3488C42.9136 22.4953 42.9253 24.6432 42.9253 26.7912C42.9253 26.987 42.9253 27.1842 42.9253 27.3932C43.8937 27.5188 44.811 27.6226 45.7225 27.7629C46.447 27.8739 46.8209 28.4496 46.5755 29.0443C46.3929 29.4871 46.0409 29.6639 45.5691 29.6186C44.3582 29.5002 43.1473 29.3906 41.9379 29.2635C41.3712 29.2036 41.0717 28.8471 41.0586 28.21C41.0425 27.3727 41.0528 26.5355 41.0528 25.6982C41.0528 23.8966 41.0644 22.0949 41.0455 20.2933C41.0396 19.7409 41.1857 19.3026 41.6604 19.0001H42.3162H42.3177Z" fill="black"/>
<path d="M57.8459 46.9979C57.8459 55.7533 50.7588 62.8533 42.0066 62.8635C33.2339 62.8722 26.1205 55.7533 26.1337 46.9789C26.1468 38.2322 33.2558 31.1353 42.0037 31.1382C50.753 31.1411 57.8459 38.241 57.8459 46.9979ZM55.9836 47.0198C55.9938 39.3048 49.7451 33.0231 42.0373 33.0012C34.3104 32.9793 28.0048 39.258 27.9946 46.9833C27.9843 54.694 34.2359 60.9756 41.9438 61.0005C49.6765 61.0253 55.9734 54.7554 55.9836 47.0198Z" fill="black"/>
<path d="M33.5845 70.2659C33.5845 68.4847 33.5976 66.7357 33.564 64.9881C33.5611 64.8113 33.3142 64.5761 33.1244 64.4782C30.8837 63.3151 28.9206 61.8027 27.2525 59.9047C26.7778 59.364 26.7515 58.7912 27.1868 58.4142C27.6235 58.0358 28.1435 58.1001 28.6182 58.6393C30.3404 60.5973 32.3882 62.1125 34.7603 63.1894C35.2292 63.4013 35.4541 63.7359 35.4512 64.2546C35.4439 66.2594 35.457 68.2641 35.4439 70.2703C35.4366 71.432 34.6931 72.1772 33.5173 72.1874C31.4943 72.2035 29.4727 72.1991 27.4497 72.1874C27.1006 72.1845 26.9151 72.2561 26.772 72.6257C26.1132 74.3222 24.3692 75.2763 22.6486 74.9315C20.8403 74.5706 19.5797 73.0641 19.5812 71.2654C19.5812 69.49 20.8359 67.9675 22.5945 67.6036C24.3356 67.2442 26.0767 68.2086 26.7968 69.9036C26.8698 70.076 27.0889 70.3039 27.2438 70.3068C29.2843 70.3331 31.3248 70.3229 33.3654 70.3185C33.4165 70.3185 33.4676 70.2952 33.583 70.2659H33.5845ZM25.1828 71.2727C25.1857 70.2221 24.3707 69.4068 23.3205 69.4111C22.2892 69.4141 21.4435 70.2688 21.4596 71.2902C21.4756 72.2926 22.3097 73.124 23.3102 73.1357C24.3444 73.1474 25.1799 72.316 25.1828 71.2741V71.2727Z" fill="black"/>
<path d="M59.6863 38.5917C60.7934 40.9852 61.4011 43.4224 61.5559 46.0628C61.7823 46.0628 61.9912 46.0628 62.2001 46.0628C64.3487 46.0628 66.4973 46.0628 68.6474 46.0657C68.865 46.0657 69.09 46.0657 69.2974 46.1212C69.7385 46.2352 69.9707 46.5552 69.9693 47.0023C69.9693 47.448 69.7356 47.768 69.293 47.8805C69.0856 47.9331 68.8606 47.9346 68.643 47.9346C66.1117 47.9375 63.5804 47.9375 61.0491 47.936C59.9989 47.936 59.7272 47.6584 59.7053 46.6151C59.6454 43.722 58.9121 41.0085 57.5274 38.4705C56.9198 37.3556 57.2908 36.7287 58.5616 36.7273C59.9083 36.7258 61.255 36.7273 62.628 36.7273C62.945 35.7702 63.4738 34.9914 64.3443 34.4697C66.157 33.3841 68.5218 34.0212 69.5325 35.8754C70.5462 37.734 69.813 40.0675 67.92 41.0042C66.0182 41.9452 63.7016 41.1357 62.8807 39.1864C62.6733 38.694 62.4352 38.5464 61.9298 38.5801C61.2229 38.6268 60.5115 38.5917 59.6863 38.5917ZM66.2344 35.8126C65.1842 35.8199 64.3823 36.6411 64.394 37.6946C64.4056 38.7043 65.228 39.5284 66.2358 39.5386C67.2525 39.5488 68.1157 38.6896 68.1157 37.6668C68.1157 36.6323 67.2773 35.8053 66.2358 35.8126H66.2344Z" fill="black"/>
<path d="M50.3951 70.3243C51.2554 70.3243 52.0515 70.3243 52.849 70.3243C54.0701 70.3243 55.2897 70.3126 56.5108 70.3316C56.8818 70.3374 57.0717 70.2483 57.2207 69.8669C57.8473 68.2698 59.4321 67.3697 61.1601 67.5699C62.7434 67.7526 64.0478 69.0326 64.3224 70.6735C64.6306 72.5087 63.5263 74.2739 61.7268 74.8218C59.9258 75.3712 57.9802 74.4901 57.2587 72.744C57.0717 72.2925 56.8497 72.1756 56.3852 72.1814C54.4732 72.2107 52.5598 72.1975 50.6478 72.1917C49.2353 72.1887 48.5342 71.4859 48.5313 70.0773C48.5284 68.2012 48.5459 66.3235 48.5225 64.4474C48.5152 63.803 48.7372 63.3968 49.3449 63.1294C51.3313 62.2512 53.0637 60.9975 54.6061 59.4706C55.0619 59.0191 55.6213 59.0205 56.004 59.4297C56.3618 59.811 56.3239 60.3575 55.909 60.7973C55.8594 60.8499 55.8039 60.8981 55.7527 60.9493C54.3023 62.3812 52.6649 63.556 50.8406 64.4591C50.4886 64.6329 50.3834 64.8317 50.3878 65.2057C50.4068 66.8802 50.3965 68.5562 50.3965 70.3257L50.3951 70.3243ZM60.6474 69.411C59.6001 69.411 58.7894 70.2322 58.7982 71.2843C58.8055 72.3042 59.6147 73.1224 60.6284 73.1356C61.6479 73.1487 62.5156 72.2983 62.5214 71.2784C62.5287 70.2541 61.6815 69.4096 60.6474 69.411Z" fill="black"/>
<path d="M59.7184 55.4085C60.6518 55.4085 61.5077 55.4304 62.3607 55.388C62.5112 55.3807 62.7084 55.1338 62.7829 54.9555C63.836 52.416 67.1005 51.776 68.957 53.7822C70.0335 54.9453 70.2935 56.3203 69.664 57.7829C69.0359 59.2412 67.8747 60.0171 66.284 60.0317C64.6919 60.0449 63.5555 59.269 62.8588 57.8414C62.8106 57.7435 62.7814 57.6368 62.739 57.5375C62.704 57.4556 62.6616 57.3767 62.6105 57.273C61.2433 57.273 59.8747 57.2218 58.5134 57.2905C57.5756 57.3373 56.8541 56.6417 57.4924 55.5736C58.3658 54.1139 58.9355 52.5168 59.2904 50.8481C59.3123 50.7415 59.3416 50.6363 59.3737 50.5311C59.5402 49.9875 59.9755 49.7201 60.4999 49.837C60.9936 49.948 61.3251 50.4317 61.1688 50.9694C60.7934 52.2596 60.3684 53.5353 59.9594 54.8153C59.9054 54.9862 59.8265 55.1484 59.7213 55.4056L59.7184 55.4085ZM66.2607 58.1862C67.3021 58.1804 68.1303 57.3402 68.1157 56.3057C68.1011 55.3048 67.2656 54.4704 66.2651 54.4602C65.2411 54.45 64.3954 55.2945 64.394 56.3291C64.394 57.3782 65.2105 58.1906 66.2607 58.1862Z" fill="black"/>
<path d="M41.0542 66.6085C40.042 66.4755 39.1042 66.3703 38.1709 66.2242C37.5808 66.1321 37.2302 65.6587 37.3149 65.1531C37.4055 64.6169 37.8291 64.3276 38.4455 64.3831C38.536 64.3919 38.6251 64.4094 38.7171 64.4167C39.912 64.5175 41.1068 64.687 42.3031 64.6973C43.2788 64.706 44.2559 64.5234 45.2331 64.424C45.3412 64.4123 45.4493 64.3904 45.5574 64.3831C46.1446 64.348 46.5477 64.6534 46.6091 65.1751C46.6719 65.7055 46.3739 66.1321 45.8013 66.2227C44.8709 66.3703 43.9317 66.4741 42.9282 66.6056C42.9282 66.7984 42.9282 66.9928 42.9282 67.1886C42.9282 69.3394 42.9297 71.4889 42.9253 73.6397C42.9253 73.875 42.9253 74.1205 42.8625 74.3426C42.7369 74.778 42.4068 75.0015 41.9598 74.9869C41.5391 74.9738 41.228 74.7502 41.1185 74.3338C41.06 74.1088 41.0586 73.8647 41.0586 73.6295C41.0542 71.4976 41.0557 69.3658 41.0557 67.2339C41.0557 67.0366 41.0557 66.8379 41.0557 66.6056L41.0542 66.6085Z" fill="black"/>
<path d="M37.3777 42.2739C37.3777 41.4483 37.3047 40.6417 37.3909 39.8527C37.645 37.5323 39.6476 35.8067 41.9992 35.8125C44.3552 35.8184 46.3388 37.5426 46.59 39.8732C46.6748 40.6622 46.6032 41.4688 46.6032 42.268C46.8617 42.3236 47.018 42.3616 47.1758 42.3908C48.4743 42.6421 49.4208 43.7088 49.431 45.0341C49.4529 47.8936 49.4559 50.7546 49.431 53.6142C49.4179 55.1119 48.2567 56.294 46.758 56.3071C43.5709 56.3364 40.3837 56.3364 37.198 56.3071C35.7272 56.2925 34.5616 55.1133 34.547 53.6478C34.5207 50.7692 34.5236 47.8907 34.547 45.0122C34.5572 43.6956 35.5168 42.6333 36.8227 42.3864C36.9643 42.3601 37.106 42.3279 37.3777 42.2724V42.2739ZM41.9452 54.4573C43.4394 54.4573 44.9337 54.4602 46.4279 54.4573C47.2722 54.4543 47.5775 54.149 47.5789 53.3029C47.5818 50.6596 47.5818 48.0164 47.5789 45.3731C47.5789 44.5256 47.2693 44.1983 46.4352 44.1968C43.4657 44.1895 40.4947 44.1895 37.5252 44.1968C36.719 44.1983 36.4035 44.53 36.402 45.338C36.3976 47.9988 36.3976 50.6611 36.402 53.3219C36.402 54.1373 36.7131 54.4529 37.5165 54.4558C38.9917 54.4616 40.4684 54.4573 41.9437 54.4573H41.9452ZM44.7409 42.2987C44.7409 41.5024 44.8066 40.7543 44.7263 40.0207C44.5846 38.7466 43.4803 37.7647 42.2183 37.6872C40.8336 37.6025 39.5716 38.428 39.3102 39.7343C39.1451 40.557 39.1933 41.4235 39.1451 42.2987H44.7423H44.7409Z" fill="black"/>
<path d="M41.9686 46.0525C43.2145 46.0393 44.3553 46.9 44.6883 48.1069C45.0228 49.3212 44.5014 50.6333 43.4073 51.2587C43.1298 51.418 42.9195 51.5509 42.8581 51.9177C42.7851 52.359 42.4375 52.5869 41.9832 52.584C41.5289 52.5811 41.193 52.3502 41.1156 51.906C41.0571 51.5699 40.8775 51.4282 40.6102 51.2762C39.4899 50.6421 38.9669 49.3855 39.2795 48.1464C39.5833 46.9438 40.7124 46.0642 41.9671 46.051L41.9686 46.0525ZM42.9107 48.8916C42.9253 48.3699 42.5251 47.955 42.0007 47.9491C41.4968 47.9433 41.0951 48.3173 41.0703 48.8156C41.044 49.3329 41.4398 49.7727 41.9525 49.7946C42.4623 49.8165 42.8976 49.4074 42.9122 48.8916H42.9107Z" fill="black"/>
</g>
<defs>
<filter id="filter0_f_20_347" x="0.353027" y="0.547241" width="106.745" height="106.745" filterUnits="userSpaceOnUse" color-interpolation-filters="sRGB">
<feFlood flood-opacity="0" result="BackgroundImageFix"/>
<feBlend mode="normal" in="SourceGraphic" in2="BackgroundImageFix" result="shape"/>
<feGaussianBlur stdDeviation="12" result="effect1_foregroundBlur_20_347"/>
</filter>
<clipPath id="clip0_20_347">
<rect width="56" height="56" fill="white" transform="translate(14 19.0001)"/>
</clipPath>
</defs>
</svg>
