<svg width="227" height="73" viewBox="0 0 227 73" fill="none" xmlns="http://www.w3.org/2000/svg">
<g opacity="0.2" clip-path="url(#clip0_147_1641)">
<path fill-rule="evenodd" clip-rule="evenodd" d="M29.993 8.13721C13.8894 8.13721 0.846191 19.8858 0.846191 34.391C0.846191 46.0083 9.18947 55.8206 20.7753 59.2992C22.2327 59.529 22.7792 58.7414 22.7792 58.0522C22.7792 57.4287 22.7427 55.3612 22.7427 53.1624C15.4196 54.3767 13.5251 51.5544 12.9421 50.0776C12.6142 49.3228 11.1933 46.9928 9.95458 46.3693C8.93444 45.877 7.47709 44.6628 9.91814 44.6299C12.2135 44.5971 13.853 46.5333 14.3995 47.321C17.0227 51.2918 21.2125 50.1761 22.8885 49.4869C23.1435 47.7804 23.9086 46.6318 24.7466 45.9755C18.2614 45.3191 11.4848 43.0547 11.4848 33.0127C11.4848 30.1576 12.6142 27.7947 14.4723 25.957C14.1809 25.3006 13.1607 22.6096 14.7638 18.9997C14.7638 18.9997 17.2048 18.3105 22.7792 21.6907C25.1109 21.1 27.5884 20.8047 30.0659 20.8047C32.5434 20.8047 35.0208 21.1 37.3526 21.6907C42.9269 18.2777 45.368 18.9997 45.368 18.9997C46.971 22.6096 45.9509 25.3006 45.6594 25.957C47.5175 27.7947 48.647 30.1247 48.647 33.0127C48.647 43.0875 41.8339 45.3191 35.3487 45.9755C36.4053 46.7959 37.3162 48.3711 37.3162 50.8324C37.3162 54.3438 37.2797 57.1661 37.2797 58.0522C37.2797 58.7414 37.8262 59.5618 39.2836 59.2992C45.0697 57.5398 50.0977 54.1902 53.6597 49.7219C57.2216 45.2537 59.1383 39.8918 59.1398 34.391C59.1398 19.8858 46.0966 8.13721 29.993 8.13721Z" fill="black"/>
<path d="M136.724 47.063H136.656C136.686 47.063 136.707 47.0936 136.737 47.0967H136.758L136.724 47.0661V47.063ZM136.737 47.0967C136.421 47.0998 135.625 47.2498 134.786 47.2498C132.133 47.2498 131.215 46.1472 131.215 44.7076V35.1175H136.622C136.928 35.1175 137.166 34.8725 137.166 34.5356V29.3286C137.166 29.0529 136.894 28.8079 136.622 28.8079H131.215V22.3451C131.215 22.1001 131.045 21.9469 130.739 21.9469H123.394C123.088 21.9469 122.918 22.1001 122.918 22.3451V28.9917C122.918 28.9917 119.211 29.8187 118.973 29.8493C118.701 29.9105 118.531 30.125 118.531 30.37V34.5356C118.531 34.8725 118.803 35.1175 119.109 35.1175H122.884V45.164C122.884 52.6376 128.665 53.4033 132.609 53.4033C134.412 53.4033 136.588 52.8826 136.928 52.7295C137.132 52.6682 137.234 52.4538 137.234 52.2394V47.645C137.239 47.5147 137.191 47.3872 137.1 47.2859C137.009 47.1847 136.88 47.1164 136.737 47.0936V47.0967ZM217.315 40.3552C217.315 34.8113 214.832 34.0761 212.214 34.3212C210.174 34.4437 208.542 35.3626 208.542 35.3626V46.1441C208.542 46.1441 210.208 47.1855 212.69 47.2468C216.193 47.3387 217.315 46.2054 217.315 40.3552ZM225.578 39.8651C225.578 50.371 221.803 53.3727 215.207 53.3727C209.63 53.3727 206.637 50.8304 206.637 50.8304C206.637 50.8304 206.501 52.2394 206.331 52.4232C206.229 52.6069 206.059 52.6682 205.855 52.6682H200.823C200.483 52.6682 200.176 52.4232 200.176 52.1475L200.244 18.1182C200.244 17.8426 200.517 17.5975 200.823 17.5975H208.066C208.372 17.5975 208.644 17.8426 208.644 18.1182V29.6655C208.644 29.6655 211.432 28.0422 215.513 28.0422L215.479 27.9809C219.559 27.9809 225.578 29.3592 225.578 39.8651ZM195.926 28.8079H188.785C188.411 28.8079 188.207 29.0529 188.207 29.3898V46.0522C188.207 46.0522 186.337 47.2468 183.786 47.2468C181.236 47.2468 180.488 46.2054 180.488 43.9082V29.3592C180.488 29.0836 180.216 28.8385 179.91 28.8385H172.633C172.327 28.8385 172.055 29.0836 172.055 29.3592V45.0108C172.055 51.7493 176.237 53.4339 181.984 53.4339C186.711 53.4339 190.553 51.0755 190.553 51.0755C190.553 51.0755 190.723 52.27 190.825 52.4538C190.893 52.6069 191.131 52.7295 191.369 52.7295H195.926C196.3 52.7295 196.504 52.4844 196.504 52.2088L196.572 29.3286C196.572 29.0529 196.3 28.8079 195.926 28.8079ZM115.335 28.7773H108.092C107.786 28.7773 107.514 29.0529 107.514 29.3898V51.8718C107.514 52.4844 107.956 52.6988 108.534 52.6988H115.063C115.743 52.6988 115.913 52.4232 115.913 51.8718V29.298C115.913 29.0223 115.641 28.7773 115.335 28.7773ZM111.764 18.4245C109.146 18.4245 107.072 20.2929 107.072 22.6514C107.072 25.0098 109.146 26.8782 111.764 26.8782C114.315 26.8782 116.389 25.0098 116.389 22.6514C116.389 20.2929 114.315 18.4245 111.764 18.4245ZM167.838 17.6588H160.663C160.357 17.6588 160.085 17.9038 160.085 18.1795V30.7069H148.829V18.1795C148.829 17.9038 148.557 17.6588 148.251 17.6588H141.008C140.702 17.6588 140.43 17.9038 140.43 18.1795V52.2088C140.43 52.4844 140.736 52.7295 141.008 52.7295H148.251C148.557 52.7295 148.829 52.4844 148.829 52.2088V37.6598H160.085L160.017 52.2088C160.017 52.4844 160.289 52.7295 160.595 52.7295H167.838C168.144 52.7295 168.416 52.4844 168.416 52.2088V18.1795C168.416 17.9038 168.144 17.6588 167.838 17.6588ZM103.671 32.7285V50.3097C103.671 50.4322 103.637 50.6467 103.467 50.7079C103.467 50.7079 99.2167 53.4339 92.2118 53.4339C83.7446 53.4339 73.7133 51.0448 73.7133 35.3013C73.7133 19.5578 82.4865 16.3111 91.0556 16.3417C98.4686 16.3417 101.461 17.8426 101.937 18.1182C102.073 18.2714 102.141 18.3939 102.141 18.547L100.713 23.9991C100.713 24.2747 100.407 24.6117 100.033 24.5198C98.8087 24.1829 96.9724 23.509 92.6538 23.509C87.6552 23.509 82.2824 24.7954 82.2824 34.9338C82.2824 45.0721 87.3831 46.2666 91.0556 46.2666C94.1841 46.2666 95.3062 45.9297 95.3062 45.9297V38.885H90.3075C89.9335 38.885 89.6614 38.6399 89.6614 38.3643V32.7285C89.6614 32.4528 89.9335 32.2078 90.3075 32.2078H103.025C103.399 32.2078 103.671 32.4528 103.671 32.7285Z" fill="black"/>
</g>
<defs>
<clipPath id="clip0_147_1641">
<rect width="225.75" height="72.2996" fill="white" transform="translate(0.846191 0.605957)"/>
</clipPath>
</defs>
</svg>
