<svg width="131" height="55" viewBox="0 0 131 55" fill="none" xmlns="http://www.w3.org/2000/svg">
<g clip-path="url(#clip0_147_598)">
<mask id="mask0_147_598" style="mask-type:luminance" maskUnits="userSpaceOnUse" x="73" y="-1" width="58" height="58">
<path d="M130.935 56.0868V-0.0388184H73.8359V56.0868" fill="white"/>
</mask>
<g mask="url(#mask0_147_598)">
<path d="M112.913 46.9783H125.688C126.39 46.9835 127.087 46.8497 127.738 46.5848C128.388 46.3198 128.98 45.9289 129.479 45.4346C129.977 44.9404 130.373 44.3524 130.643 43.7047C130.913 43.057 131.052 42.3624 131.052 41.6608V12.136C131.052 11.4322 130.912 10.7354 130.64 10.0859C130.369 9.43654 129.971 8.84744 129.469 8.3528C128.968 7.85816 128.373 7.46783 127.72 7.20443C127.066 6.94104 126.367 6.80982 125.662 6.81838H123.071C122.961 6.80396 122.849 6.81174 122.742 6.84125C122.635 6.87075 122.535 6.92139 122.448 6.99016C122.361 7.05893 122.289 7.14443 122.236 7.2416C122.182 7.33876 122.149 7.44563 122.138 7.55585C122.112 7.77713 122.176 7.9995 122.314 8.17414C122.453 8.34879 122.655 8.46145 122.876 8.4874H125.649C126.617 8.49081 127.544 8.8763 128.229 9.5598C128.913 10.2433 129.299 11.1693 129.303 12.136V40.8069H75.5203V12.136C75.5203 11.6524 75.6165 11.1737 75.8033 10.7277C75.9902 10.2816 76.2639 9.87705 76.6087 9.53756C76.9535 9.19808 77.3624 8.93041 77.8117 8.75013C78.261 8.56985 78.7417 8.48054 79.2259 8.4874H81.6876C81.8913 8.46202 82.0788 8.3632 82.2147 8.20953C82.3505 8.05585 82.4255 7.8579 82.4255 7.65289C82.4255 7.44788 82.3505 7.24993 82.2147 7.09625C82.0788 6.94257 81.8913 6.84376 81.6876 6.81838H79.2259C77.8146 6.82179 76.4621 7.38313 75.4642 8.37963C74.4663 9.37613 73.9042 10.7267 73.9008 12.136V41.6608C73.9042 43.07 74.4663 44.4206 75.4642 45.4171C76.4621 46.4136 77.8146 46.9749 79.2259 46.9783H91.988M93.6594 46.9783H105.89C106.094 46.953 106.282 46.8541 106.417 46.7005C106.553 46.5468 106.628 46.3488 106.628 46.1438C106.628 45.9388 106.553 45.7409 106.417 45.5872C106.282 45.4335 106.094 45.3347 105.89 45.3093H79.2259C78.402 45.3035 77.6037 45.0227 76.9581 44.5116C76.3124 44.0005 75.8565 43.2885 75.6628 42.4888H129.147C128.956 43.2874 128.503 43.9992 127.859 44.5104C127.216 45.0216 126.419 45.3029 125.597 45.3093H109.428C109.309 45.2946 109.189 45.3051 109.075 45.3403C108.961 45.3755 108.855 45.4345 108.766 45.5134C108.676 45.5924 108.605 45.6894 108.556 45.7981C108.506 45.9067 108.481 46.0246 108.481 46.1438C108.481 46.2631 108.506 46.3809 108.556 46.4896C108.605 46.5983 108.676 46.6953 108.766 46.7742C108.855 46.8531 108.961 46.9122 109.075 46.9473C109.189 46.9825 109.309 46.9931 109.428 46.9783H111.151" fill="white"/>
<path d="M87.855 8.40978L91.107 9.97529V19.8859C91.1136 20.366 91.2904 20.8283 91.6058 21.1906C91.9213 21.553 92.3551 21.7921 92.8303 21.8654L93.7243 21.9948C96.633 22.4196 99.569 22.6315 102.509 22.6288C105.449 22.6182 108.385 22.3934 111.293 21.956L112.2 21.8266C112.672 21.7502 113.101 21.5094 113.412 21.1471C113.722 20.7847 113.895 20.3241 113.898 19.8471V9.9106L115.815 9.01787V24.4013C115.138 24.5885 114.54 24.9897 114.11 25.5448C113.68 26.0999 113.442 26.779 113.431 27.4806V29.5636C113.438 29.9652 113.601 30.3483 113.887 30.6311C114.173 30.9139 114.558 31.0741 114.96 31.0774H118.303C118.503 31.0791 118.701 31.0412 118.887 30.9659C119.072 30.8906 119.241 30.7794 119.383 30.6386C119.525 30.4979 119.638 30.3304 119.715 30.1459C119.792 29.9614 119.832 29.7635 119.832 29.5636V27.4806C119.824 26.7802 119.588 26.1013 119.161 25.546C118.733 24.9907 118.136 24.589 117.461 24.4013V7.72406C117.461 7.56452 117.417 7.40803 117.332 7.27286C117.247 7.1377 117.125 7.02943 116.981 6.96071L103.053 0.142313C102.852 0.0420757 102.63 -0.0101013 102.405 -0.0101013C102.18 -0.0101013 101.958 0.0420757 101.757 0.142313L87.855 6.89602C87.7126 6.96488 87.5925 7.0724 87.5085 7.20626C87.4244 7.34013 87.3799 7.49492 87.3799 7.6529C87.3799 7.81088 87.4244 7.96567 87.5085 8.09953C87.5925 8.23339 87.7126 8.34092 87.855 8.40978ZM118.095 27.4806V29.3954H115.051V27.4806C115.086 27.0983 115.263 26.7429 115.547 26.4841C115.831 26.2254 116.202 26.0819 116.586 26.0819C116.97 26.0819 117.341 26.2254 117.625 26.4841C117.909 26.7429 118.086 27.0983 118.121 27.4806H118.095ZM102.418 1.70783L114.688 7.72406L102.418 13.6756L99.166 12.0066C98.9676 11.9275 98.7465 11.9267 98.5474 12.0043C98.3484 12.0819 98.1864 12.2321 98.0942 12.4246C98.0019 12.617 97.9864 12.8373 98.0507 13.0407C98.115 13.2442 98.2543 13.4156 98.4404 13.5203L101.783 15.1247C101.985 15.2221 102.207 15.2727 102.431 15.2727C102.655 15.2727 102.877 15.2221 103.079 15.1247L112.226 10.7904V19.8471C112.226 19.9251 112.197 20.0004 112.144 20.058C112.092 20.1155 112.019 20.1511 111.941 20.1576L111.047 20.2999C105.381 21.1279 99.6239 21.1279 93.9575 20.2999L93.0505 20.1576C92.975 20.1481 92.9055 20.1112 92.8554 20.054C92.8052 19.9968 92.7778 19.9231 92.7784 19.8471V10.7904L95.1754 11.9419C95.3649 12.0386 95.5847 12.0575 95.788 11.9947C95.9914 11.9318 96.162 11.7922 96.2637 11.6055C96.3628 11.4064 96.3789 11.1762 96.3085 10.9652C96.2381 10.7543 96.0869 10.5798 95.888 10.4799L90.1094 7.72406L102.418 1.70783Z" fill="white"/>
</g>
<path d="M121.671 17.8934H122.539C122.757 17.8934 122.966 17.9789 123.121 18.1314C123.276 18.2839 123.365 18.4912 123.369 18.7085V35.6963C123.365 35.9137 123.276 36.121 123.121 36.2735C122.966 36.426 122.757 36.5114 122.539 36.5114H104.038C103.927 36.4989 103.815 36.5084 103.708 36.5394C103.601 36.5704 103.501 36.6223 103.414 36.6921C103.327 36.7619 103.255 36.8482 103.202 36.946C103.149 37.0438 103.116 37.1511 103.105 37.2618C103.09 37.3717 103.098 37.4833 103.128 37.5901C103.157 37.6969 103.208 37.7967 103.277 37.8835C103.346 37.9704 103.431 38.0426 103.529 38.0958C103.626 38.149 103.733 38.1822 103.843 38.1934H122.539C123.203 38.1934 123.839 37.9303 124.308 37.462C124.777 36.9937 125.04 36.3586 125.04 35.6963V18.7085C125.037 18.0473 124.772 17.4142 124.304 16.9466C123.836 16.4791 123.202 16.2149 122.539 16.2115H121.671C121.451 16.2406 121.251 16.3541 121.113 16.528C120.975 16.7018 120.911 16.9224 120.933 17.143C120.952 17.3333 121.036 17.5114 121.17 17.6478C121.304 17.7842 121.481 17.8709 121.671 17.8934Z" fill="white"/>
<path d="M82.4002 17.8934H88.2177C88.4411 17.9192 88.6655 17.8553 88.8417 17.7157C89.0178 17.5762 89.1313 17.3725 89.1571 17.1495C89.1828 16.9265 89.1188 16.7023 88.9791 16.5264C88.8394 16.3505 88.6354 16.2372 88.4121 16.2115H82.4002C81.7403 16.2183 81.1096 16.4839 80.6442 16.9511C80.1787 17.4183 79.916 18.0496 79.9126 18.7085V35.6963C79.9126 36.3563 80.1743 36.9895 80.6404 37.4574C81.1066 37.9254 81.7393 38.19 82.4002 38.1934H93.4781C93.7014 38.2174 93.9252 38.1518 94.1001 38.0111C94.2751 37.8704 94.3869 37.666 94.4109 37.443C94.435 37.2199 94.3693 36.9965 94.2284 36.8218C94.0875 36.6471 93.8828 36.5354 93.6595 36.5114H82.3873C82.1731 36.508 81.9688 36.4206 81.8185 36.2682C81.6682 36.1157 81.584 35.9103 81.584 35.6963V18.7085C81.5823 18.6032 81.6014 18.4985 81.6402 18.4006C81.6789 18.3026 81.7367 18.2132 81.8101 18.1375C81.8835 18.0618 81.9711 18.0013 82.0679 17.9594C82.1647 17.9176 82.2688 17.8951 82.3743 17.8934H82.4002Z" fill="white"/>
<path d="M109.026 24.5436C108.542 24.1432 107.919 23.9498 107.293 24.0056C106.667 24.0613 106.088 24.3616 105.683 24.8412L98.5958 33.2898L96.1729 30.8057C95.9541 30.5771 95.6905 30.3959 95.3985 30.2735C95.1065 30.151 94.7923 30.09 94.4756 30.0941C94.1636 30.0844 93.853 30.1392 93.5631 30.255C93.2733 30.3707 93.0105 30.545 92.7913 30.7669C92.5627 30.9904 92.3826 31.2586 92.2623 31.5546C92.1419 31.8506 92.0838 32.1682 92.0916 32.4877C92.0883 33.1145 92.33 33.718 92.7654 34.1696L97.0281 38.5039C97.2514 38.7311 97.5174 38.912 97.8109 39.0363C98.1044 39.1607 98.4195 39.226 98.7383 39.2284H98.8161C99.149 39.2144 99.4754 39.1312 99.7743 38.9842C100.073 38.8372 100.338 38.6295 100.552 38.3745L109.324 27.8946C109.726 27.4092 109.92 26.7853 109.864 26.158C109.808 25.5308 109.507 24.9507 109.026 24.5436ZM108.313 27.0407L99.5157 37.4818C99.4267 37.5914 99.3167 37.6822 99.1921 37.7489C99.0675 37.8155 98.9309 37.8567 98.7902 37.8699C98.644 37.876 98.4982 37.8515 98.3621 37.7981C98.226 37.7446 98.1026 37.6633 97.9998 37.5594L93.7371 33.2122C93.5156 33.0175 93.3804 32.7429 93.3614 32.4488C93.3614 32.1606 93.476 31.8842 93.6801 31.6804C93.8842 31.4765 94.1611 31.362 94.4497 31.362C94.7277 31.374 94.9911 31.4894 95.1882 31.6855L98.1294 34.7001C98.2 34.7669 98.2835 34.8186 98.3749 34.852C98.4662 34.8854 98.5635 34.8997 98.6606 34.8941C98.8507 34.88 99.0275 34.7917 99.1529 34.6483L106.745 25.5916C106.932 25.4321 107.168 25.3428 107.413 25.339C107.658 25.3353 107.897 25.4174 108.088 25.5711C108.279 25.7249 108.41 25.9405 108.458 26.1806C108.506 26.4207 108.469 26.67 108.352 26.8854L108.313 27.0407Z" fill="white"/>
<path d="M7.86143 22.5253V24.1814H1.20178V22.5253H3.521C3.11927 22.2337 2.79102 21.8528 2.56222 21.4126C2.33603 20.9766 2.21617 20.4934 2.21239 20.0024C2.20459 19.5944 2.2798 19.1891 2.43347 18.8111C2.58714 18.433 2.81607 18.09 3.10639 17.8029C3.48223 17.4799 3.91858 17.2346 4.3901 17.0814C4.86163 16.9281 5.35894 16.8699 5.85317 16.9102H6.68239C6.96341 16.9333 7.24129 16.9853 7.5116 17.0654C7.5116 17.363 7.42091 17.6347 7.36908 17.8546C7.31725 18.0746 7.27839 18.3333 7.2136 18.6439C6.81885 18.5875 6.42034 18.5615 6.0216 18.5662C5.49583 18.553 4.97633 18.6827 4.51865 18.9414C4.29629 19.0699 4.11722 19.2616 4.00418 19.4919C3.89113 19.7223 3.84922 19.981 3.88378 20.2353C3.88469 20.5224 3.95115 20.8056 4.07813 21.0633C4.2168 21.3485 4.41054 21.6035 4.64821 21.8137C4.93503 22.0512 5.26494 22.2313 5.61995 22.3442C6.03727 22.4848 6.47518 22.5548 6.9156 22.5512L7.86143 22.5253Z" fill="white"/>
<path d="M11.0616 7.72406H12.9015V22.3441H14.6895C15.0393 22.3441 15.2207 22.4865 15.2207 22.7582V23.638C15.2311 23.7106 15.2247 23.7847 15.2019 23.8545C15.1791 23.9243 15.1405 23.9879 15.0892 24.0404C15.0379 24.0929 14.9751 24.133 14.9058 24.1574C14.8365 24.1818 14.7625 24.19 14.6895 24.1814H11.0616V7.72406Z" fill="white"/>
<path d="M14.3526 24.1814C14.0028 24.1814 13.8214 24.0391 13.8214 23.7674V22.8876C13.8109 22.8149 13.8174 22.7408 13.8402 22.6711C13.863 22.6013 13.9015 22.5377 13.9529 22.4851C14.0042 22.4326 14.067 22.3926 14.1363 22.3681C14.2056 22.3437 14.2796 22.3355 14.3526 22.3442H17.4751C17.825 22.3442 17.9934 22.4865 17.9934 22.7711V23.638C17.9934 24.0003 17.825 24.1814 17.4751 24.1814H14.3526Z" fill="white"/>
<path d="M17.1512 24.1814C16.8014 24.1814 16.62 24.0391 16.62 23.7674V22.8876C16.6095 22.8149 16.616 22.7408 16.6388 22.6711C16.6616 22.6013 16.7001 22.5377 16.7515 22.4851C16.8028 22.4326 16.8656 22.3926 16.9349 22.3681C17.0042 22.3437 17.0782 22.3355 17.1512 22.3442H20.2737C20.6235 22.3442 20.792 22.4865 20.792 22.7711V23.638C20.792 24.0003 20.6235 24.1814 20.2737 24.1814H17.1512Z" fill="white"/>
<path d="M19.9498 24.1814C19.6 24.1814 19.4186 24.0391 19.4186 23.7674V22.8876C19.4081 22.8149 19.4145 22.7408 19.4373 22.6711C19.4601 22.6013 19.4987 22.5377 19.55 22.4851C19.6014 22.4326 19.6642 22.3926 19.7335 22.3681C19.8028 22.3437 19.8768 22.3355 19.9498 22.3442H23.0723C23.4221 22.3442 23.5906 22.4865 23.5906 22.7711V23.638C23.5906 24.0003 23.4221 24.1814 23.0723 24.1814H19.9498Z" fill="white"/>
<path d="M22.7485 24.1814C22.3987 24.1814 22.2173 24.0391 22.2173 23.7674V22.8876C22.2068 22.8149 22.2132 22.7408 22.236 22.6711C22.2588 22.6013 22.2974 22.5377 22.3488 22.4851C22.4001 22.4326 22.4629 22.3926 22.5322 22.3681C22.6015 22.3437 22.6755 22.3355 22.7485 22.3442H25.871C26.2208 22.3442 26.4022 22.4865 26.4022 22.7711V23.638C26.4127 23.7107 26.4062 23.7847 26.3835 23.8545C26.3607 23.9243 26.3221 23.9879 26.2707 24.0404C26.2194 24.093 26.1566 24.133 26.0873 24.1574C26.018 24.1819 25.944 24.1901 25.871 24.1814H22.7485Z" fill="white"/>
<path d="M25.56 24.1814C25.2102 24.1814 25.0288 24.039 25.0288 23.7673V22.8876C25.0183 22.8149 25.0248 22.7408 25.0476 22.671C25.0704 22.6012 25.1089 22.5376 25.1603 22.4851C25.2116 22.4326 25.2744 22.3926 25.3437 22.3681C25.413 22.3437 25.487 22.3355 25.56 22.3442H29.3304C28.9659 21.9984 28.6789 21.5795 28.4882 21.115C28.2464 20.5649 28.1271 19.969 28.1384 19.3684C28.1387 18.7592 28.262 18.1563 28.5011 17.5959C28.7327 17.024 29.0713 16.5014 29.4988 16.0562C29.9436 15.6023 30.4713 15.2378 31.0536 14.9824C31.6883 14.6967 32.3787 14.5552 33.0748 14.5683C33.6428 14.5601 34.2067 14.6657 34.7332 14.8789C35.2245 15.0676 35.6672 15.3638 36.0289 15.7457C36.373 16.1223 36.6414 16.5616 36.8192 17.0395C37.0078 17.6023 37.0998 18.1928 37.0913 18.7862V22.2795H39.0607C39.4105 22.2795 39.579 22.4218 39.579 22.6935V23.5733C39.579 23.9355 39.4105 24.1167 39.0607 24.1167L25.56 24.1814ZM35.1737 22.3442V18.7344C35.1742 18.4491 35.1305 18.1654 35.0442 17.8934C34.957 17.609 34.8064 17.348 34.6037 17.1301C34.3947 16.8856 34.1335 16.6911 33.8392 16.5608C33.1506 16.2762 32.377 16.2762 31.6884 16.5608C31.0158 16.8517 30.4851 17.3956 30.2114 18.0746C30.0484 18.4858 29.9734 18.9265 29.9911 19.3684C29.9457 19.8772 30.0428 20.3887 30.2716 20.8456C30.5004 21.3026 30.8519 21.687 31.2868 21.956C31.6864 22.1843 32.1263 22.3336 32.5824 22.3959L35.1737 22.3442ZM30.3669 11.1009C30.364 10.8549 30.4467 10.6156 30.601 10.4238C30.7553 10.2321 30.9716 10.0998 31.2128 10.0497C31.4539 9.99956 31.7051 10.0347 31.9232 10.1491C32.1413 10.2634 32.3128 10.4499 32.4084 10.6767C32.504 10.9034 32.5177 11.1562 32.4472 11.3919C32.3767 11.6276 32.2264 11.8316 32.022 11.9688C31.8175 12.1061 31.5717 12.1681 31.3265 12.1443C31.0813 12.1205 30.852 12.0124 30.6778 11.8384C30.5784 11.7431 30.4995 11.6286 30.446 11.5017C30.3926 11.3749 30.3656 11.2385 30.3669 11.1009ZM33.4246 11.1009C33.4143 10.9557 33.4356 10.81 33.4871 10.6737C33.5385 10.5375 33.6189 10.414 33.7226 10.3117C33.9194 10.128 34.1788 10.0258 34.4482 10.0258C34.7176 10.0258 34.9769 10.128 35.1737 10.3117C35.3661 10.5117 35.4736 10.7783 35.4736 11.0556C35.4736 11.333 35.3661 11.5996 35.1737 11.7996C35.0751 11.8982 34.9579 11.9764 34.829 12.0297C34.7 12.0831 34.5618 12.1105 34.4223 12.1105C34.2827 12.1105 34.1445 12.0831 34.0155 12.0297C33.8866 11.9764 33.7694 11.8982 33.6708 11.7996C33.5019 11.6069 33.4137 11.3567 33.4246 11.1009Z" fill="white"/>
<path d="M39.242 24.1814C38.8922 24.1814 38.7238 24.0391 38.7238 23.7674V22.8876C38.7238 22.5253 38.8922 22.3442 39.242 22.3442H42.3645C42.7144 22.3442 42.8957 22.4865 42.8957 22.7711V23.638C42.9062 23.7106 42.8998 23.7847 42.877 23.8545C42.8542 23.9243 42.8156 23.9879 42.7643 24.0404C42.7129 24.093 42.6502 24.133 42.5809 24.1574C42.5115 24.1819 42.4375 24.1901 42.3645 24.1814H39.242Z" fill="white"/>
<path d="M42.0407 24.1814C41.6909 24.1814 41.5225 24.0391 41.5225 23.7674V22.8876C41.5225 22.5253 41.6909 22.3442 42.0407 22.3442H45.1632C45.5131 22.3442 45.6945 22.4865 45.6945 22.7711V23.638C45.7049 23.7106 45.6985 23.7847 45.6757 23.8545C45.6529 23.9243 45.6143 23.9879 45.563 24.0404C45.5116 24.093 45.4489 24.133 45.3796 24.1574C45.3102 24.1819 45.2362 24.1901 45.1632 24.1814H42.0407Z" fill="white"/>
<path d="M44.8393 24.1814C44.4895 24.1814 44.321 24.0391 44.321 23.7674V22.8876C44.321 22.5253 44.4895 22.3442 44.8393 22.3442H47.9618C48.3116 22.3442 48.493 22.4865 48.493 22.7711V23.638C48.5035 23.7106 48.4971 23.7847 48.4743 23.8545C48.4515 23.9243 48.4129 23.9879 48.3616 24.0404C48.3102 24.093 48.2475 24.133 48.1781 24.1574C48.1088 24.1819 48.0348 24.1901 47.9618 24.1814H44.8393Z" fill="white"/>
<path d="M47.6379 24.1814C47.2881 24.1814 47.1196 24.0391 47.1196 23.7674V22.8876C47.1196 22.5253 47.2881 22.3442 47.6379 22.3442H50.7215C51.0843 22.3442 51.2528 22.4865 51.2528 22.7711V23.638C51.2528 24.0003 51.0843 24.1814 50.7215 24.1814H47.6379Z" fill="white"/>
<path d="M50.4494 24.1814C50.0866 24.1814 49.9182 24.0391 49.9182 23.7674V22.8876C49.9182 22.5253 50.0866 22.3442 50.4494 22.3442H53.8829V15.487H55.7227V24.1943L50.4494 24.1814ZM52.0949 11.1009C52.092 10.8549 52.1748 10.6156 52.3291 10.4238C52.4834 10.2321 52.6996 10.0998 52.9408 10.0497C53.182 9.99957 53.4331 10.0347 53.6512 10.1491C53.8693 10.2634 54.0408 10.4499 54.1364 10.6767C54.232 10.9034 54.2458 11.1562 54.1753 11.3919C54.1048 11.6277 53.9544 11.8316 53.75 11.9688C53.5456 12.1061 53.2997 12.1681 53.0545 12.1443C52.8093 12.1205 52.58 12.0124 52.4059 11.8384C52.3064 11.7431 52.2275 11.6286 52.1741 11.5018C52.1206 11.3749 52.0936 11.2385 52.0949 11.1009ZM55.1526 11.1009C55.1497 10.8549 55.2325 10.6156 55.3868 10.4238C55.5411 10.2321 55.7573 10.0998 55.9985 10.0497C56.2397 9.99957 56.4908 10.0347 56.7089 10.1491C56.9271 10.2634 57.0986 10.4499 57.1942 10.6767C57.2898 10.9034 57.3035 11.1562 57.233 11.3919C57.1625 11.6277 57.0122 11.8316 56.8077 11.9688C56.6033 12.1061 56.3574 12.1681 56.1122 12.1443C55.8671 12.1205 55.6378 12.0124 55.4636 11.8384C55.3642 11.7431 55.2853 11.6286 55.2318 11.5018C55.1783 11.3749 55.1514 11.2385 55.1526 11.1009Z" fill="white"/>
<path d="M63.3152 24.272C63.3173 24.8978 63.2301 25.5208 63.0561 26.1221C62.8905 26.664 62.6222 27.1691 62.2657 27.61C61.9168 28.0409 61.4736 28.3862 60.9701 28.6192C60.4185 28.875 59.8162 29.0033 59.208 28.9944C58.8844 29.0151 58.5599 29.0151 58.2363 28.9944C58.0014 28.9791 57.7677 28.9488 57.5366 28.9038C57.5366 28.5847 57.5755 28.2742 57.6532 27.9723L57.7698 27.0925L58.2881 27.183C58.4458 27.2181 58.6061 27.2398 58.7675 27.2477H59.208C59.5517 27.2923 59.901 27.2423 60.2184 27.1032C60.5358 26.9641 60.8091 26.7412 61.009 26.4585C61.3678 25.7278 61.5286 24.9159 61.4754 24.1038V15.487H63.3152V24.272Z" fill="white"/>
<path d="M66.9949 7.72406H68.757V24.1555H66.9949V7.72406Z" fill="white"/>
<path d="M2.54138 47.4677V33.6972H4.1426V47.4677H2.54138ZM11.6495 33.6972C12.7798 33.6972 13.7123 33.8384 14.4469 34.121C15.1879 34.3973 15.7405 34.8211 16.1047 35.3926C16.4689 35.964 16.651 36.6924 16.651 37.5778C16.651 38.3062 16.5191 38.9152 16.2554 39.405C15.9916 39.8885 15.6463 40.281 15.2193 40.5824C14.7923 40.8838 14.337 41.1161 13.8535 41.2794L17.6305 47.4677H15.7656L12.3936 41.7221H9.53024V47.4677H7.92902V33.6972H11.6495ZM11.5553 35.0817H9.53024V40.3658H11.7154C12.8394 40.3658 13.6652 40.1366 14.1926 39.6782C14.7264 39.2198 14.9932 38.5448 14.9932 37.6531C14.9932 36.7175 14.7107 36.055 14.1455 35.6657C13.5867 35.2764 12.7233 35.0817 11.5553 35.0817ZM24.0637 47.4677H22.453V35.11H18.1203V33.6972H28.3776V35.11H24.0637V47.4677ZM42.4024 40.5636C42.4024 41.6938 42.2485 42.7174 41.9408 43.6341C41.6331 44.5509 41.1748 45.3264 40.5657 45.9606C39.9629 46.5948 39.2093 47.0564 38.3051 47.3452L41.5452 50.7454H39.2564L36.5909 47.6372C36.5092 47.6372 36.4245 47.6403 36.3366 47.6466C36.2549 47.6529 36.1733 47.656 36.0917 47.656C35.0242 47.656 34.0917 47.4865 33.2942 47.1474C32.503 46.8083 31.8437 46.3248 31.3163 45.6969C30.7951 45.069 30.4026 44.3186 30.1389 43.4458C29.8814 42.5729 29.7527 41.6059 29.7527 40.5447C29.7527 39.1382 29.9851 37.9043 30.4497 36.8431C30.9144 35.7819 31.6177 34.9562 32.5596 34.3659C33.5077 33.7756 34.6945 33.4805 36.1199 33.4805C37.4825 33.4805 38.6285 33.7725 39.5578 34.3565C40.4935 34.9405 41.1999 35.763 41.6771 36.8242C42.1606 37.8792 42.4024 39.1256 42.4024 40.5636ZM31.4387 40.5636C31.4387 41.7315 31.6051 42.7425 31.9379 43.5965C32.2707 44.4504 32.7793 45.1098 33.4638 45.5744C34.1545 46.0391 35.0305 46.2714 36.0917 46.2714C37.1591 46.2714 38.032 46.0391 38.7101 45.5744C39.3946 45.1098 39.9001 44.4504 40.2266 43.5965C40.5531 42.7425 40.7164 41.7315 40.7164 40.5636C40.7164 38.7865 40.3428 37.3988 39.5955 36.4004C38.8546 35.3957 37.696 34.8934 36.1199 34.8934C35.0524 34.8934 34.1733 35.1226 33.4826 35.5809C32.7919 36.0393 32.277 36.6924 31.9379 37.5401C31.6051 38.3815 31.4387 39.3893 31.4387 40.5636ZM54.1101 47.4677L52.4147 43.0973H46.8952L45.2092 47.4677H43.5891L48.9768 33.6406H50.4179L55.7678 47.4677H54.1101ZM51.9343 41.675L50.3237 37.3329C50.286 37.2198 50.2232 37.0346 50.1353 36.7771C50.0537 36.5197 49.9689 36.2528 49.881 35.9765C49.7931 35.7002 49.7209 35.4773 49.6644 35.3078C49.6016 35.5652 49.5325 35.8227 49.4572 36.0801C49.3881 36.3313 49.319 36.5668 49.2499 36.7866C49.1809 37.0001 49.1212 37.1822 49.071 37.3329L47.4321 41.675H51.9343ZM66.3171 47.4677L64.6217 43.0973H59.1022L57.4162 47.4677H55.7961L61.1837 33.6406H62.6248L67.9748 47.4677H66.3171ZM64.1413 41.675L62.5306 37.3329C62.493 37.2198 62.4302 37.0346 62.3423 36.7771C62.2606 36.5197 62.1759 36.2528 62.088 35.9765C62 35.7002 61.9278 35.4773 61.8713 35.3078C61.8085 35.5652 61.7395 35.8227 61.6641 36.0801C61.595 36.3313 61.526 36.5668 61.4569 36.7866C61.3878 37.0001 61.3282 37.1822 61.2779 37.3329L59.639 41.675H64.1413Z" fill="white"/>
</g>
<defs>
<clipPath id="clip0_147_598">
<rect width="130.342" height="55" fill="white" transform="translate(0.657593)"/>
</clipPath>
</defs>
</svg>
