<svg width="71" height="73" viewBox="0 0 71 73" fill="none" xmlns="http://www.w3.org/2000/svg">
<path d="M26.4337 39.064L44.0562 39.064" stroke="#219653" stroke-width="5" stroke-linecap="round"/>
<path d="M26.4337 27.0443L38.182 27.0443" stroke="#219653" stroke-width="5" stroke-linecap="round"/>
<path d="M26.4337 51.0836L38.182 51.0836" stroke="#219653" stroke-width="5" stroke-linecap="round"/>
<path d="M55.8046 39.0639V57.1033C55.8046 59.9317 55.8046 61.3459 54.9259 62.2246C54.0472 63.1033 52.633 63.1033 49.8046 63.1033H20.6854C17.857 63.1033 16.4428 63.1033 15.5641 62.2246C14.6854 61.3459 14.6854 59.9317 14.6854 57.1033V15.0148C14.6854 12.1863 14.6854 10.7721 15.5641 9.89345C16.4428 9.01477 17.857 9.01477 20.6854 9.01477H32.3079" stroke="#219653" stroke-width="5"/>
<path d="M52.8676 9.01477L52.8676 27.0443" stroke="#219653" stroke-width="5" stroke-linecap="round"/>
<path d="M61.6787 18.0295L44.0562 18.0295" stroke="#219653" stroke-width="5" stroke-linecap="round"/>
</svg>
