<svg width="1365" height="216" viewBox="0 0 1365 216" fill="none" xmlns="http://www.w3.org/2000/svg">
<g opacity="0.5">
<path d="M1365 0C1364.28 24.1032 1360.64 48.1805 1357.3 72.2124C1353.91 96.5616 1358.49 125.391 1344.71 148.847C1319.79 191.259 1221.79 228.271 1151.78 243.861C1075.91 260.752 986.016 261.043 915.277 238.229C857.113 219.466 816.168 187.193 758.939 167.563C678.572 140.01 577.209 140.942 484.181 149.403C391.153 157.859 298.857 172.989 204.691 170.82C110.526 168.651 10.0588 144.399 -27.8887 96.1279C-43.4705 76.3041 -47.5659 53.7741 -67.59 35.2452C-85.5615 18.6131 -113.738 7.42583 -146 0H1365Z" fill="#D2FDE3"/>
</g>
</svg>
