<svg width="24" height="28" viewBox="0 0 24 28" fill="none" xmlns="http://www.w3.org/2000/svg">
<path d="M15 9.28307C15 11.4183 13.5275 12.8976 12 12.8976C10.4725 12.8976 9 11.4183 9 9.28307C9 7.14789 10.4725 5.66856 12 5.66856C13.5275 5.66856 15 7.14789 15 9.28307Z" stroke="#828282" stroke-width="2" stroke-linecap="round"/>
<path d="M15.2962 9.1538C15.5861 8.57446 16.0396 8.19728 16.5189 8.04914C16.9905 7.90335 17.4984 7.97391 17.9457 8.27177C18.4008 8.57495 18.7692 9.10184 18.9237 9.7672C19.0783 10.4327 18.9946 11.1385 18.7038 11.7196C18.4139 12.2989 17.9604 12.6761 17.4811 12.8243C17.0095 12.97 16.5016 12.8995 16.0543 12.6016C15.5992 12.2984 15.2308 11.7716 15.0763 11.1062C14.9217 10.4407 15.0054 9.7349 15.2962 9.1538L15.2962 9.1538Z" stroke="#828282" stroke-width="2"/>
<path d="M5.29618 9.1538C5.58612 8.57446 6.03963 8.19728 6.51887 8.04914C6.99051 7.90335 7.49844 7.97391 7.94566 8.27177C8.40085 8.57495 8.76917 9.10184 8.92371 9.7672C9.07828 10.4327 8.99463 11.1385 8.70382 11.7196C8.41388 12.2989 7.96037 12.6761 7.48113 12.8243C7.00949 12.97 6.50156 12.8995 6.05434 12.6016C5.59915 12.2984 5.23083 11.7716 5.07629 11.1062C4.92172 10.4407 5.00537 9.7349 5.29618 9.1538L5.29618 9.1538Z" stroke="#828282" stroke-width="2"/>
<path d="M16.8817 20.8193L15.8966 20.9913L16.0411 21.8193H16.8817V20.8193ZM20.772 19.7303L19.8098 20.0028L19.8098 20.0028L20.772 19.7303ZM14.7809 17.0245L14.1219 16.2724L13.1744 17.1026L14.1979 17.837L14.7809 17.0245ZM19.8859 19.8193H16.8817V21.8193H19.8859V19.8193ZM19.8098 20.0028C19.8053 19.987 19.8021 19.9575 19.81 19.9225C19.8174 19.8895 19.8317 19.8648 19.8449 19.8489C19.8705 19.8182 19.8915 19.8193 19.8859 19.8193V21.8193C21.0365 21.8193 22.1054 20.7684 21.7341 19.4577L19.8098 20.0028ZM17.0001 17.2048C17.8482 17.2048 18.4301 17.5695 18.8726 18.098C19.3396 18.6555 19.6348 19.3848 19.8098 20.0028L21.7341 19.4577C21.5227 18.7114 21.1296 17.678 20.406 16.8139C19.658 15.9207 18.5471 15.2048 17.0001 15.2048V17.2048ZM15.4399 17.7766C15.8279 17.4366 16.3215 17.2048 17.0001 17.2048V15.2048C15.7987 15.2048 14.8451 15.6387 14.1219 16.2724L15.4399 17.7766ZM14.1979 17.837C15.2545 18.5951 15.7134 19.9422 15.8966 20.9913L17.8668 20.6474C17.6578 19.4501 17.0749 17.4397 15.3638 16.212L14.1979 17.837Z" fill="#828282"/>
<path d="M9.21913 17.0245L9.80209 17.837L10.8257 17.1026L9.87816 16.2724L9.21913 17.0245ZM3.22804 19.7303L4.19018 20.0028L4.19018 20.0028L3.22804 19.7303ZM7.11831 20.8193V21.8193H7.95885L8.10341 20.9913L7.11831 20.8193ZM6.99997 17.2048C7.67855 17.2048 8.17209 17.4366 8.5601 17.7766L9.87816 16.2724C9.1549 15.6386 8.20128 15.2048 6.99997 15.2048V17.2048ZM4.19018 20.0028C4.36525 19.3848 4.66047 18.6555 5.1274 18.098C5.56993 17.5695 6.1518 17.2048 6.99997 17.2048V15.2048C5.45291 15.2048 4.34206 15.9207 3.59406 16.8139C2.87045 17.678 2.4773 18.7114 2.2659 19.4577L4.19018 20.0028ZM4.11416 19.8193C4.10854 19.8193 4.12951 19.8182 4.1551 19.8489C4.16835 19.8648 4.18264 19.8895 4.19006 19.9225C4.19793 19.9575 4.19467 19.987 4.19018 20.0028L2.2659 19.4577C1.89462 20.7684 2.96348 21.8193 4.11416 21.8193V19.8193ZM7.11831 19.8193H4.11416V21.8193H7.11831V19.8193ZM8.10341 20.9913C8.28656 19.9422 8.74548 18.5951 9.80209 17.837L8.63618 16.212C6.92514 17.4396 6.34222 19.4501 6.1332 20.6474L8.10341 20.9913Z" fill="#828282"/>
<path d="M12 16.2048C15.6806 16.2048 16.6519 19.3305 16.9081 20.98C16.9929 21.5258 16.5523 21.973 16 21.973H8C7.44772 21.973 7.00708 21.5258 7.09187 20.98C7.34815 19.3305 8.31937 16.2048 12 16.2048Z" stroke="#828282" stroke-width="2" stroke-linecap="round"/>
</svg>
