<svg width="71" height="71" viewBox="0 0 71 71" fill="none" xmlns="http://www.w3.org/2000/svg">
<circle cx="35.245" cy="23.7906" r="9.74833" stroke="#219653" stroke-width="4" stroke-linecap="round"/>
<path d="M44.0317 23.3221C44.9349 21.7577 46.4226 20.6161 48.1675 20.1486C49.9124 19.681 51.7716 19.9258 53.336 20.829C54.9005 21.7323 56.042 23.22 56.5096 24.9649C56.9771 26.7098 56.7323 28.5689 55.8291 30.1334C54.9259 31.6978 53.4382 32.8394 51.6933 33.3069C49.9484 33.7745 48.0892 33.5297 46.5248 32.6265C44.9603 31.7232 43.8188 30.2355 43.3512 28.4906C42.8837 26.7457 43.1284 24.8866 44.0317 23.3221L44.0317 23.3221Z" stroke="#219653" stroke-width="4"/>
<path d="M14.6608 23.3221C15.5641 21.7577 17.0518 20.6161 18.7967 20.1486C20.5416 19.681 22.4007 19.9258 23.9652 20.829C25.5296 21.7323 26.6712 23.22 27.1387 24.9649C27.6062 26.7098 27.3615 28.5689 26.4583 30.1334C25.555 31.6978 24.0673 32.8394 22.3224 33.3069C20.5775 33.7745 18.7184 33.5297 17.1539 32.6265C15.5895 31.7232 14.4479 30.2355 13.9804 28.4906C13.5128 26.7457 13.7576 24.8866 14.6608 23.3221L14.6608 23.3221Z" stroke="#219653" stroke-width="4"/>
<path d="M49.5827 53.1614L47.6221 53.5563L47.9454 55.1614H49.5827V53.1614ZM61.4693 52.0502L63.4194 51.6063V51.6063L61.4693 52.0502ZM43.4125 43.5L42.2028 41.9073L39.8896 43.6642L42.3562 45.1983L43.4125 43.5ZM60.5459 51.1614H49.5827V55.1614H60.5459V51.1614ZM59.5192 52.494C59.3426 51.7185 59.9794 51.1614 60.5459 51.1614V55.1614C62.3155 55.1614 63.8629 53.5548 63.4194 51.6063L59.5192 52.494ZM49.9304 43.4131C53.3636 43.4131 55.5325 44.9581 56.9859 46.8511C58.4945 48.816 59.2144 51.1553 59.5192 52.4941L63.4194 51.6063C63.0574 50.0159 62.1713 47.0366 60.1587 44.4153C58.091 41.7221 54.8239 39.4131 49.9304 39.4131V43.4131ZM44.6222 45.0926C45.9118 44.1131 47.6135 43.4131 49.9304 43.4131V39.4131C46.7258 39.4131 44.1771 40.4077 42.2028 41.9073L44.6222 45.0926ZM42.3562 45.1983C45.7313 47.2974 47.0899 50.9139 47.6221 53.5563L51.5433 52.7665C50.9237 49.6898 49.2224 44.7582 44.4687 41.8017L42.3562 45.1983Z" fill="#219653"/>
<path d="M27.0775 43.4999L28.1338 45.1983L30.6004 43.6642L28.2872 41.9073L27.0775 43.4999ZM9.0207 52.0502L10.9708 52.4941L9.0207 52.0502ZM20.9072 53.1614V55.1614H22.5446L22.8679 53.5563L20.9072 53.1614ZM20.5597 43.4131C22.8765 43.4131 24.5782 44.1131 25.8678 45.0926L28.2872 41.9073C26.313 40.4077 23.7642 39.4131 20.5597 39.4131V43.4131ZM10.9708 52.4941C11.2756 51.1553 11.9956 48.816 13.5041 46.8512C14.9576 44.9581 17.1265 43.4131 20.5597 43.4131V39.4131C15.6662 39.4131 12.3991 41.7221 10.3314 44.4152C8.31878 47.0366 7.43261 50.0159 7.07059 51.6063L10.9708 52.4941ZM9.94406 51.1614C10.5106 51.1614 11.1474 51.7185 10.9708 52.4941L7.07059 51.6063C6.62704 53.5548 8.17449 55.1614 9.94406 55.1614V51.1614ZM20.9072 51.1614H9.94406V55.1614H20.9072V51.1614ZM22.8679 53.5563C23.4 50.9139 24.7587 47.2973 28.1338 45.1983L26.0213 41.8016C21.2676 44.7581 19.5663 49.6897 18.9466 52.7665L22.8679 53.5563Z" fill="#219653"/>
<path d="M35.245 41.4131C47.5955 41.4131 49.5592 51.7999 49.8714 55.1028C49.9234 55.6527 49.4827 56.0985 48.9304 56.0985H21.5596C21.0073 56.0985 20.5666 55.6527 20.6186 55.1028C20.9308 51.7999 22.8945 41.4131 35.245 41.4131Z" stroke="#219653" stroke-width="4" stroke-linecap="round"/>
</svg>
